<?xml version="1.0" encoding="utf-8"?>
<!-- Generator: Adobe Illustrator 20.1.0, SVG Export Plug-In . SVG Version: 6.00 Build 0)  -->
<svg version="1.1" id="Layer_1" xmlns="http://www.w3.org/2000/svg" xmlns:xlink="http://www.w3.org/1999/xlink" x="0px" y="0px"
	 viewBox="0 0 48 48" style="enable-background:new 0 0 48 48;" xml:space="preserve">
<style type="text/css">
	.st0{fill:none;stroke:#9850BF;stroke-width:2;stroke-linejoin:round;stroke-miterlimit:10;}
</style>
<g>
	<path class="st0" d="M15.3,8.3V6.6c0-3.1,2-5.6,4.4-5.6h8.5c2.4,0,4.4,2.5,4.4,5.6v1.7"/>
	<path class="st0" d="M47,41.4c0,3.1-2,5.6-4.4,5.6H5.4C3,47,1,44.5,1,41.4V13.9c0-3.1,2-5.6,4.4-5.6h37.2c2.4,0,4.4,2.5,4.4,5.6
		C47,13.9,47,41.4,47,41.4z"/>
	<line class="st0" x1="1" y1="23" x2="9.1" y2="23"/>
	<line class="st0" x1="38.9" y1="23" x2="47" y2="23"/>
	<line class="st0" x1="15.2" y1="23" x2="32.8" y2="23"/>
	<g>
		<path class="st0" d="M15.2,28.2c0,3.9-1.4,7.1-3.1,7.1s-3.1-3.2-3.1-7.1v-3.5c0-3.9,1.4-7.1,3.1-7.1s3.1,3.2,3.1,7.1
			C15.2,24.7,15.2,28.2,15.2,28.2z"/>
		<path class="st0" d="M38.9,28.2c0,3.9-1.4,7.1-3.1,7.1s-3.1-3.2-3.1-7.1v-3.5c0-3.9,1.4-7.1,3.1-7.1s3.1,3.2,3.1,7.1
			C38.9,24.7,38.9,28.2,38.9,28.2z"/>
	</g>
</g>
</svg>
