<?xml version="1.0" encoding="utf-8"?>
<!-- Generator: Adobe Illustrator 21.0.0, SVG Export Plug-In . SVG Version: 6.00 Build 0)  -->
<svg version="1.1" id="Capa_1" xmlns="http://www.w3.org/2000/svg" xmlns:xlink="http://www.w3.org/1999/xlink" x="0px" y="0px"
	 viewBox="0 0 512 512" style="enable-background:new 0 0 512 512;" xml:space="preserve">
<style type="text/css">
	.st0{fill:#FFFFFF;}
	.st1{fill:#933EC5;}
</style>
<g>
	<circle class="st0" cx="256" cy="256" r="255.1"/>
	<path class="st1" d="M265.1,376.3l71.9-71.9c5-5,5-13.1,0-18.1c-5-5-13.1-5-18.1,0l-50.1,50.1V144.8c0-7.1-5.7-12.8-12.8-12.8
		s-12.8,5.7-12.8,12.8v191.5L193,286.2c-5-5-13.1-5-18.1,0c-5,5-5,13.1,0,18.1l71.9,71.9c2.5,2.5,5.7,3.8,9.1,3.8
		S262.6,378.8,265.1,376.3z"/>
</g>
</svg>
