<?xml version="1.0" encoding="utf-8"?>
<!-- Generator: Adobe Illustrator 20.1.0, SVG Export Plug-In . SVG Version: 6.00 Build 0)  -->
<svg version="1.1" id="Layer_1" xmlns="http://www.w3.org/2000/svg" xmlns:xlink="http://www.w3.org/1999/xlink" x="0px" y="0px"
	 viewBox="0 0 48 48" style="enable-background:new 0 0 48 48;" xml:space="preserve">
<style type="text/css">
	.st0{fill:none;stroke:#9850BF;stroke-width:2;stroke-miterlimit:10;}
</style>
<g>
	<rect x="1" y="36.3" class="st0" width="46" height="4.9"/>
	<path class="st0" d="M45,32.7c0-11.6-9.4-21-21-21s-21,9.4-21,21c0,0.1,0,0.2,0,0.2h41.9C45,32.9,45,32.8,45,32.7z"/>
	<path class="st0" d="M24,15.4c-7.5,0-14,4.9-16.3,11.6"/>
	<path class="st0" d="M20.6,12.1c-0.2-0.5-0.4-1-0.4-1.6c0-2,1.7-3.7,3.7-3.7s3.7,1.7,3.7,3.7c0,0.6-0.1,1.2-0.4,1.7"/>
</g>
</svg>
