<?xml version="1.0" encoding="utf-8"?>
<!-- Generator: Adobe Illustrator 20.1.0, SVG Export Plug-In . SVG Version: 6.00 Build 0)  -->
<svg version="1.1" id="Layer_1" xmlns="http://www.w3.org/2000/svg" xmlns:xlink="http://www.w3.org/1999/xlink" x="0px" y="0px"
	 viewBox="0 0 48 48" style="enable-background:new 0 0 48 48;" xml:space="preserve">
<style type="text/css">
	.st0{fill:none;stroke:#9850BF;stroke-width:2;stroke-linecap:round;stroke-linejoin:round;stroke-miterlimit:10;}
</style>
<g>
	<path class="st0" d="M1,32.3v-6.7C1,12.1,11.4,1,24,1c12.7,0,23,11.1,23,24.6v6.7"/>
	<g>
		<g>
			<path class="st0" d="M10.1,34.9c0,0.5-0.4,1-1,1H2c-0.5,0-1-0.5-1-1v-8.1c0-0.5,0.5-1,1-1h7.1c0.6,0,1,0.5,1,1V34.9z"/>
		</g>
		<g>
			<path class="st0" d="M47,34.9c0,0.5-0.5,1-1,1h-7.1c-0.5,0-1-0.5-1-1v-8.1c0-0.5,0.5-1,1-1H46c0.5,0,1,0.5,1,1V34.9z"/>
		</g>
	</g>
	<path class="st0" d="M40.3,36.4c0,0-2,8.4-14.1,7.7"/>
	<path class="st0" d="M26.2,43.6c0,1.8-2,3.4-4.5,3.4c-2.5,0-4.5-1.5-4.5-3.4c0-1.9,2-3.4,4.5-3.4C24.2,40.3,26.2,41.8,26.2,43.6z"
		/>
</g>
</svg>
