<?xml version="1.0" encoding="utf-8"?>
<!-- Generator: Adobe Illustrator 20.1.0, SVG Export Plug-In . SVG Version: 6.00 Build 0)  -->
<svg version="1.1" id="Layer_1" xmlns="http://www.w3.org/2000/svg" xmlns:xlink="http://www.w3.org/1999/xlink" x="0px" y="0px"
	 viewBox="0 0 48 48" style="enable-background:new 0 0 48 48;" xml:space="preserve">
<style type="text/css">
	.st0{fill:#9850BF;}
</style>
<g>
	<path class="st0" d="M47,25h-6.4c0.1-0.3,0.1-0.7,0.1-1c0-0.4,0-0.7-0.1-1H47c0.6,0,1,0.5,1,1C48,24.6,47.5,25,47,25z M47,9.4H19.7
		c0.1-0.3,0.1-0.7,0.1-1c0-0.4,0-0.7-0.1-1H47c0.6,0,1,0.5,1,1C48,8.9,47.5,9.4,47,9.4z M13.6,12.5c-2.3,0-4.2-1.9-4.2-4.2
		c0-2.3,1.9-4.2,4.2-4.2c2.3,0,4.2,1.9,4.2,4.2C17.7,10.7,15.9,12.5,13.6,12.5z M13.6,6.3c-1.2,0-2.1,0.9-2.1,2.1
		c0,1.2,0.9,2.1,2.1,2.1c1.1,0,2.1-0.9,2.1-2.1C15.7,7.2,14.7,6.3,13.6,6.3z M1,9.4c-0.6,0-1-0.5-1-1c0-0.6,0.5-1,1-1h6.4
		C7.4,7.6,7.3,8,7.3,8.3c0,0.4,0,0.7,0.1,1H1z M1,23h27.2c-0.1,0.3-0.1,0.7-0.1,1c0,0.4,0,0.7,0.1,1H1c-0.6,0-1-0.5-1-1
		C0,23.4,0.5,23,1,23z M1,38.6h6.4c-0.1,0.3-0.1,0.7-0.1,1s0,0.7,0.1,1H1c-0.6,0-1-0.5-1-1C0,39.1,0.5,38.6,1,38.6z M13.6,35.5
		c2.3,0,4.2,1.9,4.2,4.2c0,2.3-1.9,4.2-4.2,4.2c-2.3,0-4.2-1.9-4.2-4.2C9.4,37.3,11.3,35.5,13.6,35.5z M13.6,41.7
		c1.1,0,2.1-0.9,2.1-2.1s-0.9-2.1-2.1-2.1c-1.2,0-2.1,0.9-2.1,2.1S12.4,41.7,13.6,41.7z M30.3,24c0-2.3,1.9-4.2,4.2-4.2
		s4.2,1.9,4.2,4.2c0,2.3-1.9,4.2-4.2,4.2S30.3,26.3,30.3,24z M36.5,24c0-1.2-0.9-2.1-2.1-2.1c-1.2,0-2.1,0.9-2.1,2.1
		c0,1.2,0.9,2.1,2.1,2.1C35.6,26.1,36.5,25.2,36.5,24z M47,38.6c0.6,0,1,0.5,1,1c0,0.6-0.5,1-1,1H19.7c0.1-0.3,0.1-0.7,0.1-1
		s0-0.7-0.1-1H47z"/>
</g>
</svg>
