<?xml version="1.0" encoding="utf-8"?>
<!-- Generator: Adobe Illustrator 19.1.0, SVG Export Plug-In . SVG Version: 6.00 Build 0)  -->
<svg version="1.1" id="Layer_1" xmlns="http://www.w3.org/2000/svg" xmlns:xlink="http://www.w3.org/1999/xlink" x="0px" y="0px"
	 viewBox="-215 392.6 178.3 57.3" style="enable-background:new -215 392.6 178.3 57.3;" xml:space="preserve">
<style type="text/css">
	.st0{fill:#39C1B0;}
	.st1{fill:none;}
	.st2{font-family:'Montserrat-Bold';}
	.st3{font-size:24px;}
</style>
<title>Artboard 1</title>
<path class="st0" d="M-177.4,418.6c-3.7,13.3-13,23-13,23c-1,1-1.7,0.8-2.4-0.4c-0.6-0.9-3.4-7.3-3.3-11c2.9,3.2,4.6,7.3,4.8,7
	C-188.6,432.1-182.7,424.7-177.4,418.6z"/>
<path class="st0" d="M-175.9,411.2c0,1.5-0.2,3.1-0.8,4.5l-0.1-1.1c0-0.7-0.1-1.7-0.2-3c-0.1-1.5-0.5-2.9-1.2-4.2
	c-0.2-0.4-0.4-0.8-0.6-1.1l-0.2-0.4l-0.2-0.2l-0.5-0.6c-0.6-0.8-1.3-1.5-2-2.2c-1.6-1.4-3.4-2.5-5.5-3.2c-2.2-0.7-4.6-1-7-0.7
	c-1.2,0.1-2.4,0.4-3.5,0.7l-0.9,0.3c-0.3,0.1-0.6,0.3-0.8,0.4c-0.3,0.1-0.6,0.3-0.8,0.4l-0.8,0.5c-0.5,0.3-1,0.7-1.5,1.1l-0.3,0.3
	l0,0l0,0l0,0l-0.2,0.3l-0.8,0.8l-0.2,0.1l-0.1,0.2l-0.3,0.3c-0.2,0.2-0.4,0.4-0.6,0.7c-0.4,0.5-0.8,1-1.1,1.6
	c-0.7,1-1.2,2.2-1.6,3.4c-0.4,1.2-0.6,2.4-0.8,3.7c-0.2,2.6,0,5.2,0.6,7.7c0.6,2.5,1.3,4.9,2.2,7.3c0.9,2.3,1.8,4.5,2.7,6.5l2.5,5.6
	c0.7,1.7,1.3,3.1,1.8,4.4c0.5,1.2,0.8,2.2,1.1,2.9l0.3,1l0.2,0.3l0,0c-9.5-12-17.9-24.5-17.3-36c0.6-11.5,9.9-20.4,20.6-19.7
	C-184.6,394.3-176.1,401.6-175.9,411.2z"/>
<rect x="-164.4" y="412.4" class="st1" width="232.3" height="59.3"/>
<text transform="matrix(1 0 0 1 -164.4077 430.1749)" class="st0 st2 st3">identity</text>
</svg>
