<?xml version="1.0" encoding="utf-8"?>
<!-- Generator: Adobe Illustrator 20.1.0, SVG Export Plug-In . SVG Version: 6.00 Build 0)  -->
<svg version="1.1" id="Layer_1" xmlns="http://www.w3.org/2000/svg" xmlns:xlink="http://www.w3.org/1999/xlink" x="0px" y="0px"
	 viewBox="0 0 48 48" style="enable-background:new 0 0 48 48;" xml:space="preserve">
<style type="text/css">
	.st0{fill:none;stroke:#9850BF;stroke-width:2;stroke-miterlimit:10;}
	.st1{fill:none;stroke:#9850BF;stroke-width:2;stroke-linejoin:round;stroke-miterlimit:10;}
</style>
<g>
	<path class="st0" d="M9.4,37.6c4.6,0,8.4-3.8,8.4-8.6H1C1,33.7,4.8,37.6,9.4,37.6z"/>
	<line class="st0" x1="24" y1="0.6" x2="24" y2="46.6"/>
	<line class="st0" x1="15" y1="46.6" x2="33.1" y2="46.6"/>
	<line class="st0" x1="5" y1="7.1" x2="24" y2="3.9"/>
	<polyline class="st1" points="17.8,28.6 9.4,6.6 1,28.6 	"/>
	<line class="st0" x1="9.4" y1="8.3" x2="9.4" y2="29"/>
	<path class="st0" d="M38.6,37.6c4.7,0,8.4-3.8,8.4-8.6H30.2C30.2,33.7,33.9,37.6,38.6,37.6z"/>
	<polyline class="st1" points="47,28.6 38.6,6.6 30.2,28.6 	"/>
	<line class="st0" x1="38.6" y1="8.3" x2="38.6" y2="29"/>
	<line class="st0" x1="43" y1="7.1" x2="24" y2="3.9"/>
</g>
</svg>
