<?xml version="1.0" encoding="utf-8"?>
<!-- Generator: Adobe Illustrator 20.1.0, SVG Export Plug-In . SVG Version: 6.00 Build 0)  -->
<svg version="1.1" id="Layer_1" xmlns="http://www.w3.org/2000/svg" xmlns:xlink="http://www.w3.org/1999/xlink" x="0px" y="0px"
	 viewBox="0 0 48 48" style="enable-background:new 0 0 48 48;" xml:space="preserve">
<style type="text/css">
	.st0{fill:none;stroke:#9850BF;stroke-width:2;stroke-miterlimit:10;}
</style>
<g>
	<g>
		<path class="st0" d="M47,40c0,3.8-3.2,7-7,7H8c-3.8,0-7-3.2-7-7V16.1c0-3.9,3.2-7,7-7h32c3.8,0,7,3.1,7,7V40z"/>
	</g>
	<path class="st0" d="M11.9,9.3V6.7c0-3.1,2.3-5.7,5-5.7h14.1c2.8,0,5,2.6,5,5.7v2.6"/>
	<line class="st0" x1="1.2" y1="24.5" x2="46.8" y2="24.5"/>
	<rect x="19.1" y="24.5" class="st0" width="9.7" height="11.9"/>
	<g>
		<line class="st0" x1="7.6" y1="17" x2="14.6" y2="17"/>
		<line class="st0" x1="33.4" y1="17" x2="40.4" y2="17"/>
	</g>
</g>
</svg>
