<?xml version="1.0" encoding="utf-8"?>
<!-- Generator: Adobe Illustrator 21.0.0, SVG Export Plug-In . SVG Version: 6.00 Build 0)  -->
<svg version="1.1" id="Layer_1" xmlns="http://www.w3.org/2000/svg" xmlns:xlink="http://www.w3.org/1999/xlink" x="0px" y="0px"
	 viewBox="0 0 149 41" style="enable-background:new 0 0 149 41;" xml:space="preserve">
<style type="text/css">
	.st0{fill:#6772E5;}
	.st1{fill:#FFFFFF;}
</style>
<path class="st0" d="M6,0h137c3.3,0,6,2.7,6,6v29c0,3.3-2.7,6-6,6H6c-3.3,0-6-2.7-6-6V6C0,2.7,2.7,0,6,0z"/>
<path class="st1" d="M137.8,21.9h-7.2c0.2,1.7,1.4,2.2,2.9,2.2c1.5,0,2.6-0.3,3.6-0.8v3c-1,0.6-2.3,1-4.1,1c-3.6,0-6.1-2.3-6.1-6.7
	c0-3.8,2.1-6.8,5.7-6.8c3.5,0,5.4,3,5.4,6.8C137.9,20.9,137.8,21.7,137.8,21.9z M132.5,16.8c-0.9,0-2,0.7-2,2.4h3.8
	C134.4,17.5,133.4,16.8,132.5,16.8z M121,27.2c-1.3,0-2.1-0.5-2.6-0.9l0,4.2l-3.7,0.8l0-17.3h3.3l0.2,0.9c0.5-0.5,1.5-1.2,2.9-1.2
	c2.6,0,5.1,2.3,5.1,6.7C126.1,25.1,123.6,27.2,121,27.2z M120.1,17c-0.9,0-1.4,0.3-1.8,0.7l0,5.5c0.4,0.4,0.9,0.7,1.7,0.7
	c1.4,0,2.3-1.5,2.3-3.5C122.4,18.5,121.5,17,120.1,17z M109.4,14h3.7v13h-3.7V14z M109.4,9.8l3.7-0.8v3l-3.7,0.8V9.8z M105.6,18.2
	V27h-3.7V14h3.2l0.2,1.1c0.9-1.6,2.6-1.3,3.1-1.1v3.4C107.9,17.2,106.5,17,105.6,18.2z M97.8,22.4c0,2.2,2.3,1.5,2.8,1.3v3
	c-0.5,0.3-1.4,0.5-2.6,0.5c-2.2,0-3.8-1.6-3.8-3.8l0-11.9l3.6-0.8l0,3.2h2.8v3.2h-2.8V22.4z M93.3,23.1c0,2.7-2.1,4.2-5.2,4.2
	c-1.3,0-2.7-0.2-4.1-0.8v-3.5c1.2,0.7,2.8,1.2,4.1,1.2c0.8,0,1.4-0.2,1.4-0.9c0-1.8-5.6-1.1-5.6-5.2c0-2.6,2-4.2,5-4.2
	c1.2,0,2.5,0.2,3.7,0.7v3.5c-1.1-0.6-2.6-1-3.7-1c-0.8,0-1.3,0.2-1.3,0.8C87.6,19.4,93.3,18.6,93.3,23.1z"/>
<g>
	<path class="st1" d="M12,23.9c-0.5,0-1.1-0.1-1.6-0.2s-0.9-0.4-1.2-0.7l0.6-1c0.3,0.2,0.6,0.4,1,0.5c0.4,0.1,0.8,0.2,1.1,0.2
		c0.5,0,0.8-0.1,1.1-0.3c0.2-0.2,0.3-0.5,0.3-0.8c0-0.1,0-0.3,0-0.3c0-0.1-0.1-0.2-0.1-0.3c-0.1-0.1-0.2-0.2-0.3-0.3
		c-0.1-0.1-0.3-0.2-0.6-0.3c-0.1,0-0.3-0.1-0.5-0.2c-0.3-0.1-0.4-0.1-0.6-0.2c-0.6-0.2-1.1-0.5-1.4-0.9C9.4,19,9.3,18.6,9.3,18
		c0-0.5,0.1-0.9,0.4-1.2c0.2-0.3,0.6-0.6,1-0.7s0.9-0.2,1.4-0.2c0.7,0,1.2,0.1,1.6,0.2s0.8,0.4,1.1,0.7L14,17.7
		C13.6,17.2,13,17,12.2,17c-0.4,0-0.8,0.1-1,0.2c-0.3,0.1-0.4,0.4-0.4,0.7c0,0.1,0,0.3,0,0.4c0,0.1,0.1,0.2,0.2,0.3
		c0.1,0.1,0.2,0.2,0.3,0.3c0.2,0.1,0.4,0.2,0.6,0.2c0.1,0,0.3,0.1,0.6,0.2c0.3,0.1,0.5,0.2,0.6,0.2c0.6,0.3,1.1,0.5,1.3,0.9
		s0.4,0.8,0.4,1.4c0,0.4-0.1,0.7-0.2,1s-0.4,0.5-0.6,0.7c-0.3,0.2-0.6,0.3-0.9,0.4C12.7,23.9,12.4,23.9,12,23.9z"/>
	<path class="st1" d="M19,23.9c-0.9,0-1.7-0.3-2.2-0.8c-0.5-0.5-0.8-1.2-0.8-2.1c0-0.4,0.1-0.8,0.2-1.1s0.3-0.7,0.5-0.9
		c0.2-0.3,0.5-0.5,0.9-0.6c0.4-0.2,0.8-0.2,1.2-0.2s0.8,0.1,1.1,0.2s0.6,0.4,0.8,0.6c0.2,0.3,0.3,0.6,0.4,0.9
		c0.1,0.3,0.1,0.7,0.1,1.1c0,0.1,0,0.2,0,0.2h-3.9c0,0.5,0.2,0.9,0.5,1.2c0.3,0.3,0.7,0.4,1.2,0.4c0.6,0,1.2-0.2,1.7-0.6l0.4,1
		c-0.3,0.2-0.7,0.4-1,0.5C19.8,23.9,19.4,23.9,19,23.9z M17.4,20.4h2.7c-0.1-0.4-0.2-0.7-0.4-0.9s-0.5-0.3-0.8-0.3
		c-0.4,0-0.7,0.1-1,0.3S17.5,20,17.4,20.4z"/>
	<path class="st1" d="M25.3,23.9c-0.4,0-0.9-0.1-1.2-0.2c-0.4-0.2-0.7-0.4-0.9-0.6c-0.2-0.3-0.4-0.6-0.5-0.9s-0.2-0.7-0.2-1.1
		c0-0.5,0.1-1,0.3-1.5c0.2-0.4,0.6-0.8,1-1c0.4-0.3,1-0.4,1.5-0.4c0.9,0,1.5,0.2,2,0.7l-0.5,0.9c-0.4-0.4-0.9-0.5-1.4-0.5
		s-0.9,0.2-1.2,0.5s-0.4,0.8-0.4,1.3c0,0.5,0.1,1,0.4,1.3c0.3,0.3,0.7,0.5,1.2,0.5c0.1,0,0.1,0,0.2,0s0.1,0,0.2,0c0.1,0,0.1,0,0.2,0
		c0.1,0,0.1,0,0.2-0.1s0.1,0,0.1-0.1s0.1-0.1,0.1-0.1c0,0,0.1,0,0.1-0.1s0.1-0.1,0.1-0.1c0,0,0,0,0.1-0.1c0,0,0.1,0,0.1-0.1l0.4,1
		c-0.3,0.2-0.6,0.4-0.9,0.5C26.1,23.9,25.7,23.9,25.3,23.9z"/>
	<path class="st1" d="M30.5,23.9c-0.7,0-1.2-0.2-1.6-0.6s-0.6-0.9-0.6-1.6v-3.5h1.3v3.5c0,0.4,0.1,0.6,0.3,0.8
		c0.2,0.2,0.5,0.3,0.8,0.3c0.4,0,0.7-0.1,0.9-0.3c0.2-0.2,0.3-0.5,0.3-1v-3.3h1.3v4l0.1,1.5h-1.4l0-0.8c0,0.1-0.1,0.2-0.1,0.3
		c-0.1,0.1-0.1,0.2-0.3,0.3c-0.1,0.1-0.3,0.2-0.4,0.3C30.9,23.9,30.7,23.9,30.5,23.9z"/>
	<path class="st1" d="M34.9,23.8v-4.1c0-0.2,0-0.4,0-0.7s0-0.4-0.1-0.5l0-0.2h1.4V19c0.2-0.3,0.4-0.5,0.7-0.6
		c0.2-0.1,0.5-0.2,0.7-0.2c0.2,0,0.3,0,0.5,0.1v1.2c-0.2-0.1-0.5-0.1-0.7-0.1c-0.4,0-0.7,0.1-0.9,0.4s-0.3,0.6-0.3,1v3.1H34.9z"/>
	<path class="st1" d="M41.8,23.9c-0.9,0-1.7-0.3-2.2-0.8c-0.5-0.5-0.8-1.2-0.8-2.1c0-0.4,0.1-0.8,0.2-1.1s0.3-0.7,0.5-0.9
		c0.2-0.3,0.5-0.5,0.9-0.6c0.4-0.2,0.8-0.2,1.2-0.2s0.8,0.1,1.1,0.2s0.6,0.4,0.8,0.6c0.2,0.3,0.3,0.6,0.4,0.9
		c0.1,0.3,0.1,0.7,0.1,1.1c0,0.1,0,0.2,0,0.2h-3.9c0,0.5,0.2,0.9,0.5,1.2c0.3,0.3,0.7,0.4,1.2,0.4c0.6,0,1.2-0.2,1.7-0.6l0.4,1
		c-0.3,0.2-0.7,0.4-1,0.5C42.6,23.9,42.2,23.9,41.8,23.9z M40.2,20.4h2.7c-0.1-0.4-0.2-0.7-0.4-0.9s-0.5-0.3-0.8-0.3
		c-0.4,0-0.7,0.1-1,0.3S40.3,20,40.2,20.4z"/>
	<path class="st1" d="M47.8,23.9c-0.7,0-1.3-0.3-1.8-0.8c-0.5-0.5-0.7-1.2-0.7-2.1c0-0.4,0.1-0.8,0.2-1.1s0.3-0.7,0.5-0.9
		c0.2-0.3,0.5-0.5,0.8-0.6c0.3-0.2,0.7-0.2,1.1-0.2c0.4,0,0.7,0.1,1,0.2c0.3,0.2,0.4,0.3,0.6,0.5V16h1.3v6.4c0,0,0,0.5,0,1.5h-1.4
		l0-0.7c0,0.1-0.1,0.2-0.2,0.3s-0.2,0.2-0.3,0.3s-0.3,0.2-0.5,0.2S48,23.9,47.8,23.9z M48,22.9c0.2,0,0.5,0,0.6-0.1
		c0.2-0.1,0.3-0.2,0.4-0.4c0.1-0.2,0.2-0.4,0.2-0.6c0.1-0.2,0.1-0.4,0.1-0.7c0-0.5-0.1-1-0.3-1.3c-0.2-0.3-0.6-0.5-1-0.5
		c-0.3,0-0.6,0.1-0.8,0.3c-0.2,0.2-0.4,0.4-0.5,0.6c-0.1,0.3-0.1,0.6-0.1,0.9c0,0.2,0,0.5,0.1,0.7c0.1,0.2,0.1,0.4,0.2,0.6
		c0.1,0.2,0.3,0.3,0.4,0.4C47.6,22.8,47.8,22.9,48,22.9z"/>
	<path class="st1" d="M56.8,23.8l-2-5.5h1.4c0.6,1.7,1,3,1.3,3.9c0.1-0.4,0.6-1.7,1.3-3.9h1.2c0.1,0.3,0.2,0.7,0.4,1.2
		c0.2,0.5,0.3,1,0.5,1.4c0.1,0.4,0.3,0.8,0.4,1.2c0.1-0.3,0.5-1.6,1.3-3.9h1.2l-2.1,5.5h-1.1c-0.8-2.3-1.2-3.5-1.3-3.7
		c-0.1,0.4-0.6,1.6-1.3,3.7H56.8z"/>
	<path class="st1" d="M64.5,17.2V16h1.3v1.2H64.5z M64.5,23.8v-5.5h1.3v5.5H64.5z"/>
	<path class="st1" d="M70.5,23.8H70c-0.2,0-0.4,0-0.6,0c-0.2,0-0.3,0-0.5-0.1c-0.2,0-0.3-0.1-0.4-0.1c-0.1-0.1-0.2-0.1-0.3-0.2
		c-0.1-0.1-0.2-0.2-0.3-0.4c-0.1-0.1-0.1-0.3-0.2-0.5c0-0.2-0.1-0.4-0.1-0.7v-2.6h-1.1v-0.9h1.2V17l1.3-0.4v1.7h1.4v0.9h-1.4v2.7
		c0,0.2,0,0.3,0,0.4c0,0.1,0.1,0.2,0.1,0.3s0.1,0.1,0.3,0.2c0.1,0,0.3,0.1,0.4,0.1c0.2,0,0.4,0,0.6,0V23.8z"/>
	<path class="st1" d="M71.7,23.8V16H73v3c0.1-0.3,0.4-0.5,0.7-0.6s0.6-0.2,1-0.2c0.3,0,0.5,0,0.7,0.1c0.2,0.1,0.4,0.1,0.5,0.2
		c0.1,0.1,0.3,0.2,0.4,0.4c0.1,0.1,0.2,0.3,0.3,0.4c0.1,0.1,0.1,0.3,0.1,0.5c0,0.2,0.1,0.3,0.1,0.5s0,0.3,0,0.5v3.1h-1.3v-3.1
		c0-0.5-0.1-0.9-0.2-1.1c-0.2-0.2-0.4-0.3-0.7-0.3c-0.4,0-0.7,0.1-1,0.4c-0.3,0.3-0.4,0.5-0.4,0.9v3.3H71.7z"/>
</g>
</svg>
