<?xml version="1.0" encoding="utf-8"?>
<!-- Generator: Adobe Illustrator 21.0.0, SVG Export Plug-In . SVG Version: 6.00 Build 0)  -->
<svg version="1.1" id="Layer_1" xmlns="http://www.w3.org/2000/svg" xmlns:xlink="http://www.w3.org/1999/xlink" x="0px" y="0px"
	 viewBox="0 0 113 122.5" style="enable-background:new 0 0 113 122.5;" xml:space="preserve">
<style type="text/css">
	.st0{opacity:0.5;}
	.st1{fill:none;stroke:#9650BD;stroke-miterlimit:10;}
	.st2{fill:#9650BD;}
	.st3{opacity:0.5;fill:none;stroke:#9650BD;stroke-miterlimit:10;stroke-dasharray:6.73;enable-background:new    ;}
</style>
<title>Asset 3Doc_Icons</title>
<g id="Layer_2">
	<g id="Layer_1-2">
		<g class="st0">
			<polygon class="st1" points="79.9,91.2 35.1,91.2 35.1,37 71.6,37 71.1,44.6 79.9,44.6 			"/>
			<line class="st1" x1="71.6" y1="37" x2="79.9" y2="45"/>
		</g>
		<g class="st0">
			<line class="st1" x1="56.5" y1="1.8" x2="56.5" y2="21.7"/>
			<path class="st2" d="M51.8,15.1c0.2-0.1,0.5-0.1,0.7,0.1l4,6.3l4-6.3c0.2-0.2,0.5-0.3,0.7-0.1c0.2,0.1,0.3,0.4,0.1,0.6l-4.4,6.9
				c-0.1,0.2-0.4,0.3-0.7,0.1c-0.1,0-0.1-0.1-0.1-0.1l-4.4-6.9C51.6,15.5,51.6,15.2,51.8,15.1z"/>
		</g>
		<path class="st3" d="M85.8,20.1c25.3,16.2,32.6,49.8,16.4,75.1s-49.8,32.6-75.1,16.4S-5.4,61.8,10.8,36.5
			c5.1-7.9,12.2-14.4,20.5-18.8"/>
	</g>
</g>
</svg>
