<?xml version="1.0" encoding="utf-8"?>
<!-- Generator: Adobe Illustrator 19.1.0, SVG Export Plug-In . SVG Version: 6.00 Build 0)  -->
<svg version="1.1" id="Layer_1" xmlns="http://www.w3.org/2000/svg" xmlns:xlink="http://www.w3.org/1999/xlink" x="0px" y="0px"
	 viewBox="-215 392.6 178.3 57.3" style="enable-background:new -215 392.6 178.3 57.3;" xml:space="preserve">
<style type="text/css">
	.st0{fill:#39C1B0;}
</style>
<title>Artboard 1</title>
<path class="st0" d="M-177.4,418.6c-3.7,13.3-13,23-13,23c-1,1-1.7,0.8-2.4-0.4c-0.6-0.9-3.4-7.3-3.3-11c2.9,3.2,4.6,7.3,4.8,7
	C-188.6,432.1-182.7,424.7-177.4,418.6z"/>
<path class="st0" d="M-175.9,411.2c0,1.5-0.2,3.1-0.8,4.5l-0.1-1.1c0-0.7-0.1-1.7-0.2-3c-0.1-1.5-0.5-2.9-1.2-4.2
	c-0.2-0.4-0.4-0.8-0.6-1.1l-0.2-0.4l-0.2-0.2l-0.5-0.6c-0.6-0.8-1.3-1.5-2-2.2c-1.6-1.4-3.4-2.5-5.5-3.2c-2.2-0.7-4.6-1-7-0.7
	c-1.2,0.1-2.4,0.4-3.5,0.7l-0.9,0.3c-0.3,0.1-0.6,0.3-0.8,0.4c-0.3,0.1-0.6,0.3-0.8,0.4l-0.8,0.5c-0.5,0.3-1,0.7-1.5,1.1l-0.3,0.3
	l0,0l0,0l0,0l-0.2,0.3l-0.8,0.8l-0.2,0.1l-0.1,0.2l-0.3,0.3c-0.2,0.2-0.4,0.4-0.6,0.7c-0.4,0.5-0.8,1-1.1,1.6
	c-0.7,1-1.2,2.2-1.6,3.4c-0.4,1.2-0.6,2.4-0.8,3.7c-0.2,2.6,0,5.2,0.6,7.7c0.6,2.5,1.3,4.9,2.2,7.3c0.9,2.3,1.8,4.5,2.7,6.5l2.5,5.6
	c0.7,1.7,1.3,3.1,1.8,4.4c0.5,1.2,0.8,2.2,1.1,2.9l0.3,1l0.2,0.3l0,0c-9.5-12-17.9-24.5-17.3-36c0.6-11.5,9.9-20.4,20.6-19.7
	C-184.6,394.3-176.1,401.6-175.9,411.2z"/>
<g>
	<path class="st0" d="M-165.2,419.8c0.1-0.9,0.4-1.6,1.2-2.1c0.7-0.5,1.5-0.8,2.3-0.9c0.8-0.1,1.5-0.1,2.2,0.1
		c0.6,0.2,0.9,0.5,0.8,1c-0.4,1.5-0.6,3.1-0.6,4.8c0,1.7,0.2,3.4,0.4,4.9c0.2,1.5,0.6,2.8,1,3.8c0.4,1,0.9,1.5,1.3,1.5
		c0.5,0,0.9-0.6,1.4-1.8c0.5-1.2,0.9-2.6,1.2-4.1c0.3-1.5,0.6-3.1,0.8-4.6c0.2-1.5,0.3-2.5,0.3-3.1c0-0.5,0.2-0.9,0.6-1.2
		c0.4-0.3,0.8-0.4,1.2-0.4c0.4,0,0.8,0.1,1.2,0.4c0.3,0.3,0.5,0.7,0.4,1.2c-0.1,0.3-0.1,1-0.2,2c-0.1,1-0.3,2.2-0.5,3.5
		c-0.2,1.3-0.6,2.7-1,4.2c-0.4,1.4-1,2.8-1.6,4c-0.6,1.2-1.4,2.2-2.3,3c-0.9,0.8-1.9,1.2-3.1,1.3c-1.5,0.1-2.7-0.4-3.8-1.4
		c-1-1-1.8-2.4-2.4-4.1c-0.6-1.7-0.9-3.6-1-5.8C-165.6,424-165.5,421.9-165.2,419.8z"/>
	<path class="st0" d="M-133.2,424.2c-0.4,0.6-1,1.1-1.6,1.4c-0.6,0.4-1.3,0.7-2.1,0.9c-0.7,0.2-1.5,0.4-2.3,0.5
		c-0.8,0.1-1.5,0.2-2,0.2c-0.2,1.1-0.3,2.2-0.3,3.3c0,1.1,0,2,0.2,2.9c0.1,0.9,0.3,1.6,0.6,2.2c0.3,0.6,0.7,1,1.2,1.1
		c0.7,0.2,1.4,0.1,2.2-0.4c0.8-0.5,1.6-1.1,2.3-1.9c0.7-0.8,1.5-1.7,2.2-2.8c0.7-1.1,1.3-2.1,1.8-3.1c0.5-1,1-1.9,1.4-2.7
		c0.4-0.8,0.6-1.4,0.7-1.8c0.2-0.5,0.4-0.8,0.8-1c0.3-0.2,0.7-0.2,1-0.2c0.3,0.1,0.6,0.2,0.8,0.5c0.2,0.3,0.3,0.7,0.2,1.2
		c-0.1,0.3-0.3,0.9-0.6,1.9c-0.3,0.9-0.7,2-1.2,3.2c-0.5,1.2-1.1,2.4-1.8,3.6c-0.7,1.3-1.6,2.4-2.6,3.4c-1,1-2.2,1.9-3.5,2.6
		c-1.3,0.7-2.8,1-4.4,1c-1.9,0-3.4-0.7-4.5-2c-1.1-1.3-1.8-3-2.2-5c-0.4-2-0.4-4.2-0.2-6.5c0.2-2.3,0.7-4.5,1.4-6.5
		c0.7-2,1.6-3.7,2.7-5c1.1-1.3,2.3-2,3.6-2c1.3,0,2.4,0.4,3.4,1.3c1,0.9,1.7,1.9,2.3,3.1c0.5,1.2,0.8,2.4,0.9,3.6
		C-132.5,422.6-132.7,423.5-133.2,424.2z M-138.2,417.1c-0.4,0.2-0.8,0.8-1.2,2c-0.4,1.2-0.8,2.7-1.2,4.4c0.6,0,1.2-0.1,1.8-0.2
		c0.6-0.1,1-0.4,1.3-0.8c0.2-0.3,0.3-0.8,0.4-1.4c0.1-0.6,0-1.2,0-1.9c-0.1-0.6-0.2-1.2-0.4-1.6C-137.8,417.1-138,417-138.2,417.1z"
		/>
	<path class="st0" d="M-126.4,425.2c-0.1,0.4-0.3,0.7-0.7,0.9c-0.3,0.2-0.7,0.2-1.1,0.2c-0.4-0.1-0.7-0.3-0.9-0.6s-0.2-0.7,0-1.2
		l0.5-1.4c-0.5-0.5-0.7-1-0.8-1.7c-0.1-0.6,0.1-1.2,0.3-1.8c0.3-0.6,0.7-1,1.2-1.4c0.5-0.4,1.1-0.6,1.7-0.6c1.1,0,1.7,0.4,1.8,1.2
		c0.1,0.8-0.1,1.7-0.5,2.8c0.3,0.2,0.8,0.2,1.6,0.1c0.7-0.1,1.4-0.2,2-0.2c0.6,0,1.2,0.1,1.6,0.4c0.4,0.3,0.5,0.9,0.3,1.8
		c-0.2,1-0.4,2.1-0.7,3.4c-0.2,1.3-0.4,2.6-0.5,3.8c-0.1,1.2-0.1,2.2,0,3.1c0.1,0.9,0.4,1.3,0.9,1.3c0.3,0,0.7-0.5,1.2-1.4
		c0.5-0.9,1-2,1.6-3.2c0.5-1.2,1-2.5,1.4-3.7c0.4-1.3,0.7-2.2,0.8-2.8c0.1-0.5,0.3-0.9,0.7-1.1c0.3-0.2,0.7-0.3,1.1-0.3
		c0.4,0,0.7,0.2,0.9,0.5c0.2,0.3,0.3,0.7,0.3,1.2c-0.1,0.3-0.2,0.8-0.4,1.7c-0.2,0.9-0.5,1.9-0.9,3c-0.4,1.1-0.8,2.2-1.4,3.4
		c-0.5,1.2-1.2,2.3-1.9,3.3c-0.7,1-1.6,1.8-2.5,2.4c-0.9,0.6-1.9,0.9-3,0.8c-1.3-0.1-2.2-0.6-2.8-1.7c-0.6-1.1-1-2.4-1.1-3.9
		c-0.2-1.5-0.1-3.1,0.1-4.8c0.2-1.7,0.6-3.2,1-4.5c-0.3,0.1-0.5,0.1-0.8,0.1c-0.3,0-0.5,0-0.8,0
		C-126.2,424.6-126.3,424.9-126.4,425.2z"/>
	<path class="st0" d="M-105.3,410.6c0.1,0.6,0,1.1-0.2,1.6c-0.2,0.5-0.6,1-1.1,1.4c-0.5,0.4-1,0.7-1.7,1c-0.6,0.3-1.3,0.5-2,0.6
		c-1.3,0.2-2.6,0-3.9-0.4c-1.3-0.4-2-1.2-2.2-2.3c-0.2-1.2,0.1-2.2,1.1-3c0.9-0.8,2.2-1.4,3.7-1.6c1.5-0.3,2.9-0.1,4.2,0.4
		C-106.2,408.7-105.5,409.5-105.3,410.6z M-114.5,421.6c0-1.3,0.3-2.2,1-2.6c0.7-0.5,1.4-0.7,2.2-0.6c0.8,0.1,1.5,0.5,2.1,1
		c0.6,0.6,0.8,1.3,0.6,2.2c-0.2,1-0.4,2.2-0.6,3.6c-0.2,1.4-0.3,2.8-0.4,4.2c-0.1,1.3,0,2.5,0.1,3.4c0.1,1,0.4,1.4,0.9,1.4
		c0.3,0,0.7-0.4,1.2-1.2c0.5-0.8,0.9-1.8,1.3-2.9c0.4-1.1,0.8-2.2,1.2-3.4c0.4-1.1,0.6-2,0.7-2.6c0.2-0.5,0.4-0.9,0.8-1.1
		c0.4-0.2,0.7-0.2,1.1-0.2c0.3,0.1,0.6,0.3,0.9,0.6c0.2,0.3,0.3,0.7,0.1,1.2c-0.1,0.3-0.3,0.9-0.5,1.8c-0.2,0.9-0.5,1.9-0.9,2.9
		c-0.4,1.1-0.8,2.2-1.3,3.3c-0.5,1.1-1.1,2.2-1.8,3c-0.7,0.9-1.4,1.6-2.2,2c-0.8,0.5-1.7,0.6-2.6,0.3c-1.4-0.4-2.5-1.2-3.1-2.4
		c-0.6-1.1-1-2.5-1.1-4c-0.1-1.5-0.1-3.2,0-5C-114.5,425-114.5,423.3-114.5,421.6z"/>
	<path class="st0" d="M-84.8,410.6c0.1,0.6,0,1.1-0.2,1.6c-0.2,0.5-0.6,1-1.1,1.4c-0.5,0.4-1,0.7-1.7,1c-0.6,0.3-1.3,0.5-2,0.6
		c-1.3,0.2-2.6,0-3.9-0.4c-1.3-0.4-2-1.2-2.2-2.3c-0.1-0.1-0.1-0.3-0.1-0.5v-0.2c0.1-1,0.6-1.8,1.5-2.5c0.9-0.7,2-1.2,3.4-1.4h0.2
		c0,0.1,0,0.2,0,0.4c0,0.1,0,0.3,0,0.4c-0.1,0.7-0.4,1.3-1,1.9c-0.5,0.6-1.1,1-1.7,1.3c-0.6,0.3-1.1,0.5-1.6,0.6
		c-0.5,0.1-0.7,0-0.8-0.4v-0.2c0-0.1,0-0.1,0-0.1c0,0,0,0,0-0.1c0.2-0.9,0.4-1.7,0.4-2.6s0.1-1.7,0-2.3c-0.1-0.7-0.2-1.2-0.3-1.6
		c-0.2-0.4-0.4-0.6-0.7-0.6s-0.6,0.2-0.8,0.7c-0.2,0.5-0.4,1.3-0.6,2.4c-0.2,1.1-0.3,2.6-0.4,4.4c-0.1,1.8-0.1,4.1-0.2,6.7
		c1.2-0.1,2.5-0.2,3.7-0.2c1.3,0,2.3,0,3,0c0.5-0.1,1,0,1.4,0.1c0.5,0.1,0.9,0.3,1.2,0.6c0.3,0.3,0.6,0.7,0.8,1.1
		c0.2,0.4,0.3,0.9,0.2,1.4c-0.2,1-0.4,2.2-0.6,3.6c-0.2,1.4-0.3,2.8-0.4,4.2c-0.1,1.3,0,2.5,0.1,3.4c0.1,1,0.4,1.4,0.9,1.4
		c0.3,0,0.7-0.4,1.2-1.2c0.5-0.8,0.9-1.8,1.3-2.9c0.4-1.1,0.8-2.2,1.2-3.4c0.4-1.1,0.6-2,0.7-2.6c0.2-0.5,0.4-0.9,0.8-1.1
		c0.4-0.2,0.7-0.2,1.1-0.2s0.6,0.3,0.9,0.6c0.2,0.3,0.3,0.7,0.1,1.2c-0.1,0.3-0.3,0.9-0.5,1.8s-0.5,1.9-0.9,2.9
		c-0.4,1.1-0.8,2.2-1.3,3.3c-0.5,1.1-1.1,2.2-1.8,3c-0.7,0.9-1.4,1.6-2.2,2c-0.8,0.5-1.7,0.6-2.6,0.3c-1.4-0.4-2.5-1.2-3.1-2.3
		c-0.6-1.1-1-2.5-1.1-4c-0.1-1.5-0.1-3.2,0-5c0.1-1.8,0.2-3.5,0.2-5.2c-0.6,0-1.3,0-2.1,0c-0.8,0-1.6,0.1-2.4,0.1
		c-0.1,2.2-0.1,4.7,0,7.5c0,2.7,0.1,5.8,0.1,9.2c0,1-0.3,1.8-1,2.4s-1.3,1.1-2.1,1.4c-0.8,0.2-1.5,0.3-2.1,0.1c-0.6-0.2-1-0.6-1-1.3
		l0.6-19.2c-0.7-0.1-1.3-0.2-1.7-0.5c-0.4-0.3-0.6-0.6-0.6-1c0-0.4,0.2-0.7,0.6-1c0.4-0.3,1-0.5,1.9-0.5c0.2-3.2,0.4-5.9,0.7-8
		c0.3-2.1,0.7-3.9,1.3-5.2c0.6-1.3,1.3-2.2,2.2-2.8c0.9-0.6,2-0.9,3.3-1c0.8-0.1,1.5,0.1,2.2,0.5c0.7,0.4,1.3,0.9,1.8,1.5
		c0.5,0.6,0.9,1.3,1.2,2c0.3,0.7,0.4,1.4,0.4,2c1.5-0.2,2.8-0.1,4,0.4C-85.7,408.8-85,409.5-84.8,410.6z"/>
	<path class="st0" d="M-70.3,424.2c-0.4,0.6-1,1.1-1.6,1.4s-1.3,0.7-2.1,0.9c-0.7,0.2-1.5,0.4-2.3,0.5c-0.8,0.1-1.5,0.2-2,0.2
		c-0.2,1.1-0.3,2.2-0.3,3.3c0,1.1,0,2,0.2,2.9c0.1,0.9,0.3,1.6,0.6,2.2c0.3,0.6,0.7,1,1.2,1.1c0.7,0.2,1.4,0.1,2.2-0.4
		c0.8-0.5,1.6-1.1,2.3-1.9c0.7-0.8,1.5-1.7,2.2-2.8c0.7-1.1,1.3-2.1,1.8-3.1c0.5-1,1-1.9,1.4-2.7c0.4-0.8,0.6-1.4,0.7-1.8
		c0.2-0.5,0.4-0.8,0.8-1c0.3-0.2,0.7-0.2,1-0.2c0.3,0.1,0.6,0.2,0.8,0.5c0.2,0.3,0.3,0.7,0.2,1.2c-0.1,0.3-0.3,0.9-0.6,1.9
		c-0.3,0.9-0.7,2-1.2,3.2c-0.5,1.2-1.1,2.4-1.8,3.6c-0.7,1.3-1.6,2.4-2.6,3.4c-1,1-2.2,1.9-3.5,2.6c-1.3,0.7-2.8,1-4.4,1
		c-1.9,0-3.4-0.7-4.5-2c-1.1-1.3-1.8-3-2.2-5c-0.4-2-0.4-4.2-0.2-6.5c0.2-2.3,0.7-4.5,1.4-6.5c0.7-2,1.6-3.7,2.7-5
		c1.1-1.3,2.3-2,3.6-2c1.3,0,2.4,0.4,3.4,1.3c1,0.9,1.7,1.9,2.3,3.1c0.5,1.2,0.8,2.4,0.9,3.6C-69.5,422.6-69.8,423.5-70.3,424.2z
		 M-75.3,417.1c-0.4,0.2-0.8,0.8-1.2,2c-0.4,1.2-0.8,2.7-1.2,4.4c0.6,0,1.2-0.1,1.8-0.2c0.6-0.1,1-0.4,1.3-0.8
		c0.2-0.3,0.3-0.8,0.4-1.4c0.1-0.6,0-1.2,0-1.9c-0.1-0.6-0.2-1.2-0.4-1.6C-74.8,417.1-75,417-75.3,417.1z"/>
	<path class="st0" d="M-52.3,403.7c0-1.3,0.3-2.2,1-2.7c0.7-0.5,1.4-0.7,2.2-0.7c0.8,0.1,1.5,0.3,2.1,0.9c0.6,0.5,0.8,1.2,0.7,2.1
		c-0.1,0.6-0.3,1.9-0.5,3.6c-0.2,1.8-0.4,3.9-0.7,6.2c-0.2,2.3-0.4,4.8-0.6,7.3c-0.2,2.5-0.2,4.8-0.2,7c0,2.1,0.1,3.9,0.3,5.2
		c0.2,1.4,0.5,2,1.1,2c0.5,0,1-0.5,1.5-1.4c0.5-0.9,1-2,1.5-3.2s0.9-2.4,1.2-3.5c0.3-1.1,0.6-2,0.7-2.5c0.2-0.5,0.4-0.9,0.8-1.1
		c0.3-0.2,0.7-0.2,1-0.2c0.3,0.1,0.6,0.3,0.9,0.6c0.2,0.3,0.3,0.7,0.2,1.3c-0.1,0.5-0.3,1.6-0.7,3.1c-0.4,1.5-0.9,3.1-1.7,4.8
		c-0.7,1.6-1.7,3.1-2.9,4.4c-1.2,1.3-2.6,1.9-4.3,1.9c-1.2,0-2.2-0.5-2.8-1.5c-0.7-1-1.2-2.3-1.6-3.9c-0.4,1-1,1.9-1.7,2.7
		s-1.6,1.4-2.7,1.8c-1.2,0.4-2.2,0.5-3,0.2c-1.5-0.4-2.8-1.2-3.7-2.5c-0.9-1.3-1.5-2.8-1.9-4.6c-0.3-1.7-0.4-3.5-0.1-5.4
		c0.3-1.9,0.8-3.5,1.6-5c0.8-1.5,1.9-2.7,3.3-3.5c1.4-0.8,3.1-1.1,5-0.8c1.1,0.2,2,0.7,2.8,1.7c0.2-3,0.5-5.9,0.7-8.5
		C-52.4,407-52.3,405.1-52.3,403.7z M-54.1,423.5c-0.1-0.7-0.3-1.5-0.6-2.2c-0.3-0.7-0.7-1.2-1.3-1.3c-0.9-0.2-1.6,0.1-2.3,0.8
		c-0.7,0.7-1.2,1.6-1.6,2.7c-0.4,1.1-0.7,2.3-0.9,3.6c-0.2,1.3-0.2,2.6-0.2,3.8c0.1,1.2,0.3,2.2,0.7,3c0.4,0.8,0.9,1.3,1.6,1.4
		c0.7,0.1,1.3-0.2,2-1c0.6-0.7,1.1-1.7,1.6-2.9c0.5-1.2,0.8-2.5,1-3.9C-54,426.1-54,424.8-54.1,423.5z"/>
</g>
</svg>
