<?xml version="1.0" encoding="utf-8"?>
<!-- Generator: Adobe Illustrator 19.1.0, SVG Export Plug-In . SVG Version: 6.00 Build 0)  -->
<svg version="1.1" id="Layer_1" xmlns="http://www.w3.org/2000/svg" xmlns:xlink="http://www.w3.org/1999/xlink" x="0px" y="0px"
	 viewBox="0 0 38.5 55.7" style="enable-background:new 0 0 38.5 55.7;" xml:space="preserve">
<style type="text/css">
	.st0{fill:#48B8AC;}
</style>
<path class="st0" d="M37,24.8c-3.7,13.3-13,23-13,23c-1,1-1.7,0.8-2.4-0.4c-0.6-0.9-3.4-7.3-3.3-11c2.9,3.2,4.6,7.3,4.8,7
	C25.8,38.3,31.7,30.9,37,24.8z"/>
<path class="st0" d="M38.5,17.4c0,1.5-0.2,3.1-0.8,4.5l-0.1-1.1c0-0.7-0.1-1.7-0.2-3c-0.1-1.5-0.5-2.9-1.2-4.2
	c-0.2-0.4-0.4-0.8-0.6-1.1l-0.2-0.4l-0.2-0.2l-0.5-0.6c-0.6-0.8-1.3-1.5-2-2.2c-1.6-1.4-3.4-2.5-5.5-3.2c-2.2-0.7-4.6-1-7-0.7
	c-1.2,0.1-2.4,0.4-3.5,0.7l-0.9,0.3c-0.3,0.1-0.6,0.3-0.8,0.4c-0.3,0.1-0.6,0.3-0.8,0.4l-0.8,0.5c-0.5,0.3-1,0.7-1.5,1.1l-0.3,0.3
	l0,0l0,0l0,0l-0.2,0.3L10.6,10l-0.2,0.1l-0.1,0.2L10,10.6c-0.2,0.2-0.4,0.4-0.6,0.7c-0.4,0.5-0.8,1-1.1,1.6c-0.7,1-1.2,2.2-1.6,3.4
	c-0.4,1.2-0.6,2.4-0.8,3.7c-0.2,2.6,0,5.2,0.6,7.7s1.3,4.9,2.2,7.3c0.9,2.3,1.8,4.5,2.7,6.5l2.5,5.6c0.7,1.7,1.3,3.1,1.8,4.4
	c0.5,1.2,0.8,2.2,1.1,2.9l0.3,1l0.2,0.3l0,0C7.8,43.7-0.6,31.2,0,19.7S9.9-0.7,20.6,0C29.8,0.5,38.3,7.8,38.5,17.4z"/>
</svg>
