<?xml version="1.0" standalone="no"?>
<!DOCTYPE svg PUBLIC "-//W3C//DTD SVG 1.1//EN" "http://www.w3.org/Graphics/SVG/1.1/DTD/svg11.dtd" >
<svg xmlns="http://www.w3.org/2000/svg">
<metadata>Generated by IcoMoon</metadata>
<defs>
<font id="tempal-icons" horiz-adv-x="1024">
<font-face units-per-em="1024" ascent="960" descent="-64" />
<missing-glyph horiz-adv-x="1024" />
<glyph unicode="&#x20;" d="" />
<glyph unicode="&#x61;" glyph-name="bubble" d="M512 736c-190 0-352-102-352-224 0-8 8-16 16-16s16 8 16 16c0 102 150 192 320 192 8 0 16 8 16 16s-8 16-16 16zM512 896c-282 0-512-172-512-384 0-132 88-248 224-318 0 0 0-2 0-2 0-58-42-120-62-152 0 0 0 0 0 0-2-4-2-6-2-12 0-16 12-28 28-28 4 0 10 0 10 0 100 16 194 108 216 136 32-6 64-8 98-8 282 0 512 172 512 384s-230 384-512 384zM512 192c-30 0-60 2-90 6-2 2-6 2-8 2-20 0-38-10-50-24-14-16-52-54-98-82 12 30 22 62 22 94 0 2 0 4 0 6 0 24-14 46-34 58-120 60-190 158-190 260 0 176 200 320 448 320 246 0 448-144 448-320s-200-320-448-320z" />
<glyph unicode="&#x62;" glyph-name="star" d="M1020 558c-8 26-32 44-58 48l-268 40-116 240c-12 26-38 42-66 42s-54-16-66-42l-116-240-268-40c-26-4-50-22-58-48s-2-54 18-72l194-196-44-270c-6-28 6-54 30-70 12-10 26-14 42-14 12 0 24 4 36 8l232 126 232-126c12-4 24-8 36-8 16 0 30 4 42 14 24 16 36 42 30 70l-44 270 196 196c18 18 24 46 16 72zM754 340c-16-16-22-38-20-62l46-270-232 126c-12 6-24 8-36 8s-24-2-36-8l-232-126 46 270c2 24-4 46-20 62l-196 196 266 40c24 2 46 18 56 40l116 240 116-240c10-22 32-38 56-42l266-38z" />
<glyph unicode="&#x63;" glyph-name="bookmark-o" d="M804 814h-584v-710l292 280 50-48 242-232zM812 886c8 0 16 0 24-4 14-6 24-14 30-24 8-10 12-22 12-36v-736c0-12-4-24-12-36-6-10-16-18-30-22-6-4-16-6-24-6-18 0-34 6-48 20l-252 242-252-242c-14-14-30-20-48-20-8 0-16 2-24 6-14 4-24 12-30 22-8 12-12 24-12 36v736c0 14 4 26 12 36 6 10 16 18 30 24 8 4 16 4 24 4z" />
<glyph unicode="&#x64;" glyph-name="search" d="M640 960c-212 0-384-172-384-384 0-64 16-126 44-180l-266-266c-22-22-34-50-34-82 0-62 50-112 112-112 32 0 60 12 82 34v0l266 266c54-28 116-44 180-44 212 0 384 172 384 384s-172 384-384 384zM154 10c-10-10-26-18-42-18-30 0-56 26-56 56 0 16 8 30 18 42v0l258 258c22-30 50-58 80-80zM640 256c-176 0-320 144-320 320s144 320 320 320c176 0 320-144 320-320s-144-320-320-320zM640 800c-124 0-224-100-224-224 0-8 8-16 16-16s16 8 16 16c0 106 86 192 192 192 8 0 16 8 16 16s-8 16-16 16z" />
<glyph unicode="&#xe600;" glyph-name="refresh_new" d="M475.894 748.078c-181.938 0-329.465-147.527-329.465-329.465 0-181.865 147.527-329.465 329.465-329.465 181.865 0 329.465 147.6 329.465 329.465 0 181.938-147.6 329.465-329.465 329.465zM475.894 235.578c-101.109 0-183.036 82-183.036 183.036 0 101.109 81.927 183.036 183.036 183.036s183.036-81.927 183.036-183.036c0-101.036-81.927-183.036-183.036-183.036z" />
<glyph unicode="&#xe601;" glyph-name="close_line" d="M805.357 125.756c-9.371 0-18.743 3.588-25.918 10.689l-585.715 585.715c-14.277 14.277-14.277 37.486 0 51.763s37.486 14.277 51.763 0l585.715-585.715c14.277-14.277 14.277-37.486 0-51.763-7.102-7.102-16.473-10.689-25.844-10.689zM219.643 125.756c-9.371 0-18.743 3.588-25.918 10.689-14.277 14.277-14.277 37.486 0 51.763l585.715 585.715c14.277 14.277 37.486 14.277 51.763 0s14.277-37.486 0-51.763l-585.715-585.715c-7.102-7.102-16.473-10.689-25.844-10.689z" />
<glyph unicode="&#xe602;" glyph-name="bag" d="M366.071 821.293h292.857v-146.429h73.214v219.643h-439.286v-219.643h73.214zM73.214-57.279h878.572l73.214 512.5h-1025.001zM0 601.65h1025.001v-73.214h-1025.001v73.214z" />
<glyph unicode="&#xe603;" glyph-name="bag1" d="M732.144 601.65h-439.286c-80.829 0-146.429-65.6-146.429-146.429v-366.071c0-80.829 65.6-146.429 146.429-146.429h439.286c80.829 0 146.429 65.6 146.429 146.429v366.071c0 80.829-65.6 146.429-146.429 146.429zM366.071 308.792c-40.414 0-73.214 32.727-73.214 73.214 0 40.414 32.8 73.214 73.214 73.214s73.214-32.8 73.214-73.214c0-40.488-32.8-73.214-73.214-73.214zM658.929 308.792c-40.488 0-73.214 32.727-73.214 73.214 0 40.414 32.727 73.214 73.214 73.214s73.214-32.8 73.214-73.214c0-40.488-32.727-73.214-73.214-73.214zM366.071 674.865v146.429c0 40.414 32.8 73.214 73.214 73.214h146.429c40.488 0 73.214-32.8 73.214-73.214v-146.429h73.214v219.643c0 40.414-32.727 73.214-73.214 73.214h-292.857c-40.414 0-73.214-32.8-73.214-73.214v-219.643h73.214z" />
<glyph unicode="&#xe604;" glyph-name="bold" d="M536.661 15.935h-384.522v878.353h341.765c59.45 0 110.773-7.175 153.969-21.379 43.123-14.204 75.484-33.532 97.302-57.839 39.389-45.173 59.011-96.277 59.011-153.311 0-68.675-22.184-119.706-66.479-153.311-15.156-11.714-25.625-19.036-31.482-21.964-5.857-3.002-16.4-7.761-31.482-14.423 54.544-11.788 97.888-36.314 130.029-73.507 32.288-37.266 48.394-83.611 48.394-138.888 0-61.061-20.939-115.093-62.818-162.096-48.541-54.398-133.031-81.634-253.688-81.634zM348.207 538.686h92.982c54.471 0 94.813 5.931 121.243 17.571 26.431 11.714 39.536 37.046 39.536 76.069 0 38.95-12.081 64.721-36.388 77.241-24.307 12.593-65.307 18.816-123.146 18.816h-94.227v-189.698zM348.207 181.839h134.348c56.082 0 98.254 6.882 126.368 20.573 28.041 13.911 42.098 41.146 42.098 81.781s-14.936 67.504-44.588 80.609c-29.798 12.739-77.315 19.329-142.621 19.329h-115.606v-202.292z" />
<glyph unicode="&#xe605;" glyph-name="calender" d="M292.857 894.507v73.214h-146.429v-73.214h73.214zM805.357 894.507v73.214h-146.429v-73.214h73.214zM878.572 821.293h-878.572v-878.572h951.786v878.572h-73.214zM219.643 15.935h-146.429v146.429h146.429v-146.429zM219.643 235.578h-146.429v146.429h146.429v-146.429zM439.286 15.935h-146.429v146.429h146.429v-146.429zM439.286 235.578h-146.429v146.429h146.429v-146.429zM439.286 455.221h-146.429v146.429h146.429v-146.429zM658.929 15.935h-146.429v146.429h146.429v-146.429zM658.929 235.578h-146.429v146.429h146.429v-146.429zM658.929 455.221h-146.429v146.429h146.429v-146.429zM878.572 15.935h-146.429v146.429h146.429v-146.429zM878.572 235.578h-146.429v146.429h146.429v-146.429zM878.572 455.221h-146.429v146.429h146.429v-146.429z" />
<glyph unicode="&#xe606;" glyph-name="camera" d="M585.715 382.007c0-121.305-98.338-219.643-219.643-219.643s-219.643 98.338-219.643 219.643c0 121.305 98.338 219.643 219.643 219.643s219.643-98.338 219.643-219.643zM439.286 748.078v73.214h-73.214v-73.214h-73.214v73.214h-146.429v-73.214h-146.429v-732.144h1025.001v732.144h-585.715zM366.071 89.15c-161.731 0-292.857 131.127-292.857 292.857s131.127 292.857 292.857 292.857 292.857-131.127 292.857-292.857-131.127-292.857-292.857-292.857zM951.786 528.436h-219.643v146.429h219.643v-146.429z" />
<glyph unicode="&#xe607;" glyph-name="centeralign" d="M73.214 821.293h878.572v-146.429h-878.572v146.429zM73.214 235.578h878.572v-146.429h-878.572v146.429zM292.857 528.436h439.286v-146.429h-439.286v146.429z" />
<glyph unicode="&#xe608;" glyph-name="charts" d="M0 894.507v-951.786h1025.001v951.786h-1025.001zM73.214 821.293h878.572v-805.357h-878.572v805.357zM439.286 674.865v-512.5h146.429v512.5h-146.429zM658.929 601.65v-439.286h146.429v439.286h-146.429zM219.643 528.436v-366.071h146.429v366.071h-146.429z" />
<glyph unicode="&#xe609;" glyph-name="clock2" d="M805.357 967.722h-585.715c-121.316 0-219.643-98.327-219.643-219.643v-585.715c0-121.316 98.327-219.643 219.643-219.643h585.715c121.316 0 219.643 98.327 219.643 219.643v585.715c0 121.316-98.327 219.643-219.643 219.643zM878.572 193.773c0-57.766-46.857-104.623-104.623-104.623h-522.897c-57.766 0-104.623 46.857-104.623 104.623v522.897c0 57.766 46.857 104.623 104.623 104.623h522.97c57.693 0 104.55-46.857 104.55-104.623v-522.897zM439.286 674.865h73.214v-292.857h-73.214v292.857zM439.286 455.221h219.643v-73.214h-219.643v73.214z" />
<glyph unicode="&#xe60a;" glyph-name="close" d="M556.502 418.614l158.948 159.021c22.331 22.257 22.331 58.279 0 80.536-22.184 22.257-58.206 22.257-80.536 0l-159.021-159.094-159.021 159.094c-22.257 22.257-58.206 22.257-80.536 0s-22.257-58.279 0-80.536l159.094-159.021-159.094-159.021c-22.257-22.331-22.257-58.352 0-80.609 11.129-11.129 25.698-16.619 40.268-16.619s29.213 5.491 40.268 16.693l159.021 158.948 158.948-159.021c11.202-11.129 25.771-16.619 40.414-16.619s29.066 5.491 40.194 16.693c22.331 22.257 22.331 58.279 0 80.609l-158.948 158.948z" />
<glyph unicode="&#xe60b;" glyph-name="arrow_down" d="M146.429 601.65l366.071-366.071 366.071 366.071z" />
<glyph unicode="&#xe60c;" glyph-name="comment" d="M146.429 967.722c-81.121 0-146.429-65.307-146.429-146.429v-585.715c0-81.121 65.307-146.429 146.429-146.429h585.715v-146.429l146.429 146.429c81.121 0 146.429 65.307 146.429 146.429v585.715c0 81.121-65.307 146.429-146.429 146.429h-732.144zM146.429 894.507h732.144c40.561 0 73.214-32.654 73.214-73.214v-585.715c0-40.561-32.654-73.214-73.214-73.214h-732.144c-40.561 0-73.214 32.654-73.214 73.214v585.715c0 40.561 32.654 73.214 73.214 73.214zM292.857 601.65c-40.435 0-73.214-32.779-73.214-73.214s32.779-73.214 73.214-73.214c40.435 0 73.214 32.779 73.214 73.214s-32.779 73.214-73.214 73.214zM512.5 601.65c-40.435 0-73.214-32.779-73.214-73.214s32.779-73.214 73.214-73.214c40.435 0 73.214 32.779 73.214 73.214s-32.779 73.214-73.214 73.214zM732.144 601.65c-40.435 0-73.214-32.779-73.214-73.214s32.779-73.214 73.214-73.214c40.435 0 73.214 32.779 73.214 73.214s-32.779 73.214-73.214 73.214z" />
<glyph unicode="&#xe60d;" glyph-name="contact_book" d="M951.786 894.507h73.214v-292.857h-73.214v292.857zM951.786 528.436h73.214v-292.857h-73.214v292.857zM0 821.293v-732.144c0-80.829 65.6-146.429 146.429-146.429v1025.001c-80.829 0-146.429-65.6-146.429-146.429zM732.144 967.722h-512.5v-1025.001h512.5c80.829 0 146.429 65.6 146.429 146.429v732.144c0 80.829-65.6 146.429-146.429 146.429z" />
<glyph unicode="&#xe60e;" glyph-name="credit_card_line" d="M951.786 748.078h-878.572c-40.414 0-73.214-32.8-73.214-73.214v-512.5c0-40.488 32.8-73.214 73.214-73.214h878.572c40.488 0 73.214 32.727 73.214 73.214v512.5c0 40.414-32.727 73.214-73.214 73.214zM951.786 218.812c0-31.189-27.529-56.448-61.573-56.448h-755.499c-33.971 0-61.5 25.259-61.5 56.448v236.409h878.572v-236.409zM73.214 601.65v16.766c0 31.189 27.529 56.448 61.5 56.448h755.499c34.044 0 61.573-25.259 61.573-56.448v-16.766h-878.572zM292.857 308.792h366.071v-73.214h-366.071v73.214zM732.144 308.792h146.429v-73.214h-146.429v73.214z" />
<glyph unicode="&#xe60f;" glyph-name="credit_card" d="M0 162.364c0-40.488 32.8-73.214 73.214-73.214h878.572c40.488 0 73.214 32.727 73.214 73.214v292.857h-1025.001v-292.857zM585.715 308.792h292.857v-73.214h-292.857v73.214zM366.071 308.792h146.429v-73.214h-146.429v73.214zM951.786 748.078h-878.572c-40.414 0-73.214-32.8-73.214-73.214v-73.214h1025.001v73.214c0 40.414-32.727 73.214-73.214 73.214z" />
<glyph unicode="&#xe610;" glyph-name="cupboard" d="M146.429 967.722v-292.857h732.144v292.857h-732.144zM439.286 821.293h146.429v-73.214h-146.429v73.214zM146.429 601.65v-292.857h732.144v292.857h-732.144zM439.286 455.221h146.429v-73.214h-146.429v73.214zM146.429 235.578v-292.857h732.144v292.857h-732.144zM439.286 89.15h146.429v-73.214h-146.429v73.214z" />
<glyph unicode="&#xe611;" glyph-name="desktop" d="M0 894.507v-732.144h439.286v-73.214h-146.429v-73.214h439.286v73.214h-146.429v73.214h439.286v732.144h-1025.001zM73.214 821.293h878.572v-585.715h-878.572v585.715z" />
<glyph unicode="&#xe612;" glyph-name="download" d="M658.929 674.865v292.857h-292.857v-292.857h-219.643l366.071-366.071 366.071 366.071zM0 162.364h1025.001v-219.643h-1025.001v219.643z" />
<glyph unicode="&#xe613;" glyph-name="eraser" d="M878.572 674.865v146.429c0 80.829-65.6 146.429-146.429 146.429h-439.286c-80.829 0-146.429-65.6-146.429-146.429v-146.429h732.144zM146.429 601.65v-512.5c0-80.829 65.6-146.429 146.429-146.429h439.286c80.829 0 146.429 65.6 146.429 146.429v512.5h-732.144zM439.286 89.15h-146.429v366.071h146.429v-366.071zM732.144 89.15h-146.429v366.071h146.429v-366.071z" />
<glyph unicode="&#xe614;" glyph-name="extra" d="M292.857 967.737v-146.429h-292.857v-73.214h878.572v73.214h-292.857v146.429h-292.857zM366.071 894.522h146.429v-73.214h-146.429v73.214zM0 674.879v-732.144h878.572v732.144h-878.572zM658.929 235.593h-146.429v-146.429h-146.429v146.429h-146.429v146.429h146.429v146.429h146.429v-146.429h146.429v-146.429z" />
<glyph unicode="&#xe615;" glyph-name="form" d="M146.429 894.507v-878.572h732.144v512.5h-292.857v366.071h-439.286zM658.929 894.507v-292.857h219.643l-219.643 292.857zM219.643 382.007h73.214v-73.214h-73.214v73.214zM366.071 382.007h439.286v-73.214h-439.286v73.214zM219.643 235.578h73.214v-73.214h-73.214v73.214zM366.071 235.578h439.286v-73.214h-439.286v73.214z" />
<glyph unicode="&#xe616;" glyph-name="grid" d="M0 821.293h951.786v-146.429h-951.786v146.429zM512.5 528.436h439.286v-146.429h-439.286v146.429zM0 235.578h951.786v-146.429h-951.786v146.429zM0 528.436h439.286v-146.429h-439.286v146.429z" />
<glyph unicode="&#xe617;" glyph-name="home" d="M512.5 894.507l-512.5-512.5h146.429v-366.071h292.857v366.071h146.429v-366.071h292.857v366.071h146.429zM805.357 748.078h73.214v146.429h-146.429v-73.214h73.214z" />
<glyph unicode="&#xe618;" glyph-name="image" d="M0 967.722v-1025.001h1025.001v1025.001h-1025.001zM878.572 235.578h-732.144v585.715h732.144v-585.715zM805.357 674.865c0-40.435-32.779-73.214-73.214-73.214s-73.214 32.779-73.214 73.214c0 40.435 32.779 73.214 73.214 73.214s73.214-32.779 73.214-73.214zM658.929 308.792h146.429l-73.214 146.429-123.879-61.939-168.979 281.582-219.643-366.071h219.643z" />
<glyph unicode="&#xe619;" glyph-name="inbox" d="M439.286 967.722v-292.857h-146.429l219.643-219.643 219.643 219.643h-146.429v292.857h-146.429zM146.429 894.507l-146.429-512.5v-439.286h1025.001v439.286l-146.429 512.5h-146.429v-73.214h86.942l121.261-439.286h-281.418v-146.429h-292.857v146.429h-265.402l118.973 439.286h73.214v73.214h-146.429z" />
<glyph unicode="&#xe61a;" glyph-name="indent" d="M439.286 821.293h585.715v-146.429h-585.715v146.429zM439.286 235.578h585.715v-146.429h-585.715v146.429zM585.715 528.436h439.286v-146.429h-439.286v146.429zM146.429 967.722v-439.286h-146.429v-146.429h146.429v-439.286h146.429v1025.001z" />
<glyph unicode="&#xe61b;" glyph-name="italic" d="M581.834 142.596c-92.104-101.182-189.332-142.694-228.282-142.694-37.632 0-66.186 25.918-38.95 140.059l67.431 290.588c6.443 32.434 7.761 45.393 0 45.393-11.714 0-48.029-22.038-79.144-45.393l-18.011 36.314c93.348 86.906 189.332 137.496 236.117 137.496 37.632 0 44.075-50.591 25.918-128.418l-73.946-300.911c-9.006-37.632-5.125-50.518 3.881-50.518 11.714 0 45.466 18.157 83.098 51.836l21.891-33.752zM665.811 784.246c0-60.621-49.2-109.821-109.821-109.821s-109.821 49.2-109.821 109.821 49.2 109.821 109.821 109.821 109.821-49.2 109.821-109.821z" />
<glyph unicode="&#xe61c;" glyph-name="signals" d="M639.161 66.306c0-68.255-55.331-123.586-123.586-123.586s-123.586 55.331-123.586 123.586c0 68.255 55.331 123.586 123.586 123.586s123.586-55.331 123.586-123.586zM515.575 517.014c-131.273 0-258.886-90.493-290.515-206.025-10.177-37.046 13.325-74.898 52.494-84.49 39.096-9.738 79.071 12.593 89.248 49.713 14.863 54.325 84.416 102.061 148.771 102.061 62.232 0 133.25-49.054 149.065-103.086 9.006-30.896 38.511-50.884 70.506-50.884 6.516 0 13.252 0.806 19.694 2.563 38.95 10.25 61.793 48.541 50.957 85.441-33.679 114.727-161.071 204.707-290.221 204.707zM1025.513 495.415c-54.911 197.532-274.115 346.45-509.938 346.45-243.365 0-457.882-146.209-510.157-347.695-10.177-39.169 13.325-79.071 52.494-89.248 39.316-10.25 79.144 13.325 89.248 52.494 35.216 135.74 193.579 238.019 368.415 238.019 169.492 0 331.515-105.136 368.854-239.265 9.006-32.361 38.438-53.593 70.506-53.593 6.443 0 13.179 0.879 19.621 2.709 38.95 10.909 61.646 51.177 50.957 90.127z" />
<glyph unicode="&#xe61d;" glyph-name="laptop" d="M0 308.792v-146.429h1025.001v146.429h-366.071v-73.214h-292.857v73.214h-366.071zM146.429 821.293v-512.5h732.144v512.5h-732.144zM219.643 748.078h585.715v-366.071h-585.715v366.071z" />
<glyph unicode="&#xe61e;" glyph-name="layouts" d="M0 821.293v-732.144h73.214v658.929h805.357v73.214h-878.572zM146.429 674.865v-658.929h878.572v658.929h-878.572zM219.643 528.436h292.857v-366.071h-292.857v366.071zM658.929 528.436h292.857v-73.214h-292.857v73.214zM658.929 382.007h292.857v-73.214h-292.857v73.214zM658.929 235.578h292.857v-73.214h-292.857v73.214z" />
<glyph unicode="&#xe61f;" glyph-name="layouts2" d="M73.214 894.507v-292.857h878.572v292.857h-878.572zM73.214 528.436v-512.5h512.5v512.5h-512.5zM658.929 528.436v-512.5h292.857v512.5h-292.857z" />
<glyph unicode="&#xe620;" glyph-name="layouts3" d="M0 894.507v-805.357h1025.001v805.357h-1025.001zM73.214 821.293h878.572v-658.929h-878.572v658.929zM146.429 674.865h292.857v-366.071h-292.857v366.071zM585.715 674.865h292.857v-73.214h-292.857v73.214zM585.715 528.436h292.857v-73.214h-292.857v73.214zM585.715 382.007h292.857v-73.214h-292.857v73.214z" />
<glyph unicode="&#xe621;" glyph-name="layouts4" d="M73.214 821.293v-292.857h366.071v292.857h-366.071zM585.715 821.293v-292.857h366.071v292.857h-366.071zM73.214 455.221v-73.214h366.071v73.214h-366.071zM585.715 455.221v-73.214h366.071v73.214h-366.071zM73.214 308.792v-73.214h366.071v73.214h-366.071zM585.715 308.792v-73.214h366.071v73.214h-366.071zM73.214 162.364v-73.214h366.071v73.214h-366.071zM585.715 162.364v-73.214h366.071v73.214h-366.071z" />
<glyph unicode="&#xe622;" glyph-name="leftalign" d="M73.214 821.293h878.572v-146.429h-878.572v146.429zM73.214 235.578h878.572v-146.429h-878.572v146.429zM73.214 528.436h512.5v-146.429h-512.5v146.429z" />
<glyph unicode="&#xe623;" glyph-name="like" d="M695.536 967.722c-93.056 0-174.763-49.932-219.643-124.391-44.881 74.459-126.588 124.391-219.643 124.391-141.304 0-256.25-114.946-256.25-256.25 0-353.625 139.693-539.37 467.034-621.224l8.859-2.196 8.859 2.196c296.811 74.166 467.034 300.619 467.034 621.224 0 141.304-114.946 256.25-256.25 256.25zM475.894 163.535c-289.636 74.898-402.679 229.234-402.679 547.936 0 100.89 82.146 183.036 183.036 183.036s219.643-82.146 219.643-183.036c0 100.89 118.681 183.036 219.643 183.036s183.036-82.146 183.036-183.036c0-285.244-142.915-479.481-402.679-547.936z" />
<glyph unicode="&#xe624;" glyph-name="like1" d="M732.144 821.293c-121.243 0-219.643-98.327-219.643-219.643 0 121.316-98.327 219.643-219.643 219.643s-219.643-98.327-219.643-219.643c0-360.361 146.429-512.5 439.286-585.715 292.857 73.214 439.286 292.857 439.286 585.715 0 121.316-98.4 219.643-219.643 219.643z" />
<glyph unicode="&#xe625;" glyph-name="lock" d="M439.286 967.722c-81.121 0-146.429-65.307-146.429-146.429v-292.857h-146.429v-585.715h658.929v585.715h-146.429v292.857c0 81.121-65.307 146.429-146.429 146.429h-73.214zM439.286 894.507h73.214c40.562 0 73.214-32.653 73.214-73.214v-292.857h-219.643v292.857c0 40.562 32.653 73.214 73.214 73.214zM439.286 382.007h73.214v-146.429h-73.214v146.429z" />
<glyph unicode="&#xe626;" glyph-name="mail" d="M0 894.522v-148.698l512.5-320.313 512.5 320.313v148.698h-1025.001zM0 658.845v-496.467h1025.001v496.467l-512.5-320.313-18.304 11.421-494.197 308.892z" />
<glyph unicode="&#xe627;" glyph-name="map2" d="M512.5 967.722c-202.175 0-366.071-163.896-366.071-366.071 0-12.636 1.038-24.301 2.288-36.607 0.58-8.022 0.711-6.731 2.288-18.304 1.296-8.483 2.708-16.886 4.575-25.168 20.205-113.517 92.015-335.68 356.92-578.851 264.905 243.172 336.715 465.334 356.92 578.851 8.696 48.858 9.152 80.078 9.152 80.078 0 202.175-163.896 366.071-366.071 366.071zM512.5 821.293c121.305 0 219.643-98.338 219.643-219.643s-98.338-219.643-219.643-219.643c-121.305 0-219.643 98.338-219.643 219.643s98.338 219.643 219.643 219.643z" />
<glyph unicode="&#xe628;" glyph-name="arrow_left_line_alt" d="M256.25 418.614c0 10.836 4.686 21.159 13.179 28.114l439.286 366.071c15.521 12.959 38.657 10.836 51.543-4.686 12.959-15.594 10.836-38.657-4.686-51.543l-405.534-337.957 405.534-337.957c15.594-12.959 17.498-35.948 4.686-51.543-12.959-15.521-36.021-17.571-51.616-4.539l-439.286 366.071c-8.419 6.809-13.106 17.132-13.106 27.968z" />
<glyph unicode="&#xe629;" glyph-name="arrow_left" d="M292.125 407.192c0-16.107 5.857-32.141 17.571-44.807l237.946-256.25c24.746-26.65 66.479-28.261 93.129-3.514 26.796 24.746 28.188 66.479 3.514 93.129l-196.288 211.443 196.361 211.443c24.6 26.577 23.136 68.382-3.514 93.056-26.65 24.819-68.382 23.209-93.129-3.441l-237.946-256.25c-11.788-12.666-17.644-28.773-17.644-44.807z" />
<glyph unicode="&#xe62a;" glyph-name="arrow_lright_line_alt" d="M755.572 390.573l-439.213-366.071c-15.594-13.032-38.657-10.909-51.616 4.539-12.813 15.594-10.836 38.584 4.686 51.543l405.534 338.031-405.461 337.957c-15.594 12.886-17.718 35.948-4.759 51.543 12.886 15.521 36.021 17.644 51.543 4.686l439.286-366.071c8.493-6.956 13.179-17.279 13.179-28.114s-4.686-21.159-13.179-28.041z" />
<glyph unicode="&#xe62b;" glyph-name="arrow_maximize_line" d="M540.469 661.759l366.071-439.213c13.032-15.594 10.909-38.657-4.539-51.616-15.594-12.813-38.584-10.836-51.543 4.686l-337.957 405.534-337.957-405.461c-12.886-15.594-35.948-17.644-51.543-4.686-15.521 12.886-17.644 36.021-4.613 51.543l366.071 439.286c6.809 8.419 17.132 13.106 28.041 13.106s21.159-4.686 27.968-13.179z" />
<glyph unicode="&#xe62c;" glyph-name="arrow_maximize" d="M477.065 665.273c-16.107 0-32.214-5.857-44.807-17.571l-256.25-237.946c-26.723-24.819-28.261-66.479-3.514-93.202 24.746-26.796 66.479-28.114 93.129-3.441l211.443 196.288 211.443-196.361c26.577-24.6 68.382-23.136 93.056 3.514 24.819 26.65 23.209 68.382-3.441 93.129l-256.25 237.946c-12.593 11.788-28.773 17.644-44.807 17.644z" />
<glyph unicode="&#xe62d;" glyph-name="menu_lv" d="M0 967.722v-146.429h146.429v146.429h-146.429zM292.857 967.722v-146.429h732.144v146.429h-732.144zM0 674.865v-146.429h146.429v146.429h-146.429zM292.857 674.865v-146.429h732.144v146.429h-732.144zM292.857 382.007v-146.429h732.144v146.429h-732.144zM292.857 89.15v-146.429h732.144v146.429h-732.144z" />
<glyph unicode="&#xe62e;" glyph-name="menu" d="M73.214 894.507h878.572v-146.429h-878.572v146.429zM73.214 528.436h878.572v-146.429h-878.572v146.429zM73.214 162.364h878.572v-146.429h-878.572v146.429z" />
<glyph unicode="&#xe62f;" glyph-name="arrow_minimize_line" d="M512.5 235.578c-10.836 0-21.159 4.759-28.114 13.179l-366.071 439.286c-12.959 15.521-10.836 38.657 4.686 51.543 15.594 12.959 38.657 10.836 51.543-4.686l337.957-405.534 337.957 405.534c12.959 15.521 36.021 17.498 51.543 4.686 15.521-12.959 17.571-36.021 4.613-51.616l-366.071-439.286c-6.882-8.346-17.206-13.106-28.041-13.106z" />
<glyph unicode="&#xe630;" glyph-name="arrow_minimize" d="M477.065 295.467c-16.107 0-32.214 5.857-44.807 17.571l-256.25 237.946c-26.723 24.819-28.261 66.552-3.514 93.202 24.746 26.796 66.479 28.188 93.129 3.441l211.443-196.288 211.443 196.288c26.577 24.673 68.382 23.209 93.056-3.441 24.819-26.65 23.209-68.382-3.441-93.129l-256.25-237.946c-12.593-11.788-28.773-17.644-44.807-17.644z" />
<glyph unicode="&#xe631;" glyph-name="arrow_right" d="M661.931 407.192c0-16.107-5.857-32.141-17.571-44.807l-237.946-256.25c-24.746-26.65-66.479-28.261-93.129-3.514-26.796 24.746-28.188 66.479-3.514 93.129l196.361 211.443-196.434 211.369c-24.527 26.65-23.136 68.382 3.514 93.129 26.723 24.819 68.382 23.209 93.129-3.441l237.946-256.25c11.788-12.666 17.644-28.773 17.644-44.807z" />
<glyph unicode="&#xe632;" glyph-name="arrow_up" d="M878.572 235.578l-366.071 366.071-366.071-366.071z" />
<glyph unicode="&#xe633;" glyph-name="fullscreen_restore" d="M439.286 382.007v-366.071l-366.071 366.071zM585.715 528.436v366.145l366.071-366.145z" />
<glyph unicode="&#xe634;" glyph-name="fullscreen" d="M219.643 162.364v366.071l366.071-366.071zM805.357 748.078v-365.998l-366.071 365.998z" />
<glyph unicode="&#xe635;" glyph-name="minus" d="M219.643 528.436h585.715v-146.429h-585.715v146.429z" />
<glyph unicode="&#xe636;" glyph-name="movie" d="M878.572 821.293h-732.144c-80.829 0-146.429-65.6-146.429-146.429v-439.286c0-80.829 65.6-146.429 146.429-146.429h732.144c80.829 0 146.429 65.6 146.429 146.429v439.286c0 80.829-65.6 146.429-146.429 146.429zM366.071 235.578v439.286l366.071-219.643-366.071-219.643z" />
<glyph unicode="&#xe637;" glyph-name="ordered_list" d="M439.286 894.507h585.715v-146.429h-585.715v146.429zM439.286 674.865h512.5v-146.429h-512.5v146.429zM439.286 382.007h585.715v-146.429h-585.715v146.429zM439.286 162.364h439.286v-146.429h-439.286v146.429zM19.621 106.794c11.348 21.452 33.532 41 66.552 58.571l49.2 25.991c22.038 11.788 37.486 21.818 46.344 30.164 13.984 13.032 21.013 27.894 21.013 44.661 0 19.694-6.369 35.143-19.182 46.784-12.813 11.494-29.944 17.279-51.25 17.279-31.629 0-53.519-10.982-65.6-33.019-6.516-11.714-10.104-28.114-10.763-48.981h-46.931c0.439 29.359 6.369 53.227 17.644 71.677 19.988 32.654 55.277 48.907 105.868 48.907 42.025 0 72.775-10.469 92.104-31.263 19.402-20.866 29.066-44.075 29.066-69.554 0-26.943-10.323-50.006-30.969-69.041-12.007-11.129-33.459-24.6-64.356-40.488l-35.069-17.791c-16.766-8.493-29.944-16.619-39.463-24.234-17.132-13.691-27.894-28.773-32.288-45.319h200.461v-39.975h-252.004c1.684 28.993 8.2 54.179 19.621 75.631zM0 789.225v32.654c36.973 3.002 62.744 8.054 77.388 15.082 14.569 7.029 25.479 23.648 32.654 49.932h40.414v-338.104h-54.618v240.436h-95.838z" />
<glyph unicode="&#xe638;" glyph-name="outdent" d="M0 821.293h585.715v-146.429h-585.715v146.429zM0 235.578h585.715v-146.429h-585.715v146.429zM0 528.436h439.286v-146.429h-439.286v146.429zM878.572 528.436v439.286h-146.429v-1025.001h146.429v439.286h146.429v146.429z" />
<glyph unicode="&#xe639;" glyph-name="phone" d="M219.643 967.722v-1025.001h585.715v1025.001h-585.715zM292.857 894.507h439.286v-732.144h-439.286v732.144zM439.286 89.15h146.429v-73.214h-146.429v73.214z" />
<glyph unicode="&#xe63a;" glyph-name="minus_circle" d="M512.5 967.722c-283.046 0-512.5-229.454-512.5-512.5s229.454-512.5 512.5-512.5 512.5 229.454 512.5 512.5-229.454 512.5-512.5 512.5zM805.357 382.007h-585.715v146.429h585.715v-146.429z" />
<glyph unicode="&#xe63b;" glyph-name="plus" d="M439.286 748.078v-219.643h-219.643v-146.429h219.643v-219.643h146.429v219.643h219.643v146.429h-219.643v219.643h-146.429z" />
<glyph unicode="&#xe63c;" glyph-name="power" d="M505.032 455.221h14.863c36.388 0 65.819 29.432 65.819 65.746v307.794c0 36.314-29.432 65.746-65.746 65.746h-14.936c-36.314 0-65.746-29.432-65.746-65.746v-307.72c0-36.388 29.432-65.819 65.746-65.819zM732.144 761.99v-188.161c45.027-51.469 73.214-118.094 73.214-191.821 0-161.731-131.127-292.857-292.857-292.857s-292.857 131.127-292.857 292.857c0 73.727 28.188 140.352 73.214 191.821v188.161c-131.2-75.923-219.643-217.519-219.643-379.982 0-242.559 196.727-439.286 439.286-439.286s439.286 196.727 439.286 439.286c0 162.463-88.443 304.059-219.643 379.982z" />
<glyph unicode="&#xe63d;" glyph-name="printer" d="M219.643 967.722v-366.071h585.715v366.071h-585.715zM292.857 894.507h439.286v-73.214h-439.286v73.214zM292.857 748.078h439.286v-73.214h-439.286v73.214zM0 528.436v-512.5h146.429v146.429h732.144v-146.429h146.429v512.5h-1025.001zM732.144 382.007h73.214v-73.214h-73.214v73.214zM878.572 382.007h73.214v-73.214h-73.214v73.214zM219.643 89.15v-146.429h585.715v146.429h-585.715z" />
<glyph unicode="&#xe63e;" glyph-name="refresh2" d="M439.286 821.293c-202.175 0-366.071-163.896-366.071-366.071s163.896-366.071 366.071-366.071c176.904 0 325.073 126.045 359.208 292.857h-105.246c-32.22-110.283-133.362-192.188-253.962-192.188-146.424 0-265.402 118.978-265.402 265.402s118.978 265.402 265.402 265.402c91.568 0 172.161-47.968 219.643-118.973l-146.429-146.429h366.071v366.071l-146.429-146.429c-66.949 89.161-173.029 146.429-292.857 146.429z" />
<glyph unicode="&#xe63f;" glyph-name="resize" d="M0 967.722h146.429v-1025.001h-146.429v1025.001zM0 89.15h1025.001v-146.429h-1025.001v146.429zM0 967.722h1025.001v-146.429h-1025.001v146.429zM878.572 967.722h146.429v-1025.001h-146.429v1025.001zM585.715 382.007h292.857v-292.857h-292.857v292.857zM292.857 674.865h73.214v-585.715h-73.214v585.715zM292.857 674.865h585.715v-73.214h-585.715v73.214z" />
<glyph unicode="&#xe640;" glyph-name="right_align" d="M73.214 821.293h878.572v-146.429h-878.572v146.429zM73.214 235.578h878.572v-146.429h-878.572v146.429zM439.286 528.436h512.5v-146.429h-512.5v146.429z" />
<glyph unicode="&#xe641;" glyph-name="save" d="M732.144 894.507v-366.071h-585.715v366.071h-146.429v-951.786h1025.001v658.929c0 161.731-131.127 292.857-292.857 292.857zM219.643 821.293h146.429v-219.643h-146.429v219.643z" />
<glyph unicode="&#xe642;" glyph-name="search2" d="M439.286 967.722c-242.611 0-439.286-196.675-439.286-439.286s196.675-439.286 439.286-439.286c242.611 0 439.286 196.675 439.286 439.286s-196.675 439.286-439.286 439.286zM439.286 894.507c202.175 0 366.071-163.896 366.071-366.071s-163.896-366.071-366.071-366.071c-202.175 0-366.071 163.896-366.071 366.071s163.896 366.071 366.071 366.071zM748.333 113.098l103.933 103.147 154.72-155.9-103.933-103.147-154.72 155.9z" />
<glyph unicode="&#xe643;" glyph-name="sent" d="M475.894 967.722l-256.25-219.643h146.429v-292.857h219.643v292.857h146.429l-256.25 219.643zM0 528.436v-512.5h951.786v512.5h-146.429v-219.643h-219.643v-146.429h-219.643v146.429h-219.643v219.643h-146.429z" />
<glyph unicode="&#xe644;" glyph-name="settings_small_1" d="M951.786 382.007v146.429h-104.916c-9.006 40.194-24.893 77.681-46.564 111.14l74.606 74.532-103.598 103.525-75.191-75.265c-33.386 21.159-70.432 37.046-110.407 45.613v106.527h-146.429v-106.527c-39.975-8.566-77.021-24.454-110.407-45.613l-75.265 75.265-103.525-103.525 74.532-74.606c-21.671-33.386-37.486-70.871-46.491-111.066h-104.916v-146.429h103.452c8.493-40.927 24.673-78.706 46.125-112.896l-72.702-72.702 103.525-103.598 71.238 71.311c34.338-22.696 72.921-39.316 114.361-48.394v-99.791h146.429v99.718c41.513 9.079 80.096 25.771 114.361 48.394l71.238-71.311 103.598 103.598-72.702 72.702c21.525 34.264 37.706 72.043 46.198 112.969h103.452zM732.144 455.221c0-121.243-98.4-219.643-219.643-219.643-121.316 0-219.643 98.4-219.643 219.643 0 121.316 98.327 219.643 219.643 219.643 121.243 0 219.643-98.327 219.643-219.643z" />
<glyph unicode="&#xe645;" glyph-name="settings_small" d="M946.955 392.842c2.782 20.5 4.832 41.146 4.832 62.379s-2.050 41.879-4.832 62.379l-99.279 22.404c-8.273 32.873-21.232 63.843-38.218 92.25l54.398 86.027c-25.186 33.459-54.764 63.038-88.223 88.15l-86.1-54.325c-28.481 16.913-59.45 29.871-92.25 38.218l-22.404 99.279c-20.5 2.929-41.146 4.906-62.379 4.906s-41.879-1.977-62.379-4.906l-22.404-99.279c-32.873-8.346-63.843-21.232-92.25-38.218l-86.027 54.325c-33.386-25.113-63.038-54.764-88.15-88.15l54.325-86.027c-16.986-28.407-29.871-59.45-38.218-92.25l-99.279-22.404c-2.929-20.5-4.906-41.146-4.906-62.379s1.977-41.879 4.906-62.379l99.279-22.477c8.346-32.8 21.306-63.769 38.218-92.25l-54.325-86.027c25.113-33.459 54.764-63.038 88.15-88.223l86.027 54.398c28.407-16.986 59.377-29.944 92.25-38.218l22.404-99.279c20.5-2.782 41.146-4.832 62.379-4.832s41.879 2.050 62.379 4.832l22.477 99.352c32.8 8.2 63.769 21.159 92.323 38.144l85.954-54.398c33.459 25.186 63.038 54.764 88.223 88.223l-54.398 85.954c16.986 28.554 29.944 59.45 38.144 92.323l99.352 22.477zM512.5 277.383c-98.181 0-177.765 79.584-177.765 177.838 0 98.181 79.584 177.765 177.765 177.765 98.254 0 177.838-79.584 177.838-177.765 0-98.254-79.584-177.838-177.838-177.838z" />
<glyph unicode="&#xe646;" glyph-name="settings" d="M868.761 707.957l57.913 57.913-103.598 103.525-58.279-58.279c-52.494 37.119-113.336 62.744-179.082 73.946v82.659h-146.429v-82.659c-65.746-11.202-126.588-36.9-179.082-74.019l-58.352 58.352-103.525-103.525 57.913-57.913c-37.779-52.494-64.282-113.482-75.923-179.521h-80.316v-146.429h79.438c10.909-66.771 36.754-128.638 74.459-181.865l-55.496-55.496 103.525-103.598 55.131 55.131c53.227-38.291 115.166-64.941 182.304-76.363v-77.094h146.429v77.094c67.064 11.421 129.077 38.071 182.231 76.363l55.131-55.131 103.598 103.598-55.569 55.496c37.559 53.227 63.477 115.093 74.386 181.865h79.438v146.429h-80.316c-11.641 66.039-38.071 127.027-75.923 179.521zM512.5 159.581c-161.071 0-292.857 131.786-292.857 292.857s131.786 292.857 292.857 292.857 292.857-131.786 292.857-292.857-131.786-292.857-292.857-292.857z" />
<glyph unicode="&#xe647;" glyph-name="shopping_cart" d="M0 967.722v-73.214h146.429v-732.144h805.357v73.214h-732.144v146.429h805.357v439.286h-73.214v-366.071h-732.144v512.5h-219.643zM292.857 821.293v-292.857h146.429v292.857h-146.429zM512.5 821.293v-292.857h146.429v292.857h-146.429zM732.144 821.293v-292.857h146.429v292.857h-146.429zM292.857 89.15c-40.435 0-73.214-32.779-73.214-73.214s32.779-73.214 73.214-73.214c40.435 0 73.214 32.779 73.214 73.214s-32.779 73.214-73.214 73.214zM805.357 89.15c-40.435 0-73.214-32.779-73.214-73.214s32.779-73.214 73.214-73.214c40.435 0 73.214 32.779 73.214 73.214s-32.779 73.214-73.214 73.214z" />
<glyph unicode="&#xe648;" glyph-name="social" d="M878.572 967.722h-732.144c-81.121 0-146.429-65.307-146.429-146.429v-585.715c0-81.048 65.307-146.429 146.429-146.429h585.715v-146.429l146.429 146.429c81.048 0 146.429 65.381 146.429 146.429v585.715c0 81.121-65.381 146.429-146.429 146.429zM366.071 455.221h-146.429v146.429h146.429v-146.429zM585.715 455.221h-146.429v146.429h146.429v-146.429zM805.357 455.221h-146.429v146.429h146.429v-146.429z" />
<glyph unicode="&#xe649;" glyph-name="spam" d="M0 235.578v-292.857h1025.001v292.857h-439.286v-73.214h-146.429v73.214h-439.286zM0 382.007h1025.001v-73.214h-1025.001v73.214zM0 528.436h1025.001v-73.214h-1025.001v73.214zM439.286 967.722v-146.429h-146.429l219.643-219.643 219.643 219.643h-146.429v146.429h-146.429z" />
<glyph unicode="&#xe64a;" glyph-name="suitcase" d="M292.857 894.507v-219.643h73.214v146.429h292.857v-146.429h73.214v219.643h-439.286zM0 601.65v-219.643h292.857v-73.214h-292.857v-366.071h1025.001v366.071h-292.857v73.214h292.857v219.643h-1025.001zM366.071 382.007h292.857v-73.214h-73.214v-73.214h-146.429v73.214h-73.214v73.214z" />
<glyph unicode="&#xe64b;" glyph-name="tables" d="M0 894.507v-805.357h951.786v805.357h-951.786zM73.214 674.865h219.643v-219.643h-219.643v219.643zM366.071 674.865h219.643v-219.643h-219.643v219.643zM658.929 674.865h219.643v-219.643h-219.643v219.643zM73.214 382.007h219.643v-219.643h-219.643v219.643zM366.071 382.007h219.643v-219.643h-219.643v219.643zM658.929 382.007h219.643v-219.643h-219.643v219.643z" />
<glyph unicode="&#xe64c;" glyph-name="tablet" d="M0 821.293v-805.357h1025.001v805.357h-1025.001zM73.214 748.078h732.144v-658.929h-732.144v658.929zM878.572 455.221h73.214v-73.214h-73.214v73.214z" />
<glyph unicode="&#xe64d;" glyph-name="telephone" d="M0 894.507v-878.572h292.857v878.572h-292.857zM366.071 894.507v-878.572h658.929v878.572h-658.929zM439.286 748.078h512.5v-219.643h-512.5v219.643zM439.286 455.221h73.214v-73.214h-73.214v73.214zM585.715 455.221h73.214v-73.214h-73.214v73.214zM732.144 455.221h73.214v-73.214h-73.214v73.214zM878.572 455.221h73.214v-73.214h-73.214v73.214zM439.286 308.792h73.214v-73.214h-73.214v73.214zM585.715 308.792h73.214v-73.214h-73.214v73.214zM732.144 308.792h73.214v-73.214h-73.214v73.214zM878.572 308.792h73.214v-73.214h-73.214v73.214zM585.715 162.364h73.214v-73.214h-73.214v73.214zM732.144 162.364h73.214v-73.214h-73.214v73.214z" />
<glyph unicode="&#xe64e;" glyph-name="text_style" d="M292.857 821.293v-146.429h219.643v-439.286h146.429v439.286h219.643v146.429zM146.429 89.15v732.144h-146.429v-878.572h1025.001v146.429z" />
<glyph unicode="&#xe64f;" glyph-name="trash_line" d="M366.071 821.293v-73.214h-292.857v-73.214h805.357v73.214h-292.857v73.214h-219.643zM146.429 601.65v-585.715h-73.214v-73.214h805.357v73.214h-73.214v585.715h-658.929zM219.643 528.436h512.5v-512.5h-512.5v512.5zM292.857 455.221v-366.071h73.214v366.071h-73.214zM439.286 455.221v-366.071h73.214v366.071h-73.214zM585.715 455.221v-366.071h73.214v366.071h-73.214z" />
<glyph unicode="&#xe650;" glyph-name="trash" d="M292.857 894.507v-146.429h-219.643v-73.214h805.357v73.214h-219.643v146.429h-366.071zM366.071 821.293h219.643v-73.214h-219.643v73.214zM146.429 601.65v-658.929h658.929v658.929h-658.929zM292.857 455.221h73.214v-366.071h-73.214v366.071zM439.286 455.221h73.214v-366.071h-73.214v366.071zM585.715 455.221h73.214v-366.071h-73.214v366.071z" />
<glyph unicode="&#xe651;" glyph-name="ui" d="M0 894.507v-878.572h1025.001v878.572h-1025.001zM366.071 821.293h146.429v-146.429h-146.429v146.429zM585.715 821.293h146.429v-146.429h-146.429v146.429zM805.357 821.293h146.429v-146.429h-146.429v146.429zM73.214 601.65h878.572v-512.5h-878.572v512.5z" />
<glyph unicode="&#xe652;" glyph-name="underline" d="M0 162.364h951.786v-146.429h-951.786v146.429zM658.929 894.507v-366.071c0-101.109-81.927-146.429-183.036-146.429s-183.036 45.319-183.036 146.429v366.071h-146.429v-366.071c0-181.865 147.6-292.857 329.465-292.857s329.465 110.993 329.465 292.857v366.071h-146.429z" />
<glyph unicode="&#xe653;" glyph-name="unordered_list" d="M219.643 821.293h732.144v-146.429h-732.144v146.429zM219.643 528.436h585.715v-146.429h-585.715v146.429zM219.643 235.578h732.144v-146.429h-732.144v146.429zM0 821.293h146.429v-146.429h-146.429v146.429zM0 528.436h146.429v-146.429h-146.429v146.429zM0 235.578h146.429v-146.429h-146.429v146.429z" />
<glyph unicode="&#xe654;" glyph-name="video" d="M0 967.722v-1025.001h951.786v1025.001h-951.786zM73.214 894.507h73.214v-73.214h-73.214v73.214zM219.643 894.507h73.214v-73.214h-73.214v73.214zM366.071 894.507h73.214v-73.214h-73.214v73.214zM512.5 894.507h73.214v-73.214h-73.214v73.214zM658.929 894.507h73.214v-73.214h-73.214v73.214zM805.357 894.507h73.214v-73.214h-73.214v73.214zM73.214 748.078h805.357v-585.715h-805.357v585.715zM366.071 601.65v-292.857l292.857 146.429-292.857 146.429zM73.214 89.15h73.214v-73.214h-73.214v73.214zM219.643 89.15h73.214v-73.214h-73.214v73.214zM366.071 89.15h73.214v-73.214h-73.214v73.214zM512.5 89.15h73.214v-73.214h-73.214v73.214zM658.929 89.15h73.214v-73.214h-73.214v73.214zM805.357 89.15h73.214v-73.214h-73.214v73.214z" />
<glyph unicode="&#xe655;" glyph-name="more" d="M366.071 418.614c0-60.653-49.169-109.821-109.821-109.821s-109.821 49.169-109.821 109.821c0 60.653 49.169 109.821 109.821 109.821s109.821-49.169 109.821-109.821zM805.357 418.614c0-60.653-49.169-109.821-109.821-109.821s-109.821 49.169-109.821 109.821c0 60.653 49.169 109.821 109.821 109.821s109.821-49.169 109.821-109.821z" />
<glyph unicode="&#xe656;" glyph-name="plus_circle" d="M512.5 967.722c-283.046 0-512.5-229.454-512.5-512.5s229.454-512.5 512.5-512.5 512.5 229.454 512.5 512.5-229.454 512.5-512.5 512.5zM805.357 382.007h-219.643v-219.643h-146.429v219.643h-219.643v146.429h219.643v219.643h146.429v-219.643h219.643v-146.429z" />
<glyph unicode="&#xe657;" glyph-name="crop" d="M146.429 894.507h146.429v-73.214h-146.429v73.214zM292.857 235.578v292.857h-146.429v-439.286h805.357v146.429zM658.929 308.792h146.429v439.286h-805.357v-146.429h658.929zM658.929 15.935h146.429v-73.214h-146.429v73.214z" />
<glyph unicode="&#xe658;" glyph-name="folder_alt" d="M73.214 748.078v73.214c0 40.414 32.8 73.214 73.214 73.214h292.857c40.414 0 73.214-32.8 73.214-73.214v-73.214zM1025.001 89.15c0-40.488-32.727-73.214-73.214-73.214h-878.572c-40.414 0-73.214 32.727-73.214 73.214v512.5c0 40.414 32.8 73.214 73.214 73.214h878.572c40.488 0 73.214-32.8 73.214-73.214v-512.5z" />
<glyph unicode="&#xe659;" glyph-name="folder" d="M878.572 748.078h-732.144c-80.829 0-146.429-65.6-146.429-146.429v-366.071c0-80.829 65.6-146.429 146.429-146.429h732.144c80.829 0 146.429 65.6 146.429 146.429v366.071c0 80.829-65.6 146.429-146.429 146.429zM585.715 894.507h-366.071c-40.414 0-73.214-32.8-73.214-73.214h512.5c0 40.414-32.727 73.214-73.214 73.214z" />
<glyph unicode="&#xe65a;" glyph-name="theme" d="M512.5 967.722c-283.046 0-512.5-229.454-512.5-512.5s229.454-512.5 512.5-512.5 512.5 229.454 512.5 512.5-229.454 512.5-512.5 512.5zM512.5 89.15c-202.218 0-366.071 163.854-366.071 366.071s163.854 366.071 366.071 366.071 366.071-163.854 366.071-366.071-163.854-366.071-366.071-366.071zM292.857 455.221c0-121.243 98.327-219.643 219.643-219.643v439.286c-121.316 0-219.643-98.327-219.643-219.643z" />
<glyph unicode="&#xe65b;" glyph-name="battery_empty" d="M988.394 601.65h-36.607v-219.643h36.607c20.207 0 36.607 16.4 36.607 36.607v146.429c0 20.207-16.4 36.607-36.607 36.607zM732.144 748.078h-585.715c-80.829 0-146.429-65.6-146.429-146.429v-219.643c0-80.829 65.6-146.429 146.429-146.429h585.715c80.829 0 146.429 65.6 146.429 146.429v219.643c0 80.829-65.6 146.429-146.429 146.429zM292.857 382.007h-73.214c-40.414 0-73.214 32.8-73.214 73.214v73.214c0 40.414 32.8 73.214 73.214 73.214h73.214v-219.643z" />
<glyph unicode="&#xe65c;" glyph-name="battery" d="M988.394 601.65h-36.607v-219.643h36.607c20.207 0 36.607 16.4 36.607 36.607v146.429c0 20.207-16.4 36.607-36.607 36.607zM732.144 748.078h-585.715c-80.829 0-146.429-65.6-146.429-146.429v-219.643c0-80.829 65.6-146.429 146.429-146.429h585.715c80.829 0 146.429 65.6 146.429 146.429v219.643c0 80.829-65.6 146.429-146.429 146.429zM658.929 382.007h-439.286c-40.414 0-73.214 32.8-73.214 73.214v73.214c0 40.414 32.8 73.214 73.214 73.214h439.286v-219.643z" />
<glyph unicode="&#xe65d;" glyph-name="note" d="M366.071 967.722h292.857v-146.429h-292.857v146.429zM878.572 894.507h-146.429v-146.429h-439.286v146.429h-146.429c-40.414 0-73.214-32.8-73.214-73.214v-805.357c0-40.488 32.8-73.214 73.214-73.214h732.144c40.488 0 73.214 32.727 73.214 73.214v805.357c0 40.414-32.727 73.214-73.214 73.214zM366.071 162.364h-73.214v73.214h73.214v-73.214zM366.071 308.792h-73.214v73.214h73.214v-73.214zM366.071 455.221h-73.214v73.214h73.214v-73.214zM732.144 162.364h-292.857v73.214h292.857v-73.214zM732.144 308.792h-292.857v73.214h292.857v-73.214zM732.144 455.221h-292.857v73.214h292.857v-73.214zM366.071 894.507h292.857v-73.214h-292.857v73.214z" />
<glyph unicode="&#xe65e;" glyph-name="server_hard" d="M878.572 235.578h-732.144c-40.414 0-73.214 32.727-73.214 73.214v-146.429c0-80.829 65.6-146.429 146.429-146.429h585.715c80.829 0 146.429 65.6 146.429 146.429v146.429c0-40.488-32.727-73.214-73.214-73.214zM805.357 89.15h-219.643v73.214h219.643v-73.214zM805.357 894.507h-585.715c-80.829 0-146.429-65.6-146.429-146.429v-366.071c0-40.488 32.8-73.214 73.214-73.214h732.144c40.488 0 73.214 32.727 73.214 73.214v366.071c0 80.829-65.6 146.429-146.429 146.429z" />
<glyph unicode="&#xe65f;" glyph-name="servers" d="M146.429 15.935v-73.214h732.144v292.857h-732.144v-219.643zM585.715 162.364h146.429v-73.214h-146.429v73.214zM439.286 162.364h73.214v-73.214h-73.214v73.214zM805.357 967.722h-585.715c-40.488 0-73.214-32.8-73.214-73.214v-219.643h732.144v219.643c0 40.414-32.727 73.214-73.214 73.214zM732.144 748.078h-73.214v73.214h73.214v-73.214zM146.429 308.792h732.144v292.857h-732.144v-292.857zM658.929 455.221h73.214v-73.214h-73.214v73.214zM512.5 455.221h73.214v-73.214h-73.214v73.214z" />
<glyph unicode="&#xe660;" glyph-name="menu_justify" d="M73.214 821.293h878.572v-146.429h-878.572v146.429zM73.214 235.578h878.572v-146.429h-878.572v146.429zM73.214 528.436h878.572v-146.429h-878.572v146.429z" />
<glyph unicode="&#xe912;" d="M512.176 960c282.628 0 512.176-229.196 512.176-512.176 0-282.628-229.196-512.176-512.176-512.176s-512.176 229.548-512.176 512.176c0 282.98 229.196 512.176 512.176 512.176z" />
<glyph unicode="&#xe913;" d="M574.396 607.418h66.087v97.725h-77.688v-0.352c-93.858-3.164-113.192-56.244-114.95-111.786h-0.352v-48.511h-63.978v-95.616h63.978v-255.912h96.319v255.912h79.094l15.116 95.616h-94.209v29.528c0.352 18.279 12.655 33.395 30.583 33.395z" />
<glyph unicode="&#xe915;" d="M512.176 960c281.574 0 512.176-230.251 512.176-512.176s-230.251-512.176-512.176-512.176-512.176 230.602-512.176 512.176 230.251 512.176 512.176 512.176z" />
<glyph unicode="&#xe916;" d="M771.252 534.3v-57.651h57.651v-57.651h-57.651v-57.299h-57.651v57.299h-57.651v57.651h57.651v57.651z" />
<glyph unicode="&#xe917;" d="M252.748 304.049c-76.633 76.633-76.633 211.268 3.164 287.901 57.651 57.651 140.963 70.306 214.432 41.48l28.825-16.17 31.989-22.498-51.323-51.323-19.334 12.655c-44.644 28.825-108.974 22.498-150.454-19.334-48.159-48.159-51.323-134.284 0-185.607 48.159-51.323 134.284-51.323 179.279 0 12.655 12.655 25.662 31.989 28.825 51.323v6.327h-115.301v63.978h182.443l3.164-16.17v-44.644c-3.164-41.48-19.334-83.312-48.159-112.137-76.281-72.766-210.565-72.766-287.55 4.218z" />
<glyph unicode="&#xe918;" d="M512.176 960c282.628 0 512.176-229.196 512.176-512.176s-229.196-512.176-512.176-512.176-512.176 229.548-512.176 512.176 229.196 512.176 512.176 512.176z" />
<glyph unicode="&#xe919;" d="M288.604 256.593h95.967v319.539h-95.967v-319.539zM661.927 587.029c-46.402 0-88.233-16.873-117.762-54.487v44.644h-96.319v-320.593h96.319v173.303c0 36.559 33.747 72.415 75.578 72.415s52.378-35.856 52.378-71.36v-174.358h95.967v181.388c0.352 125.847-59.408 149.048-106.161 149.048zM336.060 608.121c26.365 0 48.159 21.443 48.159 48.159s-21.443 48.159-48.159 48.159-48.159-21.443-48.159-48.159 21.795-48.159 48.159-48.159z" />
<glyph unicode="&#xe91a;" glyph-name="quotation-mark" d="M440.869 881.975v-170.716c0-23.173-18.773-41.946-41.946-41.946-82.718 0-127.597-84.771-133.757-252.26h133.757c23.173 0 41.946-18.773 41.946-41.946v-360.791c0-23.173-18.773-41.946-41.946-41.946h-356.977c-23.173 0-41.946 18.773-41.946 41.946v360.791c0 80.371 8.213 153.996 24.053 218.821 16.426 66.585 41.359 124.957 74.505 173.062 34.026 49.572 76.558 88.584 126.717 115.57 50.159 27.279 108.824 41.066 173.942 41.066 22.879 0.293 41.652-18.48 41.652-41.652zM982.054 669.021c23.173 0 41.946 18.773 41.946 41.946v171.009c0 23.173-18.773 41.946-41.946 41.946-65.118 0-123.49-13.786-173.649-41.066-49.865-26.986-92.691-65.998-126.717-115.57-33.146-48.399-58.078-106.477-74.505-173.355-15.84-65.118-24.053-138.743-24.053-218.821v-360.791c0-23.173 18.773-41.946 41.946-41.946h356.977c23.173 0 41.946 18.773 41.946 41.946v360.791c0 23.173-18.773 41.946-41.946 41.946h-131.997c6.16 167.196 50.452 251.967 131.997 251.967z" />
<glyph unicode="&#xe91b;" glyph-name="tempal-icon" d="M838.217 501.76c-68.023-245.029-239.909-423.131-239.909-423.131-18.286-18.286-30.72-14.263-44.434 6.766-10.971 17.006-63.451 134.034-61.257 202.423 52.48-59.611 84.846-133.669 87.954-128 50.286 94.537 160 231.131 257.646 341.943zM864.731 640c0.058-1.833 0.092-3.989 0.092-6.152 0-27.414-5.339-53.581-15.033-77.519l-1.15 21.134c0 12.8-2.194 31.817-4.389 54.857-2.857 28.864-10.449 55.319-22.011 79.513-3.266 6.602-7.1 13.31-11.329 19.736l-2.683 4.614-3.291 4.389-8.411 11.154c-11.089 14.846-23.097 27.898-36.304 39.63-28.311 25.765-61.855 45.808-98.86 58.348-30.209 10.348-62.743 15.988-96.594 15.988-11.763 0-23.366-0.681-34.774-2.006-22.771-2.347-44.851-7.118-65.957-14.038l-13.66-5.030c-5.303-1.829-10.24-4.937-15.36-7.314s-10.24-4.754-15.36-7.497l-14.446-9.143c-10.425-6.395-19.445-13.029-27.869-20.333l-5.411-4.901-5.486-5.303-18.469-17.554-8.229-9.326c-3.657-4.206-7.497-8.046-11.154-12.617-6.623-8.306-13.309-17.668-19.501-27.375-12.701-19.122-22.963-39.549-30.566-61.227-7.157-21.396-12.24-44.256-14.89-67.852-0.944-11.81-1.403-23.784-1.403-35.866 0-37.964 4.526-74.87 13.068-110.209 11.639-49.864 25.768-94.87 42.849-138.394 13.734-35.969 30.922-76.197 47.197-113.5l45.166-102.217c13.531-30.537 24.686-57.6 33.829-80.091s15.543-40.229 19.931-52.48l6.4-18.286 3.474-5.486c-175.177 220.709-330.789 451.109-318.72 662.126s182.857 372.297 379.977 360.229c170.057-10.423 326.4-144.64 329.326-320z" />
<glyph unicode="&#xe91c;" glyph-name="tempal-logo" d="M323.534 483.809c0 2.262 0 4.46 0 6.282s0 4.021 0 5.654c-0.089 0.687-0.139 1.482-0.139 2.288 0 5.639 2.476 10.699 6.401 14.153 3.438 2.632 7.772 4.206 12.473 4.206 0.46 0 0.916-0.015 1.368-0.045 4.968-0.297 9.481-2.294 12.963-5.417 2.735-2.303 4.474-5.754 4.474-9.612 0-1.041-0.127-2.053-0.366-3.021l-2.432-12.478h12.376c0.532 0.045 1.151 0.070 1.776 0.070 4.315 0 8.345-1.218 11.765-3.33 2.246-1.411 3.835-3.895 4.048-6.763-0.227-2.912-1.933-5.349-4.351-6.604-3.206-1.91-7.018-3.027-11.091-3.027-0.534 0-1.064 0.019-1.589 0.057l-14.379-0.004c-1.319-11.748-2.45-24.752-3.455-38.95s-1.633-27.642-1.947-40.206c-0.124-3.239-0.195-7.043-0.195-10.863 0-7.23 0.253-14.401 0.751-21.505 0.574-7.336 2.082-11.608 4.344-11.608s4.649 2.953 8.104 8.795 6.91 12.564 10.554 20.354 6.848 15.203 9.8 22.553 4.9 12.564 5.905 14.952c0.379 2.638 2.055 4.813 4.35 5.886 1.434 0.714 3.069 1.121 4.799 1.121 0.652 0 1.29-0.058 1.91-0.168 2.14-0.521 4.002-1.75 5.322-3.425 0.874-1.18 1.39-2.639 1.39-4.218 0-1.051-0.228-2.048-0.638-2.946q-2.934-9.756-7.835-25.399c-3.853-11.849-8.107-21.884-13.1-31.474-4.297-8.648-10.191-17.051-17.163-24.424-5.925-6.663-14.565-10.887-24.193-10.945-0.090-0.001-0.184-0.002-0.278-0.002-6.062 0-11.456 2.862-14.903 7.309-4.149 5.501-7.208 12-8.766 19.062-2.056 8.506-3.386 18.012-3.759 27.763-0.511 10.763-0.574 21.506-0.008 32.625s1.005 22.302 1.947 33.61 1.759 21.611 2.45 31.411h-11.936c-0.385-0.026-0.834-0.040-1.287-0.040-3.959 0-7.659 1.113-10.802 3.044-2.213 1.262-3.85 3.519-4.3 6.179 0.043 2.714 1.477 5.029 3.603 6.316 3.179 1.91 6.976 3.028 11.034 3.028 0.55 0 1.096-0.021 1.636-0.061zM471.48 408.799c-2.618-3.607-5.885-6.574-9.652-8.778-3.739-2.202-7.894-4.096-12.254-5.54-4.432-1.472-9.163-2.592-14.030-3.284q-7.537-1.056-13.002-1.496c-0.897-5.879-1.507-12.826-1.692-19.879-0.045-1.287-0.069-2.535-0.069-3.788 0-4.971 0.366-9.856 1.072-14.63 0.614-4.396 1.98-8.864 3.948-12.991 1.389-3.006 4.174-5.483 7.583-6.548 1.397-0.382 2.9-0.588 4.45-0.588 3.47 0 6.7 1.031 9.399 2.803 5.388 3.195 10.064 7.031 14.088 11.469 4.769 5.161 9.134 10.764 13.006 16.717 4.504 6.766 8.273 13.048 11.54 19.33s6.282 11.559 8.293 16.648c1.455 2.952 2.943 6.588 4.203 10.329 0.855 3.249 2.546 5.351 4.793 6.546 1.42 0.733 3.041 1.148 4.76 1.148 0.555 0 1.1-0.043 1.631-0.127 1.995-0.369 3.723-1.54 4.824-3.17 0.775-1.272 1.224-2.777 1.224-4.388 0-0.98-0.166-1.921-0.472-2.797-0.61-1.888-1.804-5.72-3.437-11.437-2.299-7.738-4.712-14.157-7.508-20.366-3.526-7.937-7.306-15.258-11.466-22.328-4.046-6.953-9.29-13.858-15.288-20.028-6.059-6.248-13.079-11.565-20.82-15.711-7.951-4.184-16.842-6.51-26.276-6.51-0.308 0-0.615 0.002-0.922 0.007-0.475-0.030-1.084-0.047-1.698-0.047-10.315 0-19.529 4.718-25.601 12.113-6.699 8.659-11.387 19.109-13.248 30.509-1.399 7.725-2.168 16.161-2.168 24.778 0 5.486 0.312 10.899 0.919 16.222 1.43 14.124 4.534 27.669 9.111 40.515 3.65 10.626 9.304 20.881 16.437 29.915 4.806 7.029 12.86 11.849 22.063 12.343 0.11 0.003 0.154 0.003 0.199 0.003 7.99 0 15.26-3.082 20.687-8.122 5.817-5.143 10.54-11.414 13.844-18.482 3.202-6.791 5.226-14.292 5.788-22.197 0.174-1.276 0.267-2.516 0.267-3.778 0-5.387-1.695-10.378-4.581-14.469zM441.137 452.398c-2.324-1.005-4.712-5.151-7.35-12.564-2.579-7.134-5.113-16.079-7.085-25.232 3.573-1.456 7.298-0.998 10.87-0.145 2.975 0.513 5.753 2.405 7.496 5.041 1.477 2.515 2.373 5.468 2.476 8.621 0.191 1.763 0.3 3.774 0.3 5.809s-0.109 4.046-0.32 6.026c-0.373 3.379-1.237 6.695-2.517 9.796-1.356 2.334-2.613 3.339-3.869 2.648zM499.938 439.205c1.012 6.803 4.393 12.676 9.262 16.869 4.218 3.679 9.209 6.519 14.696 8.244 2.514 0.873 5.076 1.332 7.746 1.332 2.062 0 4.061-0.274 5.961-0.787 2.453-0.467 4.399-2.736 4.399-5.458 0-0.759-0.151-1.483-0.426-2.144q-1.431-6.811-3.442-18.81c-1.319-7.853-2.45-15.831-3.455-23.998s-1.759-15.957-2.45-23.307-1.005-12.564-1.005-15.957c1.688 5.852 3.357 10.569 5.254 15.167q2.599 6.381 5.928 13.48c2.346 5.275 4.55 9.543 6.958 13.677 1.641 2.865 3.719 5.904 6.022 8.755 2.549 3.352 6.142 5.992 10.298 7.425 4.071 1.663 8.612 2.646 13.37 2.747 0.191 0.006 0.368 0.009 0.545 0.009 3.644 0 6.982-1.309 9.57-3.482 1.417-1.443 2.306-3.451 2.306-5.666 0-1.391-0.35-2.7-0.968-3.844-0.873-3.211-1.562-7.062-1.908-11.012-0.646-5.845-1.337-11.875-1.965-18.409 2.656 6.021 5.28 11.010 8.193 15.805 2.927 4.989 5.942 10.266 9.46 15.354l9.046 13.947c2.281 3.579 4.453 6.611 6.769 9.523 2.474 3.301 5.948 6.069 9.968 7.816 4.029 2.002 8.576 3.175 13.388 3.266 0.206 0.007 0.413 0.010 0.621 0.010 3.824 0 7.367-1.203 10.271-3.251 2.433-2.028 4.007-5.123 4.007-8.586 0-0.682-0.061-1.35-0.178-1.999-0.304-2.256-0.869-6.214-1.686-11.68s-1.885-11.936-3.204-18.847-2.513-14.7-3.644-22.553-2.136-14.952-2.953-21.36-1.319-11.685-1.445-15.894 0.377-6.282 1.696-6.282 4.586 2.262 7.853 6.848c3.307 4.698 6.485 10.070 9.236 15.689 3.391 6.989 6.595 13.711 9.108 20.559s4.837 12.564 6.282 16.648c0.687 2.681 2.362 4.888 4.604 6.257 1.257 0.777 2.726 1.222 4.3 1.222 2.826 0 5.317-1.435 6.783-3.617 0.876-1.339 1.386-2.943 1.386-4.666 0-0.878-0.132-1.725-0.379-2.523-1.89-7.46-4.147-13.902-6.894-20.079-3.889-9.15-8.096-17.406-12.797-25.333-4.467-7.739-9.806-15.281-15.773-22.27-4.238-5.611-10.522-9.809-17.769-11.497-1.96-0.575-3.968-0.883-6.048-0.883-3.949 0-7.639 1.107-10.777 3.028-4.064 3.050-7.168 7.353-8.721 12.339-1.83 5.766-2.963 12.219-3.185 18.902-0.111 2.2-0.172 4.638-0.172 7.091 0 4.889 0.244 9.721 0.72 14.485q0.894 9.702 2.401 17.743c0.747 4.593 1.774 8.633 3.111 12.529-3.279-2.986-5.769-6.101-7.444-9.674q-4.965-8.509-10.116-18.561t-9.612-19.6c-2.953-6.282-4.9-10.68-5.905-13.004v0.503c-1.096-2.598-2.672-4.799-4.634-6.583-2.434-2.431-5.285-4.417-8.442-5.846-2.823-1.369-5.919-2.17-9.192-2.271q-4.181-0.001-5.688 4.899c-1.112 4.015-1.814 8.649-1.946 13.426q-0.504 8.687-0.504 16.728t0 14.7c0.156 1.217 0.245 2.624 0.245 4.052s-0.089 2.836-0.261 4.217c-1.617-0.856-3.438-3.746-5.386-8.96s-4.021-11.12-6.282-17.653-4.021-13.255-5.654-20.103-2.764-12.564-3.455-16.145c-0.479-4.117-2.887-7.585-6.283-9.516-3.549-2.048-7.732-3.237-12.192-3.237-0.042 0-0.084 0-0.126 0-0.208-0.008-0.46-0.013-0.713-0.013-4.115 0-7.949 1.199-11.174 3.266-2.823 1.958-4.703 5.271-4.703 9.024 0 0.611 0.050 1.211 0.146 1.796 0.175 3.267 0.28 7.165 0.28 11.087s-0.105 7.82-0.311 11.691q-0.731 13.469-1.422 28.609t-0.754 29.903c-0.026 1.106-0.041 2.408-0.041 3.715 0 7.393 0.471 14.677 1.385 21.821zM680.3 465.15c-0.009 0.223-0.014 0.484-0.014 0.746 0 5.684 2.419 10.802 6.284 14.382 3.771 3.63 8.36 6.414 13.462 8.048 2.434 0.842 4.958 1.289 7.587 1.289 2.012 0 3.964-0.262 5.821-0.754 2.699-0.594 4.805-3.104 4.805-6.107 0-0.702-0.115-1.376-0.327-2.006q-0.992-5.358-1.683-14.153t-1.759-20.103c3.604 3.456 7.744 6.392 12.275 8.663 4.485 2.349 9.459 3.651 14.737 3.651 0.708 0 1.41-0.023 2.107-0.070 9.418-0.214 17.879-4.538 23.615-11.258 5.598-6.894 9.694-15.163 11.711-24.215 1.487-6.211 2.298-12.891 2.298-19.76 0-3.892-0.26-7.724-0.764-11.478-1.090-10.542-3.846-20.603-7.993-29.907-3.724-8.171-9.287-15.605-16.135-21.608-5.502-4.861-12.679-7.789-20.54-7.789-0.978 0-1.945 0.045-2.9 0.134-6.515 0.122-12.621 2.291-17.623 5.897l-2.86 1.884c-1.105 0.751-2.071 1.557-2.951 2.448q-1.007-18.845-1.258-35.555t0-26.26c-0.058-3.731-2.349-6.912-5.594-8.27-3.539-1.886-7.645-3.051-12.005-3.225-0.549-0.038-1.126-0.059-1.708-0.059-3.786 0-7.367 0.879-10.549 2.444-2.585 1.074-4.465 3.717-4.465 6.798 0 0.62 0.076 1.221 0.219 1.797q0.994 9.749 1.937 25.895t1.696 35.306q0.691 18.847 1.256 39.201c0.314 13.444 0.565 25.82 0.754 37.253s0 21.297 0.503 29.652 0.063 14.198 0.063 17.088zM719.501 424.002c-2.846-6.387-5.040-13.808-6.221-21.562-0.759-4.736-1.158-9.631-1.158-14.62 0-2.788 0.125-5.546 0.368-8.27 0.469-6.165 2.225-12.169 4.998-17.564 1.636-3.998 5.296-7.161 9.771-8.199q4.995-1.024 9.142 4.881c2.927 4.288 5.271 9.264 6.763 14.596 1.804 6.016 3.257 12.822 4.162 19.8 0.696 4.881 1.053 9.755 1.053 14.712 0 2.394-0.083 4.768-0.247 7.121-0.311 5.68-1.55 11.292-3.565 16.518-0.946 3.361-4.073 6.151-7.923 6.717-0.329 0.029-0.649 0.042-0.973 0.042-3.515 0-6.678-1.512-8.872-3.921-2.903-2.927-5.339-6.306-7.194-10.025zM850.8 456.858c4.691-1.020 8.76-3.228 12.011-6.294 3.285-3.118 6.137-6.67 8.469-10.568 2.548 2.555 5.998 4.386 9.879 4.671 0.675 0.060 1.406 0.093 2.144 0.093 3.298 0 6.442-0.657 9.309-1.846 3.429-1.417 6.405-3.767 8.595-6.733 1.729-2.377 2.743-5.285 2.743-8.43 0-0.949-0.092-1.876-0.268-2.773q-1.933-8.704-3.692-21.96c-1.131-8.858-1.885-17.339-2.199-25.506-0.104-1.866-0.163-4.049-0.163-6.246 0-5.217 0.333-10.355 0.979-15.396q1.194-8.198 5.089-8.198c1.947 0 4.335 2.576 7.099 7.601 2.671 4.803 5.476 10.694 7.943 16.758 3.177 7.994 5.752 14.841 8.014 21.752 1.542 4.187 3.057 9.423 4.239 14.785 0.804 3.728 2.593 6.092 5.010 7.491 1.368 0.765 2.944 1.201 4.621 1.201 0.74 0 1.46-0.085 2.151-0.245 2.18-0.525 4.057-1.83 5.32-3.603 0.871-1.246 1.38-2.758 1.38-4.388 0-1.080-0.223-2.108-0.626-3.040-0.672-1.898-1.677-5.604-3.185-10.944s-3.33-11.371-5.654-17.904-4.963-13.318-8.104-20.354c-3.097-7.196-6.715-13.396-10.977-19.086-3.531-4.821-8.086-9.015-13.318-12.208-3.183-1.903-6.775-2.959-10.614-2.959-2.136 0-4.197 0.327-6.133 0.934-9.064 2.356-16.465 8.646-20.318 16.92-2.802-7.958-6.468-15.033-11.048-21.407-4.312-5.92-10.366-10.68-17.41-13.488-3.696-1.44-7.664-2.22-11.815-2.22-2.34 0-4.623 0.248-6.822 0.719-9.504 2.758-17.427 9.086-22.244 17.433-5.591 9.343-9.543 20.081-11.281 31.546-1.084 6.678-1.669 13.813-1.669 21.085 0 6.027 0.402 11.96 1.18 17.775 1.452 12.416 5 24.35 10.269 35.3 4.429 9.375 11.348 17.703 19.883 23.953 6.298 4.353 13.875 6.879 22.042 6.879 3.255 0 6.417-0.401 9.438-1.157zM863.364 407.354c-0.71 6.041-1.99 11.526-3.81 16.757q-2.535 7.303-7.938 8.246c-0.728 0.132-1.566 0.207-2.422 0.207-4.718 0-8.901-2.291-11.497-5.822-4.399-5.361-7.836-11.641-9.974-18.495-2.623-7.801-4.608-16.518-5.696-25.511-0.831-6.287-1.269-12.817-1.269-19.449 0-2.708 0.073-5.399 0.217-8.071 0.309-7.346 1.732-14.624 4.103-21.459q3.043-8.324 9.388-9.266c4.272-0.691 8.23 1.633 11.999 6.91 3.997 5.762 7.324 12.402 9.646 19.497 2.795 8.272 4.99 17.455 6.339 26.911 1.044 6.329 1.585 12.658 1.585 19.113 0 3.672-0.175 7.304-0.517 10.887zM939.504 527.91c-0.089 0.687-0.139 1.482-0.139 2.288 0 5.639 2.476 10.699 6.401 14.153 3.47 2.638 7.836 4.215 12.57 4.215 0.514 0 1.023-0.019 1.528-0.055 5.047-0.273 9.648-2.272 13.211-5.419 2.732-2.3 4.47-5.752 4.47-9.609 0-1.041-0.127-2.053-0.366-3.021q-0.987-5.819-3.186-22.969t-4.209-39.452q-1.947-22.302-3.455-46.363t-1.696-44.352c-0.045-1.74-0.071-3.789-0.071-5.844 0-9.695 0.574-19.256 1.689-28.651q1.586-11.867 6.486-11.804c1.947 0 4.649 3.581 8.104 10.743s6.848 15.329 10.303 24.501 6.596 18.030 9.549 26.699 4.9 14.261 5.842 16.899c0.391 2.633 2.063 4.804 4.351 5.885 1.399 0.674 2.987 1.056 4.664 1.056 0.767 0 1.516-0.080 2.238-0.232 2.137-0.514 4-1.743 5.316-3.422 0.874-1.181 1.39-2.639 1.39-4.218 0-1.051-0.228-2.048-0.638-2.946q-2.934-9.756-7.835-27.409c-3.979-13.825-8.256-25.379-13.259-36.537-3.966-9.737-9.73-19.639-16.67-28.583-5.385-7.295-14.255-12.183-24.271-12.277-9.096 0.021-16.832 5.757-19.819 13.8-4.704 10.543-7.919 22.605-9.062 35.263-1.243 11.276-1.933 23.838-1.933 36.561 0 4.176 0.074 8.335 0.222 12.475q0.737 25.848 2.684 51.103t3.958 46.111q1.633 20.606 1.633 31.411zM234.578 466.281c-23.37-84.182-82.423-145.37-82.423-145.37-6.282-6.282-10.554-4.9-15.266 2.324-3.769 5.842-21.799 46.049-21.045 69.544 18.030-20.48 29.149-45.923 30.217-43.975 17.276 32.416 54.969 79.344 88.516 117.477zM243.687 513.775c0.017-0.577 0.026-1.256 0.026-1.938 0-9.414-1.832-18.399-5.16-26.62l-0.395 7.261c0 4.398-0.754 10.931-1.508 18.847-0.982 9.916-3.59 19.005-7.562 27.317-1.122 2.268-2.439 4.573-3.892 6.78l-0.922 1.585-1.131 1.508-2.89 3.832c-3.81 5.101-7.935 9.585-12.473 13.615-9.727 8.852-21.251 15.738-33.964 20.046-10.379 3.555-21.556 5.493-33.186 5.493-4.041 0-8.028-0.234-11.947-0.689-7.871-0.968-15.435-2.754-22.654-5.277l-4.699-1.714c-1.822-0.628-3.518-1.696-5.277-2.513s-3.518-1.633-5.277-2.576l-4.963-3.141c-3.582-2.197-6.68-4.476-9.575-6.986l-2.047-1.558-1.885-1.822-6.345-6.031-2.827-3.204c-1.256-1.445-2.576-2.764-3.832-4.335-2.276-2.854-4.572-6.070-6.7-9.405-4.453-6.661-8.043-13.783-10.69-21.349-2.458-7.351-4.205-15.205-5.115-23.311-0.324-4.057-0.482-8.171-0.482-12.322 0-13.043 1.555-25.722 4.49-37.863 3.999-17.131 8.853-32.593 14.721-47.546 4.718-12.357 10.624-26.178 16.215-38.994l15.517-35.118c4.649-10.491 8.481-19.789 11.622-27.516s5.34-13.821 6.848-18.030l2.199-6.282 1.194-1.885c-59.807 76.203-113.268 155.422-109.122 227.856s62.822 127.906 130.544 124.011c58.425-3.769 112.137-49.944 113.143-110.127z" />
<glyph unicode="&#xe91d;" d="M512.176 960c282.628 0 512.176-229.196 512.176-512.176 0-282.628-229.196-512.176-512.176-512.176s-512.176 229.548-512.176 512.176c0 282.98 229.196 512.176 512.176 512.176z" />
<glyph unicode="&#xe91e;" d="M832.066 615.151c-22.498-9.491-46.402-16.17-71.712-18.982 25.662 15.116 45.699 38.668 54.838 67.142-24.255-14.061-50.972-23.904-79.445-29.528-22.849 23.552-55.19 38.317-91.046 38.317-68.899 0-124.792-54.135-124.792-120.926 0-9.491 1.055-18.631 3.164-27.771-103.701 4.921-195.801 53.432-257.318 126.55-10.897-17.928-16.873-38.668-16.873-60.814 0-41.832 22.146-79.094 55.541-100.888-20.389 0.703-39.723 5.976-56.596 15.116v-1.406c0-58.705 42.886-107.567 100.185-118.816-10.546-2.812-21.443-4.218-32.692-4.218-8.085 0-15.819 0.703-23.552 2.109 15.819-48.159 61.869-83.312 116.707-84.015-42.886-32.341-96.67-51.675-155.024-51.675-10.194 0-20.037 0.703-29.88 1.758 55.19-34.45 120.926-54.487 191.231-54.487 229.548 0 355.043 184.552 355.043 344.497v15.116c24.255 17.225 45.699 38.668 62.22 62.923z" />
<glyph unicode="&#xe91f;" glyph-name="verified" d="M216.306 462.382c-21.285-76.512-74.787-132.315-74.787-132.315-5.753-5.753-9.78-4.602-13.807 2.301-3.452 5.178-19.56 41.996-18.984 63.281 16.683-18.409 26.463-41.996 27.613-40.27 15.533 29.339 49.474 71.91 79.964 107.002zM224.935 504.953c0-8.629-1.151-17.834-4.602-25.888l-0.575 6.328c0 4.027-0.575 9.78-1.151 17.258-0.575 8.629-2.876 16.683-6.903 24.162-1.151 2.301-2.301 4.602-3.452 6.328l-1.151 2.301-1.151 1.151-2.876 3.452c-3.452 4.602-7.479 8.629-11.506 12.656-9.204 8.054-19.56 14.382-31.64 18.409-12.656 4.027-26.463 5.753-40.27 4.027-6.903-0.575-13.807-2.301-20.135-4.027l-5.178-1.726c-1.726-0.575-3.452-1.726-4.602-2.301-1.726-0.575-3.452-1.726-4.602-2.301l-4.602-2.876c-2.876-1.726-5.753-4.027-8.629-6.328l-1.726-1.726-1.151-1.726-4.602-4.602-1.151-0.575-0.575-1.151-1.726-1.726c-1.151-1.151-2.301-2.301-3.452-4.027-2.301-2.876-4.602-5.753-6.328-9.204-4.027-5.753-6.903-12.656-9.204-19.56s-3.452-13.807-4.602-21.285c-1.151-14.957 0-29.915 3.452-44.297s7.479-28.189 12.656-41.996c5.178-13.231 10.355-25.888 15.533-37.393l14.382-32.216c4.027-9.78 7.479-17.834 10.355-25.312 2.876-6.903 4.602-12.656 6.328-16.683l1.726-5.753 1.151-1.726c-54.652 69.034-102.975 140.944-99.524 207.101s56.953 117.357 118.508 113.33c52.926-2.876 101.825-44.872 102.975-100.099zM286.49 455.479c0.575 5.178 2.301 9.204 6.903 12.081 4.027 2.876 8.629 4.602 13.231 5.178s8.629 0.575 12.656-0.575c3.452-1.151 5.178-2.876 4.602-5.753-2.301-8.629-3.452-17.834-3.452-27.613s1.151-19.56 2.301-28.189c1.151-8.629 3.452-16.108 5.753-21.861s5.178-8.629 7.479-8.629c2.876 0 5.178 3.452 8.054 10.355s5.178 14.957 6.903 23.587c1.726 8.629 3.452 17.834 4.602 26.463s1.726 14.382 1.726 17.834c0 2.876 1.151 5.178 3.452 6.903s4.602 2.301 6.903 2.301c2.301 0 4.602-0.575 6.903-2.301 1.726-1.726 2.876-4.027 2.301-6.903-0.575-1.726-0.575-5.753-1.151-11.506s-1.726-12.656-2.876-20.135c-1.151-7.479-3.452-15.533-5.753-24.162-2.301-8.054-5.753-16.108-9.204-23.011s-8.054-12.656-13.231-17.258c-5.178-4.602-10.93-6.903-17.834-7.479-8.629-0.575-15.533 2.301-21.861 8.054-5.753 5.753-10.355 13.807-13.807 23.587s-5.178 20.71-5.753 33.366c-1.151 11.506-0.575 23.587 1.151 35.667zM470.58 430.166c-2.301-3.452-5.753-6.328-9.204-8.054-3.452-2.301-7.479-4.027-12.081-5.178-4.027-1.151-8.629-2.301-13.231-2.876s-8.629-1.151-11.506-1.151c-1.151-6.328-1.726-12.656-1.726-18.984s0-11.506 1.151-16.683c0.575-5.178 1.726-9.204 3.452-12.656s4.027-5.753 6.903-6.328c4.027-1.151 8.054-0.575 12.656 2.301s9.204 6.328 13.231 10.93c4.027 4.602 8.629 9.78 12.656 16.108s7.479 12.081 10.355 17.834c2.876 5.753 5.753 10.93 8.054 15.533s3.452 8.054 4.027 10.355c1.151 2.876 2.301 4.602 4.602 5.753 1.726 1.151 4.027 1.151 5.753 1.151 1.726-0.575 3.452-1.151 4.602-2.876s1.726-4.027 1.151-6.903c-0.575-1.726-1.726-5.178-3.452-10.93-1.726-5.178-4.027-11.506-6.903-18.409s-6.328-13.807-10.355-20.71c-4.027-7.479-9.204-13.807-14.957-19.56s-12.656-10.93-20.135-14.957c-7.479-4.027-16.108-5.753-25.312-5.753-10.93 0-19.56 4.027-25.888 11.506s-10.355 17.258-12.656 28.764c-2.301 11.506-2.301 24.162-1.151 37.393s4.027 25.888 8.054 37.393c4.027 11.506 9.204 21.285 15.533 28.764s13.231 11.506 20.71 11.506c7.479 0 13.807-2.301 19.56-7.479s9.78-10.93 13.231-17.834c2.876-6.903 4.602-13.807 5.178-20.71 1.726-8.054 0.575-13.231-2.301-17.258zM441.816 471.011c-2.301-1.151-4.602-4.602-6.903-11.506s-4.602-15.533-6.903-25.312c3.452 0 6.903 0.575 10.355 1.151s5.753 2.301 7.479 4.602c1.151 1.726 1.726 4.602 2.301 8.054s0 6.903 0 10.93c-0.575 3.452-1.151 6.903-2.301 9.204-1.726 2.876-2.876 3.452-4.027 2.876zM509.699 424.413c-0.575-2.301-1.726-4.027-4.027-5.178-1.726-1.151-4.027-1.151-6.328-1.151-2.301 0.575-4.027 1.726-5.178 3.452s-1.151 4.027 0 6.903l2.876 8.054c-2.876 2.876-4.027 5.753-4.602 9.78-0.575 3.452 0.575 6.903 1.726 10.355 1.726 3.452 4.027 5.753 6.903 8.054s6.328 3.452 9.78 3.452c6.328 0 9.78-2.301 10.355-6.903s-0.575-9.78-2.876-16.108c1.726-1.151 4.602-1.151 9.204-0.575 4.027 0.575 8.054 1.151 11.506 1.151s6.903-0.575 9.204-2.301c2.301-1.726 2.876-5.178 1.726-10.355-1.151-5.753-2.301-12.081-4.027-19.56-1.151-7.479-2.301-14.957-2.876-21.861s-0.575-12.656 0-17.834c0.575-5.178 2.301-7.479 5.178-7.479 1.726 0 4.027 2.876 6.903 8.054s5.753 11.506 9.204 18.409c2.876 6.903 5.753 14.382 8.054 21.285 2.301 7.479 4.027 12.656 4.602 16.108 0.575 2.876 1.726 5.178 4.027 6.328 1.726 1.151 4.027 1.726 6.328 1.726s4.027-1.151 5.178-2.876c1.151-1.726 1.726-4.027 1.726-6.903-0.575-1.726-1.151-4.602-2.301-9.78s-2.876-10.93-5.178-17.258c-2.301-6.328-4.602-12.656-8.054-19.56-2.876-6.903-6.903-13.231-10.93-18.984s-9.204-10.355-14.382-13.807c-5.178-3.452-10.93-5.178-17.258-4.602-7.479 0.575-12.656 3.452-16.108 9.78s-5.753 13.807-6.328 22.436c-1.151 8.629-0.575 17.834 0.575 27.613s3.452 18.409 5.753 25.888c-1.726-0.575-2.876-0.575-4.602-0.575s-2.876 0-4.602 0c0-1.726-0.575-3.452-1.151-5.178zM631.083 508.404c0.575-3.452 0-6.328-1.151-9.204s-3.452-5.753-6.328-8.054c-2.876-2.301-5.753-4.027-9.78-5.753-3.452-1.726-7.479-2.876-11.506-3.452-7.479-1.151-14.957 0-22.436 2.301s-11.506 6.903-12.656 13.231c-1.151 6.903 0.575 12.656 6.328 17.258 5.178 4.602 12.656 8.054 21.285 9.204 8.629 1.726 16.683 0.575 24.162-2.301 6.903-2.301 10.93-6.903 12.081-13.231zM578.157 445.124c0 7.479 1.726 12.656 5.753 14.957 4.027 2.876 8.054 4.027 12.656 3.452s8.629-2.876 12.081-5.753c3.452-3.452 4.602-7.479 3.452-12.656-1.151-5.753-2.301-12.656-3.452-20.71s-1.726-16.108-2.301-24.162c-0.575-7.479 0-14.382 0.575-19.56 0.575-5.753 2.301-8.054 5.178-8.054 1.726 0 4.027 2.301 6.903 6.903s5.178 10.355 7.479 16.683c2.301 6.328 4.602 12.656 6.903 19.56 2.301 6.328 3.452 11.506 4.027 14.957 1.151 2.876 2.301 5.178 4.602 6.328s4.027 1.151 6.328 1.151c1.726-0.575 3.452-1.726 5.178-3.452 1.151-1.726 1.726-4.027 0.575-6.903-0.575-1.726-1.726-5.178-2.876-10.355s-2.876-10.93-5.178-16.683c-2.301-6.328-4.602-12.656-7.479-18.984s-6.328-12.656-10.355-17.258c-4.027-5.178-8.054-9.204-12.656-11.506-4.602-2.876-9.78-3.452-14.957-1.726-8.054 2.301-14.382 6.903-17.834 13.807-3.452 6.328-5.753 14.382-6.328 23.011s-0.575 18.409 0 28.764c1.726 8.629 1.726 18.409 1.726 28.189zM749.016 508.404c0.575-3.452 0-6.328-1.151-9.204s-3.452-5.753-6.328-8.054c-2.876-2.301-5.753-4.027-9.78-5.753-3.452-1.726-7.479-2.876-11.506-3.452-7.479-1.151-14.957 0-22.436 2.301s-11.506 6.903-12.656 13.231c-0.575 0.575-0.575 1.726-0.575 2.876v1.151c0.575 5.753 3.452 10.355 8.629 14.382s11.506 6.903 19.56 8.054h1.151c0-0.575 0-1.151 0-2.301 0-0.575 0-1.726 0-2.301-0.575-4.027-2.301-7.479-5.753-10.93-2.876-3.452-6.328-5.753-9.78-7.479s-6.328-2.876-9.204-3.452c-2.876-0.575-4.027 0-4.602 2.301v1.151c0 0.575 0 0.575 0 0.575s0 0 0 0.575c1.151 5.178 2.301 9.78 2.301 14.957s0.575 9.78 0 13.231c-0.575 4.027-1.151 6.903-1.726 9.204-1.151 2.301-2.301 3.452-4.027 3.452s-3.452-1.151-4.602-4.027c-1.151-2.876-2.301-7.479-3.452-13.807s-1.726-14.957-2.301-25.312c-0.575-10.355-0.575-23.587-1.151-38.544 6.903 0.575 14.382 1.151 21.285 1.151 7.479 0 13.231 0 17.258 0 2.876 0.575 5.753 0 8.054-0.575 2.876-0.575 5.178-1.726 6.903-3.452s3.452-4.027 4.602-6.328c1.151-2.301 1.726-5.178 1.151-8.054-1.151-5.753-2.301-12.656-3.452-20.71s-1.726-16.108-2.301-24.162c-0.575-7.479 0-14.382 0.575-19.56 0.575-5.753 2.301-8.054 5.178-8.054 1.726 0 4.027 2.301 6.903 6.903s5.178 10.355 7.479 16.683c2.301 6.328 4.602 12.656 6.903 19.56 2.301 6.328 3.452 11.506 4.027 14.957 1.151 2.876 2.301 5.178 4.602 6.328s4.027 1.151 6.328 1.151 3.452-1.726 5.178-3.452c1.151-1.726 1.726-4.027 0.575-6.903-0.575-1.726-1.726-5.178-2.876-10.355s-2.876-10.93-5.178-16.683c-2.301-6.328-4.602-12.656-7.479-18.984s-6.328-12.656-10.355-17.258c-4.027-5.178-8.054-9.204-12.656-11.506-4.602-2.876-9.78-3.452-14.957-1.726-8.054 2.301-14.382 6.903-17.834 13.231s-5.753 14.382-6.328 23.011c-0.575 8.629-0.575 18.409 0 28.764s1.151 20.135 1.151 29.915c-3.452 0-7.479 0-12.081 0s-9.204-0.575-13.807-0.575c-0.575-12.656-0.575-27.038 0-43.146 0-15.533 0.575-33.366 0.575-52.926 0-5.753-1.726-10.355-5.753-13.807s-7.479-6.328-12.081-8.054c-4.602-1.151-8.629-1.726-12.081-0.575s-5.753 3.452-5.753 7.479l3.452 110.454c-4.027 0.575-7.479 1.151-9.78 2.876s-3.452 3.452-3.452 5.753c0 2.301 1.151 4.027 3.452 5.753s5.753 2.876 10.93 2.876c1.151 18.409 2.301 33.942 4.027 46.022s4.027 22.436 7.479 29.915c3.452 7.479 7.479 12.656 12.656 16.108s11.506 5.178 18.984 5.753c4.602 0.575 8.629-0.575 12.656-2.876s7.479-5.178 10.355-8.629c2.876-3.452 5.178-7.479 6.903-11.506s2.301-8.054 2.301-11.506c8.629 1.151 16.108 0.575 23.011-2.301 7.479-3.452 11.506-7.479 12.656-13.807zM832.431 430.166c-2.301-3.452-5.753-6.328-9.204-8.054s-7.479-4.027-12.081-5.178c-4.027-1.151-8.629-2.301-13.231-2.876s-8.629-1.151-11.506-1.151c-1.151-6.328-1.726-12.656-1.726-18.984s0-11.506 1.151-16.683c0.575-5.178 1.726-9.204 3.452-12.656s4.027-5.753 6.903-6.328c4.027-1.151 8.054-0.575 12.656 2.301s9.204 6.328 13.231 10.93c4.027 4.602 8.629 9.78 12.656 16.108s7.479 12.081 10.355 17.834c2.876 5.753 5.753 10.93 8.054 15.533s3.452 8.054 4.027 10.355c1.151 2.876 2.301 4.602 4.602 5.753 1.726 1.151 4.027 1.151 5.753 1.151 1.726-0.575 3.452-1.151 4.602-2.876s1.726-4.027 1.151-6.903c-0.575-1.726-1.726-5.178-3.452-10.93-1.726-5.178-4.027-11.506-6.903-18.409s-6.328-13.807-10.355-20.71c-4.027-7.479-9.204-13.807-14.957-19.56s-12.656-10.93-20.135-14.957c-7.479-4.027-16.108-5.753-25.312-5.753-10.93 0-19.56 4.027-25.888 11.506s-10.355 17.258-12.656 28.764c-2.301 11.506-2.301 24.162-1.151 37.393s4.027 25.888 8.054 37.393c4.027 11.506 9.204 21.285 15.533 28.764s13.231 11.506 20.71 11.506c7.479 0 13.807-2.301 19.56-7.479s9.78-10.93 13.231-17.834c2.876-6.903 4.602-13.807 5.178-20.71 2.301-8.054 0.575-13.231-2.301-17.258zM803.667 471.011c-2.301-1.151-4.602-4.602-6.903-11.506s-4.602-15.533-6.903-25.312c3.452 0 6.903 0.575 10.355 1.151s5.753 2.301 7.479 4.602c1.151 1.726 1.726 4.602 2.301 8.054s0 6.903 0 10.93c-0.575 3.452-1.151 6.903-2.301 9.204-1.151 2.876-2.301 3.452-4.027 2.876zM935.982 548.099c0 7.479 1.726 12.656 5.753 15.533s8.054 4.027 12.656 4.027c4.602-0.575 8.629-1.726 12.081-5.178 3.452-2.876 4.602-6.903 4.027-12.081-0.575-3.452-1.726-10.93-2.876-20.71-1.151-10.355-2.301-22.436-4.027-35.667-1.151-13.231-2.301-27.613-3.452-41.996s-1.151-27.613-1.151-40.27c0-12.081 0.575-22.436 1.726-29.915 1.151-8.054 2.876-11.506 6.328-11.506 2.876 0 5.753 2.876 8.629 8.054s5.753 11.506 8.629 18.409 5.178 13.807 6.903 20.135c1.726 6.328 3.452 11.506 4.027 14.382 1.151 2.876 2.301 5.178 4.602 6.328 1.726 1.151 4.027 1.151 5.753 1.151 1.726-0.575 3.452-1.726 5.178-3.452 1.151-1.726 1.726-4.027 1.151-7.479-0.575-2.876-1.726-9.204-4.027-17.834s-5.178-17.834-9.78-27.613c-4.027-9.204-9.78-17.834-16.683-25.312s-14.957-10.93-24.737-10.93c-6.903 0-12.656 2.876-16.108 8.629-4.027 5.753-6.903 13.231-9.204 22.436-2.301-5.753-5.753-10.93-9.78-15.533s-9.204-8.054-15.533-10.355c-6.903-2.301-12.656-2.876-17.258-1.151-8.629 2.301-16.108 6.903-21.285 14.382s-8.629 16.108-10.93 26.463c-1.726 9.78-2.301 20.135-0.575 31.065s4.602 20.135 9.204 28.764c4.602 8.629 10.93 15.533 18.984 20.135s17.834 6.328 28.764 4.602c6.328-1.151 11.506-4.027 16.108-9.78 1.151 17.258 2.876 33.942 4.027 48.899 2.301 14.382 2.876 25.312 2.876 33.366zM925.627 434.193c-0.575 4.027-1.726 8.629-3.452 12.656s-4.027 6.903-7.479 7.479c-5.178 1.151-9.204-0.575-13.231-4.602s-6.903-9.204-9.204-15.533c-2.301-6.328-4.027-13.231-5.178-20.71s-1.151-14.957-1.151-21.861c0.575-6.903 1.726-12.656 4.027-17.258s5.178-7.479 9.204-8.054c4.027-0.575 7.479 1.151 11.506 5.753 3.452 4.027 6.328 9.78 9.204 16.683s4.602 14.382 5.753 22.436c0.575 8.054 0.575 15.533 0 23.011z" />
<glyph unicode="&#xe920;" glyph-name="message-line" d="M512 74.541c-46.18 0-92.361 6.024-134.525 18.071l-158.62-108.424v178.698c-114.447 74.29-188.737 194.761-188.737 329.286 0 230.902 214.839 419.639 481.882 419.639s481.882-186.729 481.882-419.639c0-230.902-214.839-417.631-481.882-417.631zM512 869.647c-242.949 0-439.718-168.659-439.718-377.475 0-128.502 74.29-240.941 188.737-309.208v-124.486l66.259 46.18h-2.008l38.149 32.125c46.18-14.055 96.376-22.086 148.58-22.086 242.949 0 439.718 168.659 439.718 377.475s-196.769 377.475-439.718 377.475zM208.816-33.882v190.745c-118.463 80.314-188.737 204.8-188.737 335.31 0 236.925 220.863 429.678 491.922 429.678s491.922-192.753 491.922-429.678c0-234.918-220.863-427.671-491.922-427.671-46.18 0-92.361 6.024-132.518 18.071l-170.667-116.455zM512 901.773c-261.020 0-471.843-184.722-471.843-409.6 0-126.494 68.267-246.965 184.722-321.255l4.016-2.008v-164.643l146.573 100.392 4.016-2.008c40.157-12.047 86.337-18.071 132.518-18.071 261.020 0 471.843 182.714 471.843 407.592s-210.824 409.6-471.843 409.6zM250.98 38.4v138.541c-118.463 72.282-188.737 190.745-188.737 315.231 0 212.831 200.784 387.514 449.757 387.514s449.757-174.682 449.757-387.514c0-212.831-200.784-387.514-449.757-387.514-50.196 0-98.384 8.031-146.573 20.078l-12.047-10.039h4.016l-24.094-18.071-82.322-58.227zM512 859.608c-236.925 0-429.678-164.643-429.678-367.435 0-120.471 68.267-232.91 184.722-301.176l4.016-2.008v-110.431l42.165 30.118 6.024 6.024 42.165 36.141 6.024-2.008c48.188-14.055 96.376-22.086 146.573-22.086 236.925 0 429.678 164.643 429.678 367.435s-194.761 365.427-431.686 365.427zM208.816-35.89v190.745c-120.471 82.322-188.737 204.8-188.737 337.318 0 236.925 220.863 429.678 491.922 429.678s491.922-192.753 491.922-429.678c0-234.918-220.863-427.671-491.922-427.671-44.173 0-90.353 6.024-134.525 16.063l-168.659-116.455zM512 901.773c-259.012 0-471.843-182.714-471.843-409.6 0-126.494 66.259-244.957 184.722-323.263l4.016-2.008v-164.643l146.573 98.384 4.016-2.008c44.173-12.047 88.345-16.063 132.518-16.063 261.020 0 471.843 182.714 471.843 409.6s-210.824 409.6-471.843 409.6zM250.98 40.408v138.541c-118.463 72.282-188.737 190.745-188.737 315.231 0 212.831 202.792 385.506 449.757 385.506 248.973 0 449.757-172.675 449.757-387.514 0-212.831-202.792-387.514-449.757-387.514-50.196 0-98.384 8.031-146.573 22.086l-20.078-16.063h2.008l-14.055-12.047-82.322-58.227zM512 859.608c-236.925 0-429.678-164.643-429.678-367.435 0-118.463 68.267-230.902 182.714-301.176l4.016-2.008v-110.431l40.157 28.11 6.024 6.024 42.165 36.141 6.024-2.008c48.188-14.055 96.376-22.086 146.573-22.086 236.925 0 429.678 164.643 429.678 367.435s-190.745 367.435-427.671 367.435zM198.776-55.969v204.8c-120.471 84.329-188.737 208.816-188.737 343.341 0 242.949 224.878 439.718 501.961 439.718s501.961-196.769 501.961-439.718c0-240.941-224.878-437.71-501.961-437.71-42.165 0-86.337 6.024-132.518 16.063l-180.706-126.494zM218.855-15.812v0 0zM512 891.733c-254.996 0-461.804-178.698-461.804-399.561 0-124.486 66.259-238.933 180.706-315.231l8.031-4.016v-152.596l2.008 2.008v150.588c-118.463 74.29-188.737 192.753-188.737 321.255 0 218.855 206.808 395.545 459.796 395.545s459.796-178.698 459.796-397.553-206.808-397.553-459.796-397.553c-46.18 0-94.369 6.024-144.565 20.078l-4.016-2.008-24.094-22.086-60.235-42.165 94.369 64.251 10.039-4.016c36.141-10.039 80.314-14.055 128.502-14.055 254.996 0 461.804 178.698 461.804 399.561 0 218.855-206.808 397.553-461.804 397.553zM261.020 60.486v0l58.227 40.157 20.078 18.071 22.086 18.071c0 0 0 0-2.008 0h-2.008l-44.173-38.149-52.204-38.149zM512 849.569c-230.902 0-419.639-160.627-419.639-357.396 0-114.447 66.259-224.878 178.698-293.145l8.031-4.016v-96.376l24.094 16.063 4.016 4.016 46.18 40.157 12.047-4.016c50.196-14.055 96.376-22.086 142.557-22.086 230.902 0 419.639 160.627 419.639 357.396 2.008 198.776-184.722 359.404-415.624 359.404zM512 114.698c0 0 0 0 0 0 242.949 0 439.718 168.659 439.718 377.475s-196.769 377.475-439.718 377.475c240.941 0 437.71-168.659 437.71-377.475s-196.769-377.475-437.71-377.475zM72.282 319.498c32.125-60.235 80.314-114.447 142.557-156.612l4.016-2.008c-64.251 42.165-114.447 98.384-146.573 158.62zM512 869.647c-242.949 0-439.718-168.659-439.718-375.467 0 0 0 0 0 0 0 206.808 196.769 375.467 439.718 375.467z" />
</font>
</defs>
</svg>
