<?xml version="1.0" encoding="utf-8"?>
<!-- Generator: Adobe Illustrator 21.0.0, SVG Export Plug-In . SVG Version: 6.00 Build 0)  -->
<svg version="1.1" id="Layer_1" xmlns="http://www.w3.org/2000/svg" xmlns:xlink="http://www.w3.org/1999/xlink" x="0px" y="0px"
	 viewBox="0 0 50.1 49.9" style="enable-background:new 0 0 50.1 49.9;" xml:space="preserve">
<path d="M35.1,9.4h-3V7.7c0-2.2-1.3-4.1-2.9-4.1h-8.5c-1.6,0-2.9,1.9-2.9,4.1v1.7h-3V7.7c0-3.9,2.6-7.1,5.9-7.1h8.5
	c3.3,0,5.9,3.2,5.9,7.1V9.4z M43.6,49.6H6.4c-3.3,0-5.9-3.2-5.9-7.1V15c0-3.9,2.6-7.1,5.9-7.1h37.2c3.3,0,5.9,3.2,5.9,7.1v27.5
	C49.5,46.4,46.9,49.6,43.6,49.6z M6.4,10.9c-1.6,0-2.9,1.9-2.9,4.1v27.5c0,2.2,1.3,4.1,2.9,4.1h37.2c1.6,0,2.9-1.9,2.9-4.1V15
	c0-2.2-1.3-4.1-2.9-4.1H6.4z M2,22.6h8.1v3H2V22.6z M39.9,22.6H48v3h-8.1V22.6z M16.2,22.6h17.6v3H16.2V22.6z M13.1,37.9
	c-3,0-4.6-4.3-4.6-8.6v-3.5c0-4.3,1.6-8.6,4.6-8.6s4.6,4.3,4.6,8.6v3.5C17.7,33.6,16.1,37.9,13.1,37.9z M13.1,20.2
	c-0.4,0.1-1.6,2.1-1.6,5.6v3.5c0,3.5,1.2,5.5,1.6,5.6c0.4-0.1,1.6-2.1,1.6-5.6v-3.5C14.7,22.3,13.5,20.3,13.1,20.2z M36.8,37.9
	c-3,0-4.6-4.3-4.6-8.6v-3.5c0-4.3,1.6-8.6,4.6-8.6s4.6,4.3,4.6,8.6v3.5C41.4,33.6,39.8,37.9,36.8,37.9z M36.8,20.2
	c-0.4,0.1-1.6,2.1-1.6,5.6v3.5c0,3.5,1.2,5.5,1.6,5.6c0.4-0.1,1.6-2.1,1.6-5.6v-3.5C38.4,22.3,37.2,20.3,36.8,20.2z"/>
</svg>
