<svg id="Layer_1" data-name="Layer 1" xmlns="http://www.w3.org/2000/svg" viewBox="0 0 48 48"><defs><style>.cls-1{fill:#fff;}</style></defs><title>account-white</title><path class="cls-1" d="M40.3,21.6a5,5,0,0,1,5,5V40a5,5,0,0,1-5,5H7.7a5,5,0,0,1-5-5V26.6a5,5,0,0,1,5-5H40.3m0-2H7.7a7,7,0,0,0-7,7h0V40a7,7,0,0,0,7,7H40.3a7,7,0,0,0,7-7V26.6A7.09,7.09,0,0,0,40.3,19.6Z"/><path class="cls-1" d="M40.3,47.5H7.7A7.43,7.43,0,0,1,.2,40V26.6a7.43,7.43,0,0,1,7.5-7.5H40.3a7.55,7.55,0,0,1,7.5,7.5V40A7.43,7.43,0,0,1,40.3,47.5ZM7.7,20.1a6.49,6.49,0,0,0-6.5,6.5V40a6.49,6.49,0,0,0,6.5,6.5H40.3A6.49,6.49,0,0,0,46.8,40V26.6a6.62,6.62,0,0,0-6.5-6.5ZM40.3,45.5H7.7A5.42,5.42,0,0,1,2.2,40V26.6a5.42,5.42,0,0,1,5.5-5.5H40.3a5.42,5.42,0,0,1,5.5,5.5V40A5.42,5.42,0,0,1,40.3,45.5ZM7.7,22.1a4.48,4.48,0,0,0-4.5,4.5V40a4.48,4.48,0,0,0,4.5,4.5H40.3A4.48,4.48,0,0,0,44.8,40V26.6a4.48,4.48,0,0,0-4.5-4.5Z"/><path class="cls-1" d="M24,38.2a5,5,0,1,1,5-5A5,5,0,0,1,24,38.2Zm0-8a3,3,0,1,0,3,3,3.15,3.15,0,0,0-3-3Z"/><path class="cls-1" d="M24,38.7a5.5,5.5,0,1,1,5.5-5.5A5.42,5.42,0,0,1,24,38.7Zm0-10a4.5,4.5,0,1,0,4.5,4.5A4.48,4.48,0,0,0,24,28.7Zm0,8a3.5,3.5,0,0,1,0-7h0a3.68,3.68,0,0,1,3.5,3.5A3.42,3.42,0,0,1,24,36.7Zm0-6a2.5,2.5,0,1,0,2.5,2.5A2.61,2.61,0,0,0,24,30.7Z"/><rect class="cls-1" x="23" y="37.6" width="2" height="4.2"/><path class="cls-1" d="M25.5,42.3h-3V37.1h3Zm-2-1h1V38.1h-1Z"/><path class="cls-1" d="M41.2,20.4l-2-.3a22.75,22.75,0,0,0,.2-2.6,15.4,15.4,0,1,0-30.8,0h0a22.75,22.75,0,0,0,.2,2.6l-2,.3a14.15,14.15,0,0,1-.2-2.9,17.4,17.4,0,1,1,34.8-.1h0A28.32,28.32,0,0,1,41.2,20.4Z"/><path class="cls-1" d="M41.6,21l-3-.4.1-.7a17.85,17.85,0,0,0,.2-2.3,14.9,14.9,0,1,0-29.8,0,17.85,17.85,0,0,0,.2,2.3l.1.7-3,.4-.1-.5a15.14,15.14,0,0,1-.2-3A18.09,18.09,0,0,1,11.2,4.8,18,18,0,0,1,41.9,17.4a24.58,24.58,0,0,1-.2,2.8ZM24,.5a17,17,0,0,0-12.1,5,16.36,16.36,0,0,0-4.8,12,17,17,0,0,0,.1,2.3l1-.2a15.48,15.48,0,0,1-.1-2.2A16.14,16.14,0,0,1,12.7,6.1,15.48,15.48,0,0,1,24,1.4a16,16,0,0,1,15.9,16c0,.8-.1,1.5-.1,2.2l1,.2a18.48,18.48,0,0,0,.1-2.4A16.94,16.94,0,0,0,24,.5Z"/></svg>