<?xml version="1.0" encoding="utf-8"?>
<!-- Generator: Adobe Illustrator 21.0.0, SVG Export Plug-In . SVG Version: 6.00 Build 0)  -->
<svg version="1.1" id="Layer_1" xmlns="http://www.w3.org/2000/svg" xmlns:xlink="http://www.w3.org/1999/xlink" x="0px" y="0px"
	 viewBox="0 0 48 48.9" style="enable-background:new 0 0 48 48.9;" xml:space="preserve">
<title>account-702</title>
<g>
	<path d="M40.3,22.5c2.8,0,5,2.2,5,5v13.4c0,2.8-2.2,5-5,5H7.7c-2.8,0-5-2.2-5-5V27.5c0-2.8,2.2-5,5-5H40.3 M40.3,20.5H7.7
		c-3.9,0-7,3.1-7,7l0,0v13.4c0,3.9,3.1,7,7,7h32.6c3.9,0,7-3.1,7-7V27.5C47.3,23.7,44.1,20.5,40.3,20.5z"/>
	<path d="M40.3,48.4H7.7c-4.2,0-7.5-3.3-7.5-7.5V27.5c0-4.2,3.3-7.5,7.5-7.5h32.6c4.1,0,7.5,3.4,7.5,7.5v13.4
		C47.8,45.1,44.5,48.4,40.3,48.4z M7.7,21c-3.6,0-6.5,2.9-6.5,6.5v13.4c0,3.6,2.9,6.5,6.5,6.5h32.6c3.6,0,6.5-2.9,6.5-6.5V27.5
		c0-3.5-3-6.5-6.5-6.5H7.7z M40.3,46.4H7.7c-3.1,0-5.5-2.4-5.5-5.5V27.5c0-3.1,2.4-5.5,5.5-5.5h32.6c3.1,0,5.5,2.4,5.5,5.5v13.4
		C45.8,44,43.4,46.4,40.3,46.4z M7.7,23c-2.5,0-4.5,2-4.5,4.5v13.4c0,2.5,2,4.5,4.5,4.5h32.6c2.5,0,4.5-2,4.5-4.5V27.5
		c0-2.5-2-4.5-4.5-4.5H7.7z"/>
</g>
<path d="M24,39.1c-2.8,0-5-2.2-5-5s2.2-5,5-5s5,2.2,5,5S26.8,39.1,24,39.1z M24,31.1c-1.7,0-3,1.3-3,3s1.3,3,3,3s3-1.3,3-3
	C27,32.5,25.6,31.2,24,31.1L24,31.1z M24,39.6c-3.1,0-5.5-2.4-5.5-5.5s2.4-5.5,5.5-5.5s5.5,2.4,5.5,5.5C29.5,37.2,27.1,39.6,24,39.6
	z M24,29.6c-2.5,0-4.5,2-4.5,4.5s2,4.5,4.5,4.5s4.5-2,4.5-4.5S26.5,29.6,24,29.6z M24,37.6c-2,0-3.5-1.5-3.5-3.5s1.5-3.5,3.5-3.5
	l0,0c1.9,0.1,3.5,1.7,3.5,3.5C27.5,36.1,26,37.6,24,37.6z M24,31.6c-1.4,0-2.5,1.1-2.5,2.5c0,1.4,1.1,2.5,2.5,2.5s2.5-1.1,2.5-2.5
	C26.5,32.8,25.4,31.7,24,31.6z"/>
<path d="M23,38.5h2v4.2h-2V38.5z M25.5,43.2h-3V38h3V43.2z M23.5,42.2h1V39h-1V42.2z"/>
<path d="M41.2,21.3l-2-0.3c0.1-0.9,0.2-1.7,0.2-2.6c0-8.5-6.9-15.5-15.4-15.5S8.5,9.8,8.6,18.4l0,0c0,0.9,0.1,1.7,0.2,2.6l-2,0.3
	c-0.2-1-0.2-1.9-0.2-2.9C6.5,8.7,14.3,0.9,24,0.9c9.6,0,17.4,7.8,17.4,17.4l0,0C41.4,19.4,41.3,20.3,41.2,21.3z M41.6,21.9l-3-0.4
	l0.1-0.7c0.1-0.8,0.2-1.5,0.2-2.3c0-8.3-6.7-15-14.9-15c-4,0-7.8,1.6-10.6,4.4s-4.3,6.6-4.3,10.6c0,0.8,0.1,1.5,0.2,2.3l0.1,0.7
	l-3,0.4l-0.1-0.5c-0.2-1-0.2-2-0.2-3c0-4.8,1.8-9.3,5.1-12.7c3.4-3.4,7.9-5.3,12.8-5.3c9.9,0,17.9,8,17.9,17.9c0,1-0.1,1.9-0.2,2.8
	L41.6,21.9z M24,1.4c-4.6,0-8.9,1.8-12.1,5s-4.9,7.5-4.8,12c0,0.8,0,1.6,0.1,2.3l1-0.2c-0.1-0.7-0.1-1.4-0.1-2.2
	c0-4.2,1.6-8.2,4.6-11.3s7-4.7,11.3-4.7c8.8,0,15.9,7.2,15.9,16c0,0.8-0.1,1.5-0.1,2.2l1,0.2c0.1-0.8,0.1-1.5,0.1-2.4
	C40.9,9,33.3,1.4,24,1.4z"/>
</svg>
