<?xml version="1.0" encoding="utf-8"?>
<!-- Generator: Adobe Illustrator 21.0.0, SVG Export Plug-In . SVG Version: 6.00 Build 0)  -->
<svg version="1.1" id="Layer_1" xmlns="http://www.w3.org/2000/svg" xmlns:xlink="http://www.w3.org/1999/xlink" x="0px" y="0px"
	 viewBox="0 0 48 48" style="enable-background:new 0 0 48 48;" xml:space="preserve">
<path d="M48,42.2H0v-6.9h48V42.2z M2,40.2h44v-2.9H2V40.2z M44.9,33.9H2v-1.2c0-12.1,9.9-22,22-22s22,9.9,22,22
	C46,33.6,45.3,33.9,44.9,33.9z M44,32.7L44,32.7h1H44z M4,31.9h40c-0.4-10.7-9.2-19.2-20-19.2C13.2,12.7,4.4,21.2,4,31.9z M8.6,27.3
	l-1.9-0.6c2.5-7.3,9.5-12.3,17.2-12.3v2C17.2,16.4,10.9,20.9,8.6,27.3z M28.1,12.7l-1.7-1c0.2-0.3,0.3-0.7,0.3-1.2
	c0-1.4-1.3-2.7-2.7-2.7s-2.7,1.3-2.7,2.7c0,0.4,0.2,0.8,0.3,1.2l-1.9,0.7c-0.2-0.6-0.5-1.2-0.5-2c0-2.5,2.2-4.7,4.7-4.7
	s4.7,2.2,4.7,4.7C28.6,11.4,28.4,12.1,28.1,12.7z"/>
</svg>
