<?xml version="1.0" encoding="utf-8"?>
<!-- Generator: Adobe Illustrator 20.1.0, SVG Export Plug-In . SVG Version: 6.00 Build 0)  -->
<svg version="1.1" id="Layer_1" xmlns="http://www.w3.org/2000/svg" xmlns:xlink="http://www.w3.org/1999/xlink" x="0px" y="0px"
	 viewBox="0 0 49.1 49" style="enable-background:new 0 0 49.1 49;" xml:space="preserve">
<style type="text/css">
	.st0{fill:#1D1D26;}
</style>
<title>bookings-653</title>
<g>
	<path class="st0" d="M24.8,48.6H11.4c-3.6,0-6.6-3-6.6-6.6V7c0-3.6,3-6.6,6.6-6.6h30.5c3.6,0,6.6,3,6.6,6.6v17.9h-3V7
		c0-2-1.6-3.6-3.6-3.6H11.4C9.4,3.4,7.8,5,7.8,7v35c0,2,1.6,3.6,3.6,3.6h13.4V48.6z"/>
</g>
<g>
	<rect x="1" y="7.9" class="st0" width="7.1" height="3"/>
</g>
<g>
	<rect x="1" y="18.3" class="st0" width="7.1" height="3"/>
</g>
<g>
	<rect x="1" y="39" class="st0" width="7.1" height="3"/>
</g>
<g>
	<rect x="1" y="28.6" class="st0" width="7.1" height="3"/>
</g>
<g>
	<rect x="15.4" y="8.5" class="st0" width="22.6" height="3"/>
</g>
<g>
	<rect x="15.4" y="15.7" class="st0" width="22.6" height="3"/>
</g>
<g>
	<rect x="15.4" y="23" class="st0" width="9.4" height="3"/>
</g>
<g>
	<rect x="15.4" y="30.3" class="st0" width="5.1" height="3"/>
</g>
<g>
	<rect x="15.4" y="37.5" class="st0" width="5.1" height="3"/>
</g>
<g>
	<path class="st0" d="M35.9,48.6c-6.9,0-12.6-5.7-12.6-12.6S29,23.4,35.9,23.4c6.9,0,12.6,5.7,12.6,12.6S42.8,48.6,35.9,48.6z
		 M35.9,26.4c-5.3,0-9.6,4.3-9.6,9.6c0,5.3,4.3,9.6,9.6,9.6c5.3,0,9.6-4.3,9.6-9.6C45.5,30.7,41.2,26.4,35.9,26.4z"/>
</g>
<g>
	<polygon class="st0" points="40.8,37.5 34.4,37.5 34.4,27.8 37.4,27.8 37.4,34.5 40.8,34.5 	"/>
</g>
</svg>
