<svg id="Layer_1" data-name="Layer 1" xmlns="http://www.w3.org/2000/svg" viewBox="0 0 49.1 49"><defs><style>.cls-1{fill:#fff;}</style></defs><title>bookings-white</title><path class="cls-1" d="M24.8,48.6H11.4A6.66,6.66,0,0,1,4.8,42V7A6.66,6.66,0,0,1,11.4.4H41.9A6.66,6.66,0,0,1,48.5,7V24.9h-3V7a3.59,3.59,0,0,0-3.6-3.6H11.4A3.59,3.59,0,0,0,7.8,7V42a3.59,3.59,0,0,0,3.6,3.6H24.8Z"/><rect class="cls-1" x="1" y="7.9" width="7.1" height="3"/><rect class="cls-1" x="1" y="18.3" width="7.1" height="3"/><rect class="cls-1" x="1" y="39" width="7.1" height="3"/><rect class="cls-1" x="1" y="28.6" width="7.1" height="3"/><rect class="cls-1" x="15.4" y="8.5" width="22.6" height="3"/><rect class="cls-1" x="15.4" y="15.7" width="22.6" height="3"/><rect class="cls-1" x="15.4" y="23" width="9.4" height="3"/><rect class="cls-1" x="15.4" y="30.3" width="5.1" height="3"/><rect class="cls-1" x="15.4" y="37.5" width="5.1" height="3"/><path class="cls-1" d="M35.9,48.6A12.6,12.6,0,1,1,48.5,36,12.68,12.68,0,0,1,35.9,48.6Zm0-22.2A9.6,9.6,0,1,0,45.5,36,9.6,9.6,0,0,0,35.9,26.4Z"/><polygon class="cls-1" points="40.8 37.5 34.4 37.5 34.4 27.8 37.4 27.8 37.4 34.5 40.8 34.5 40.8 37.5"/></svg>