<?xml version="1.0" encoding="utf-8"?>
<!-- Generator: Adobe Illustrator 20.1.0, SVG Export Plug-In . SVG Version: 6.00 Build 0)  -->
<svg version="1.1" id="Layer_1" xmlns="http://www.w3.org/2000/svg" xmlns:xlink="http://www.w3.org/1999/xlink" x="0px" y="0px"
	 viewBox="0 0 50.1 49.8" style="enable-background:new 0 0 50.1 49.8;" xml:space="preserve">
<style type="text/css">
	.st0{fill:#1D1D26;}
</style>
<title>calendar-1145</title>
<g>
	<path class="st0" d="M47.2,49.2H3c-1.3,0-2.4-1.1-2.4-2.4V7.5c0-1.3,1.1-2.4,2.4-2.4h7.4v3H3.6v38.1h43V8.1h-6.8v-3h7.4
		c1.3,0,2.4,1.1,2.4,2.4v39.3C49.6,48.1,48.6,49.2,47.2,49.2z"/>
</g>
<g>
	<rect x="2.1" y="17.7" class="st0" width="46" height="3"/>
</g>
<g>
	<path class="st0" d="M17.1,12.1c0,0-0.1,0-0.1,0h-4.8c-1.1,0.1-2.2-0.7-2.3-1.9l0-0.2l0-7.5c0.2-1.1,1.2-2,2.3-1.9h4.8
		c1.1-0.1,2.2,0.7,2.3,1.9l0,0.2l0,7.4l0,0.1C19.1,11.3,18.2,12.1,17.1,12.1z M12.8,9.1h3.5l0-5.5h-3.5V9.1z"/>
</g>
<g>
	<path class="st0" d="M33.1,12.1c-1.1,0-2-0.8-2.2-1.9l0-0.2l0-7.5c0.2-1.1,1.2-1.9,2.3-1.9h4.8c1.1-0.1,2.1,0.7,2.3,1.9l0,0.2
		l0,7.5c-0.2,1.1-1.2,1.9-2.3,1.9h-4.8C33.2,12.1,33.2,12.1,33.1,12.1z M33.9,9.1h3.5V3.6h-3.5V9.1z"/>
</g>
<g>
	<rect x="18.7" y="5.1" class="st0" width="12.9" height="3"/>
</g>
</svg>
