<svg id="Layer_1" data-name="Layer 1" xmlns="http://www.w3.org/2000/svg" viewBox="0 0 50.1 49.8"><defs><style>.cls-1{fill:#fff;}</style></defs><title>calendar-white</title><path class="cls-1" d="M47.2,49.2H3A2.43,2.43,0,0,1,.6,46.8V7.5A2.43,2.43,0,0,1,3,5.1h7.4v3H3.6V46.2h43V8.1H39.8v-3h7.4a2.43,2.43,0,0,1,2.4,2.4V46.8A2.37,2.37,0,0,1,47.2,49.2Z"/><rect class="cls-1" x="2.1" y="17.7" width="46" height="3"/><path class="cls-1" d="M17.1,12.1H12.2a2.12,2.12,0,0,1-2.3-1.9V2.5A2.26,2.26,0,0,1,12.2.6H17a2.12,2.12,0,0,1,2.3,1.9v7.7A2.25,2.25,0,0,1,17.1,12.1Zm-4.3-3h3.5V3.6H12.8Z"/><path class="cls-1" d="M33.1,12.1a2.25,2.25,0,0,1-2.2-1.9V2.5A2.35,2.35,0,0,1,33.2.6H38a2.18,2.18,0,0,1,2.3,1.9v7.7A2.35,2.35,0,0,1,38,12.1H33.1Zm.8-3h3.5V3.6H33.9Z"/><rect class="cls-1" x="18.7" y="5.1" width="12.9" height="3"/></svg>