<?xml version="1.0" encoding="utf-8"?>
<!-- Generator: Adobe Illustrator 20.1.0, SVG Export Plug-In . SVG Version: 6.00 Build 0)  -->
<svg version="1.1" id="Layer_1" xmlns="http://www.w3.org/2000/svg" xmlns:xlink="http://www.w3.org/1999/xlink" x="0px" y="0px"
	 viewBox="0 0 50.3 49.8" style="enable-background:new 0 0 50.3 49.8;" xml:space="preserve">
<style type="text/css">
	.st0{fill:#1D1D26;}
</style>
<g>
	<g>
		<path class="st0" d="M48.2,34.6c-0.8,0-1.5-0.7-1.5-1.5v-6.7c0-12.7-9.6-23.1-21.5-23.1C13.3,3.3,3.7,13.7,3.7,26.4v6.7
			c0,0.8-0.7,1.5-1.5,1.5s-1.5-0.7-1.5-1.5v-6.7c0-14.4,11-26.1,24.5-26.1c13.5,0,24.5,11.7,24.5,26.1v6.7
			C49.7,33.9,49,34.6,48.2,34.6z"/>
	</g>
	<g>
		<g>
			<g>
				<path class="st0" d="M10.3,38.2H3.2c-1.3,0-2.5-1.2-2.5-2.5v-8.1c0-1.3,1.2-2.5,2.5-2.5h7.1c1.4,0,2.5,1.1,2.5,2.5v8.1
					C12.8,37.1,11.7,38.2,10.3,38.2z M3.7,35.2h6.1v-7.1H3.7V35.2z"/>
			</g>
		</g>
		<g>
			<g>
				<path class="st0" d="M47.2,38.2h-7.1c-1.3,0-2.5-1.2-2.5-2.5v-8.1c0-1.3,1.2-2.5,2.5-2.5h7.1c1.3,0,2.5,1.2,2.5,2.5v8.1
					C49.7,37,48.5,38.2,47.2,38.2z M40.6,35.2h6.1v-7.1h-6.1V35.2z"/>
			</g>
		</g>
	</g>
	<g>
		<path class="st0" d="M28.8,46.4c-0.5,0-1,0-1.5,0c-0.8,0-1.5-0.8-1.4-1.6c0-0.8,0.7-1.5,1.6-1.4C38.1,44,40,37.1,40,36.8
			c0.2-0.8,1-1.3,1.8-1.1c0.8,0.2,1.3,1,1.1,1.8C42.9,37.6,40.7,46.4,28.8,46.4z"/>
	</g>
	<g>
		<path class="st0" d="M22.9,49.3c-3.4,0-6-2.2-6-4.9c0-2.7,2.6-4.9,6-4.9c3.4,0.1,6,2.3,6,4.9C28.9,47.1,26.2,49.3,22.9,49.3z
			 M22.8,42.5c-1.6,0-2.9,0.9-2.9,1.9c0,1,1.4,1.9,3,1.9c1.7,0,3-1,3-1.9C25.9,43.6,24.6,42.6,22.8,42.5z"/>
	</g>
</g>
</svg>
