<?xml version="1.0" encoding="utf-8"?>
<!-- Generator: Adobe Illustrator 20.1.0, SVG Export Plug-In . SVG Version: 6.00 Build 0)  -->
<svg version="1.1" id="Layer_1" xmlns="http://www.w3.org/2000/svg" xmlns:xlink="http://www.w3.org/1999/xlink" x="0px" y="0px"
	 viewBox="0 0 50.3 51" style="enable-background:new 0 0 50.3 51;" xml:space="preserve">
<style type="text/css">
	.st0{fill:#1D1D26;}
</style>
<title>call-447</title>
<g>
	<path class="st0" d="M36.3,50c-7.9,0-17-3.9-24.3-11.2c0,0,0,0,0,0C-0.1,26.7-2.9,10,5.6,1.5c0.7-0.7,1.8-0.7,3.2,0.1
		c1.7,0.9,4.1,3,7.3,6.1c2.7,2.7,3.3,5.1,3.3,6.7c0,1.5-0.6,3-1.5,3.9c-0.9,0.9-2.2,1.4-3.5,1.3c-0.1,4,1.7,8.3,5,11.6
		c3.3,3.3,7.6,5.1,11.7,5c-0.1-1.3,0.4-2.5,1.3-3.5c1.7-1.6,5.2-3.5,10.6,1.8c7.3,7.3,7.3,9.4,6.2,10.5C45.9,48.4,41.3,50,36.3,50z
		 M14.1,36.6C24.6,47.2,39,50.1,46.5,43.5c-0.4-0.8-1.6-2.7-5.7-6.8c-4-4-5.8-2.3-6.3-1.8c-0.5,0.5-0.6,1.3-0.2,2
		c0.2,0.4,0.2,0.9,0,1.4c-0.2,0.4-0.6,0.7-1.1,0.8c-5.4,1-11.5-1.2-15.9-5.6c-4.5-4.5-6.7-10.4-5.7-15.9c0.1-0.5,0.4-0.9,0.8-1.1
		c0.4-0.2,0.9-0.2,1.4,0c0.7,0.4,1.4,0.2,2-0.3c0.3-0.3,0.6-0.9,0.6-1.8c0-1-0.4-2.6-2.4-4.6c-4.1-4.1-6-5.3-6.8-5.7
		C0.5,11.7,3.5,26,14.1,36.6L14.1,36.6z"/>
</g>
</svg>
