<?xml version="1.0" encoding="utf-8"?>
<!-- Generator: Adobe Illustrator 20.1.0, SVG Export Plug-In . SVG Version: 6.00 Build 0)  -->
<svg version="1.1" id="Layer_1" xmlns="http://www.w3.org/2000/svg" xmlns:xlink="http://www.w3.org/1999/xlink" x="0px" y="0px"
	 viewBox="0 0 51.8 50.5" style="enable-background:new 0 0 51.8 50.5;" xml:space="preserve">
<style type="text/css">
	.st0{fill:#1D1D26;}
</style>
<title>call-1117</title>
<g>
	<path class="st0" d="M35.7,50c-4.9,0-12.5-2.4-22.4-12.3C-5.3,19.1,2.6,8.9,2.9,8.5l0.2-0.2l8.5-7.8l10.5,14.2l-4.4,4.4L32,33.4
		l6-5.1l12.7,11.6L42.5,48C42.3,48.2,40,50,35.7,50z M5.2,10.4c-0.5,0.8-5.5,9.4,10.2,25.1c16,16,24.5,10.7,25.1,10.2l5.8-5.8
		l-8.4-7.7l-6,5.2L13.4,19.1l4.7-4.7l-7-9.4L5.2,10.4z"/>
</g>
</svg>
