<?xml version="1.0" encoding="utf-8"?>
<!-- Generator: Adobe Illustrator 20.1.0, SVG Export Plug-In . SVG Version: 6.00 Build 0)  -->
<svg version="1.1" id="Layer_1" xmlns="http://www.w3.org/2000/svg" xmlns:xlink="http://www.w3.org/1999/xlink" x="0px" y="0px"
	 viewBox="0 0 48 50.1" style="enable-background:new 0 0 48 50.1;" xml:space="preserve">
<style type="text/css">
	.st0{fill:#1D1D26;}
</style>
<title>call-801</title>
<g>
	<path class="st0" d="M14.1,18c0,0-0.1,0-0.1,0c-0.4,0-0.8-0.2-1-0.5L4.6,7.6C4.3,7.3,4.2,6.9,4.3,6.5c0-0.4,0.2-0.8,0.5-1l5-4.2
		c0.6-0.5,1.6-0.5,2.1,0.2l8.3,9.9c0.3,0.3,0.4,0.7,0.3,1.1c0,0.4-0.2,0.8-0.5,1l-5,4.2C14.8,17.9,14.4,18,14.1,18z M7.9,6.8
		l6.4,7.6l2.7-2.3l-6.4-7.6L7.9,6.8z"/>
</g>
<g>
	<path class="st0" d="M39.7,48.4c-0.4,0-0.9-0.2-1.1-0.5L30.2,38c-0.3-0.3-0.4-0.7-0.3-1.1c0-0.4,0.2-0.8,0.5-1l5-4.2
		c0.6-0.5,1.6-0.5,2.1,0.2l8.3,9.9c0.3,0.3,0.4,0.7,0.3,1.1c0,0.4-0.2,0.8-0.5,1l-5,4.2C40.4,48.3,40,48.4,39.7,48.4z M33.5,37.2
		l6.4,7.6l2.7-2.3l-6.4-7.6L33.5,37.2z"/>
</g>
<g>
	<path class="st0" d="M34.8,49.9c-6.7,0-15.6-5.2-23-14C2.1,24.2-1.1,10.9,4.7,5.5C5,5.2,5.4,5.1,5.8,5.1c0.4,0,0.8,0.2,1.1,0.5
		l8.3,9.9c0.3,0.3,0.4,0.7,0.3,1.1c0,0.4-0.2,0.8-0.5,1c-4.5,3.8,1.7,11.6,2.9,13.1c2.2,2.6,4.4,4.5,6.4,5.5c2.4,1.2,4.3,1.1,6-0.4
		c0.3-0.3,0.7-0.4,1.1-0.3c0.4,0,0.8,0.2,1,0.5l8.3,9.9c0.3,0.3,0.4,0.7,0.3,1.1c0,0.4-0.3,0.8-0.6,1C39,49.3,37,49.9,34.8,49.9z
		 M5.8,9c-2.8,5,0.6,15.8,8.4,25v0c7.7,9.2,17.8,14.5,23.2,12.5L31.1,39c-2.4,1.4-5.1,1.4-8-0.1c-2.4-1.2-4.9-3.3-7.4-6.3
		c-4.3-5.1-7.3-11.8-3.6-16.2L5.8,9z"/>
</g>
</svg>
