<?xml version="1.0" encoding="utf-8"?>
<!-- Generator: Adobe Illustrator 20.1.0, SVG Export Plug-In . SVG Version: 6.00 Build 0)  -->
<svg version="1.1" id="Layer_1" xmlns="http://www.w3.org/2000/svg" xmlns:xlink="http://www.w3.org/1999/xlink" x="0px" y="0px"
	 viewBox="0 0 51.3 48" style="enable-background:new 0 0 51.3 48;" xml:space="preserve">
<style type="text/css">
	.st0{fill:#1D1D26;}
</style>
<title>camera-1243</title>
<g>
	<path class="st0" d="M45.2,45.4H5.5c-2.3,0-4.2-1.9-4.2-4.2V12c0-2.3,1.9-4.2,4.2-4.2h9.9c0.5-2.4,1.4-5.2,2.6-5.2h15.6
		c1.2,0,2,2.8,2.6,5.2h8.9c2.3,0,4.2,1.9,4.2,4.2v29.2C49.3,43.5,47.5,45.4,45.2,45.4z M47.2,12c0-1.2-0.9-2.1-2.1-2.1l0,0H34.7
		L34,7.8h0.1c-0.2-1.1-0.6-2.1-1-3.1H18.6c-0.5,1-0.8,2-1,3.1h0.2L17,9.9H5.5c-1.2,0-2.1,0.9-2.1,2.1l0,0v2.1h43.8L47.2,12L47.2,12z
		 M47.2,16.2H3.4v25c0,1.2,0.9,2.1,2,2.1c0,0,0,0,0,0h39.7c1.2,0,2.1-0.9,2.1-2.1l0,0V16.2z M43.1,21.4c-0.6,0-1-0.4-1-1s0.4-1,1-1
		s1,0.4,1,1C44.1,20.9,43.6,21.4,43.1,21.4C43.1,21.4,43.1,21.4,43.1,21.4L43.1,21.4z M25.3,39.1c-5.2,0-9.4-4.2-9.4-9.4
		c0-5.2,4.2-9.4,9.4-9.4s9.4,4.2,9.4,9.4S30.5,39.1,25.3,39.1L25.3,39.1z M25.3,22.4c-4,0-7.3,3.3-7.3,7.3c0,4,3.3,7.3,7.3,7.3
		c4,0,7.3-3.3,7.3-7.3C32.6,25.7,29.4,22.4,25.3,22.4z"/>
	<path class="st0" d="M45.2,45.9H5.5c-2.6,0-4.7-2.1-4.7-4.7V12c0-2.6,2.1-4.7,4.7-4.7H15c0.8-3.6,1.7-5.2,3-5.2h15.6
		c1.2,0,2,1.5,3,5.2h8.5c2.6,0,4.7,2.1,4.7,4.7v29.2C49.8,43.8,47.7,45.9,45.2,45.9z M5.5,8.3c-2,0-3.7,1.6-3.7,3.7v29.2
		c0,2,1.6,3.7,3.7,3.7h39.7h0c2,0,3.7-1.7,3.7-3.7V12c0-2-1.6-3.7-3.7-3.7h-9.3l-0.1-0.4c-1.1-4.5-1.9-4.8-2.1-4.8H18
		c-0.5,0-1.4,1.3-2.1,4.8l-0.1,0.4H5.5z M45.2,43.8H5.5c-1.5,0-2.6-1.2-2.6-2.6V15.7h44.8v25.5C47.8,42.6,46.6,43.8,45.2,43.8z
		 M3.9,16.7v24.5c0,0.9,0.7,1.6,1.6,1.6h39.7c0.9,0,1.6-0.7,1.6-1.6V16.7H3.9z M25.3,39.6c-5.5,0-9.9-4.4-9.9-9.9
		c0-5.5,4.4-9.9,9.9-9.9c5.5,0,9.9,4.4,9.9,9.9C35.2,35.2,30.8,39.6,25.3,39.6z M25.3,20.9c-4.9,0-8.9,4-8.9,8.9
		c0,4.9,4,8.9,8.9,8.9c4.9,0,8.9-4,8.9-8.9C34.2,24.8,30.2,20.9,25.3,20.9z M25.3,37.5c-4.3,0-7.8-3.5-7.8-7.8s3.5-7.8,7.8-7.8h0
		c4.3,0,7.8,3.5,7.8,7.8C33.1,34,29.6,37.5,25.3,37.5z M25.3,22.9c-3.7,0-6.8,3.1-6.8,6.8s3.1,6.8,6.8,6.8c3.7,0,6.8-3,6.8-6.8
		C32.1,26,29.1,22.9,25.3,22.9L25.3,22.9z M43.1,21.9L43.1,21.9c-0.8,0-1.5-0.7-1.5-1.5c0-0.8,0.7-1.5,1.5-1.5s1.5,0.7,1.5,1.5
		S43.9,21.9,43.1,21.9z M43.1,19.9c-0.3,0-0.5,0.2-0.5,0.5c0,0.3,0.2,0.5,0.5,0.5c0.3,0,0.5-0.2,0.5-0.5
		C43.6,20.1,43.4,19.9,43.1,19.9z M47.7,14.6H2.9V12c0-1.4,1.2-2.6,2.6-2.6h11.1L17,8.3H17l0.1-0.6c0.2-1.1,0.6-2.2,1-3.2l0.1-0.3
		h15.2l0.1,0.3c0.5,1,0.8,2.1,1,3.2l0.1,0.6h-0.1L35,9.4h10.1c1.4,0,2.6,1.2,2.6,2.6L47.7,14.6z M3.9,13.6h42.8v-1.8
		c-0.1-0.8-0.8-1.4-1.6-1.4H34.3l-1-3.1h0.2c-0.2-0.7-0.4-1.4-0.7-2.1H18.9c-0.3,0.7-0.5,1.4-0.7,2.1h0.3l-1.1,3.1H5.5
		c-0.9,0-1.6,0.7-1.6,1.6V13.6z"/>
</g>
</svg>
