<?xml version="1.0" encoding="utf-8"?>
<!-- Generator: Adobe Illustrator 20.1.0, SVG Export Plug-In . SVG Version: 6.00 Build 0)  -->
<svg version="1.1" id="Layer_1" xmlns="http://www.w3.org/2000/svg" xmlns:xlink="http://www.w3.org/1999/xlink" x="0px" y="0px"
	 viewBox="0 0 48 50.8" style="enable-background:new 0 0 48 50.8;" xml:space="preserve">
<style type="text/css">
	.st0{fill:#1D1D26;}
</style>
<title>carat-right-556</title>
<g>
	<path class="st0" d="M12.1,50.4c-0.2,0-0.4,0-0.6-0.1c-1-0.4-1.6-1.5-1.2-2.5c0.2-0.6,0.3-0.8,22.8-22.5L10.7,3.8
		c-0.8-0.8-0.8-2-0.1-2.8c0.8-0.8,2-0.8,2.8-0.1l23.8,22.8c0.4,0.4,0.6,0.9,0.6,1.4s-0.2,1.1-0.6,1.4c-8.9,8.6-22.4,21.7-23.5,22.9
		C13.4,50.1,12.8,50.4,12.1,50.4z"/>
</g>
</svg>
