<?xml version="1.0" encoding="utf-8"?>
<!-- Generator: Adobe Illustrator 20.1.0, SVG Export Plug-In . SVG Version: 6.00 Build 0)  -->
<svg version="1.1" id="Layer_1" xmlns="http://www.w3.org/2000/svg" xmlns:xlink="http://www.w3.org/1999/xlink" x="0px" y="0px"
	 viewBox="0 0 52.2 48" style="enable-background:new 0 0 52.2 48;" xml:space="preserve">
<style type="text/css">
	.st0{fill:#1D1D26;}
</style>
<title>carat-down-559</title>
<g>
	<path class="st0" d="M26.2,37.9c-0.5,0-1.1-0.2-1.4-0.6C16.1,28.4,3.1,14.9,1.8,13.7c-0.7-0.5-1-1.4-0.7-2.2c0.4-1,1.5-1.6,2.5-1.2
		c0.6,0.2,0.8,0.3,22.5,22.8l21.4-22.3c0.8-0.8,2-0.8,2.8-0.1s0.8,2,0.1,2.8L27.6,37.3C27.2,37.7,26.7,37.9,26.2,37.9
		C26.2,37.9,26.2,37.9,26.2,37.9z"/>
</g>
</svg>
