<?xml version="1.0" encoding="utf-8"?>
<!-- Generator: Adobe Illustrator 20.1.0, SVG Export Plug-In . SVG Version: 6.00 Build 0)  -->
<svg version="1.1" id="Layer_1" xmlns="http://www.w3.org/2000/svg" xmlns:xlink="http://www.w3.org/1999/xlink" x="0px" y="0px"
	 viewBox="0 0 51.3 48" style="enable-background:new 0 0 51.3 48;" xml:space="preserve">
<style type="text/css">
	.st0{fill:#1D1D26;}
</style>
<title>carat-up-558</title>
<g>
	<path class="st0" d="M2.8,37.9c-0.5,0-1-0.2-1.4-0.6c-0.8-0.8-0.8-2-0.1-2.8l22.8-23.8c0.4-0.4,0.9-0.6,1.4-0.6
		c0.6,0,1.1,0.2,1.4,0.6c8.6,8.9,21.7,22.4,22.9,23.5c0.7,0.5,1,1.4,0.7,2.2c-0.4,1-1.5,1.6-2.5,1.2c-0.6-0.2-0.8-0.3-22.5-22.8
		L4.3,37.3C3.9,37.7,3.4,37.9,2.8,37.9z"/>
</g>
</svg>
