<?xml version="1.0" encoding="utf-8"?>
<!-- Generator: Adobe Illustrator 20.1.0, SVG Export Plug-In . SVG Version: 6.00 Build 0)  -->
<svg version="1.1" id="Layer_1" xmlns="http://www.w3.org/2000/svg" xmlns:xlink="http://www.w3.org/1999/xlink" x="0px" y="0px"
	 viewBox="0 0 48 52.7" style="enable-background:new 0 0 48 52.7;" xml:space="preserve">
<style type="text/css">
	.st0{fill:#1D1D26;}
</style>
<title>carat-left-557</title>
<g>
	<path class="st0" d="M35.9,51.7c-0.5,0-1-0.2-1.4-0.6L10.7,28.3c-0.4-0.4-0.6-0.9-0.6-1.4c0-0.5,0.2-1.1,0.6-1.4
		c8.9-8.6,22.4-21.7,23.6-22.9c0.5-0.7,1.4-1,2.3-0.7c1,0.4,1.6,1.5,1.2,2.6C37.5,4.9,37.5,5.1,15,26.8l22.3,21.4
		c0.8,0.8,0.8,2,0.1,2.8C36.9,51.5,36.4,51.7,35.9,51.7z"/>
</g>
</svg>
