<?xml version="1.0" encoding="utf-8"?>
<!-- Generator: Adobe Illustrator 20.1.0, SVG Export Plug-In . SVG Version: 6.00 Build 0)  -->
<svg version="1.1" id="Layer_1" xmlns="http://www.w3.org/2000/svg" xmlns:xlink="http://www.w3.org/1999/xlink" x="0px" y="0px"
	 viewBox="0 0 51 50.1" style="enable-background:new 0 0 51 50.1;" xml:space="preserve">
<style type="text/css">
	.st0{fill:#1D1D26;}
</style>
<title>check-1156</title>
<g>
	<path class="st0" d="M25.7,49.6c-13.5,0-24.5-11-24.5-24.5c0-13.5,11-24.5,24.5-24.5s24.5,11,24.5,24.5
		C50.2,38.6,39.2,49.6,25.7,49.6z M25.7,3.6c-11.9,0-21.5,9.6-21.5,21.5c0,11.9,9.6,21.5,21.5,21.5s21.5-9.6,21.5-21.5
		C47.2,13.2,37.6,3.6,25.7,3.6z"/>
</g>
<g>
	<rect x="17.7" y="23.1" transform="matrix(0.7071 -0.7071 0.7071 0.7071 -9.2181 27.0059)" class="st0" width="20.7" height="3"/>
</g>
<g>
	<rect x="17.3" y="25.5" transform="matrix(0.7078 -0.7064 0.7064 0.7078 -15.1834 21.8544)" class="st0" width="3" height="7.5"/>
</g>
</svg>
