<?xml version="1.0" encoding="utf-8"?>
<!-- Generator: Adobe Illustrator 20.1.0, SVG Export Plug-In . SVG Version: 6.00 Build 0)  -->
<svg version="1.1" id="Layer_1" xmlns="http://www.w3.org/2000/svg" xmlns:xlink="http://www.w3.org/1999/xlink" x="0px" y="0px"
	 viewBox="0 0 50.2 51" style="enable-background:new 0 0 50.2 51;" xml:space="preserve">
<style type="text/css">
	.st0{fill:#1D1D26;}
</style>
<title>close-1155</title>
<g>
	<path class="st0" d="M25.2,50C11.7,50,0.8,39,0.8,25.5C0.8,12,11.7,1,25.2,1c13.5,0,24.5,11,24.5,24.5C49.8,39,38.8,50,25.2,50z
		 M25.2,4C13.4,4,3.8,13.6,3.8,25.5C3.8,37.4,13.4,47,25.2,47c11.9,0,21.5-9.6,21.5-21.5C46.8,13.6,37.1,4,25.2,4z"/>
</g>
<g>
	<rect x="15" y="23.5" transform="matrix(0.7071 -0.7071 0.7071 0.7071 -10.3007 25.2217)" class="st0" width="20.7" height="3"/>
</g>
<g>
	<rect x="23.9" y="14.3" transform="matrix(0.7071 -0.7071 0.7071 0.7071 -10.3525 25.3467)" class="st0" width="3" height="21.7"/>
</g>
</svg>
