<?xml version="1.0" encoding="utf-8"?>
<!-- Generator: Adobe Illustrator 20.1.0, SVG Export Plug-In . SVG Version: 6.00 Build 0)  -->
<svg version="1.1" id="Layer_1" xmlns="http://www.w3.org/2000/svg" xmlns:xlink="http://www.w3.org/1999/xlink" x="0px" y="0px"
	 viewBox="0 0 48 48" style="enable-background:new 0 0 48 48;" xml:space="preserve">
<title>compose-1212</title>
<g>
	<path d="M43.5,1.8l2.7,2.7c1.9-1.9,2.3-2.3,1-3.7S45.4-0.1,43.5,1.8z"/>
	<path d="M46.2,4.9l-3.1-3.1l0.2-0.2c1.2-1.2,1.9-1.8,2.6-1.8c0,0,0,0,0,0c0.5,0,0.9,0.3,1.5,0.9c1.5,1.5,0.9,2.2-1,4L46.2,4.9z
		 M43.9,1.8l2.4,2.4C48,2.4,48.1,2.2,47.1,1c-0.5-0.5-0.8-0.7-1.1-0.7c0,0,0,0,0,0C45.4,0.3,44.8,0.9,43.9,1.8z"/>
</g>
<g>
	<path d="M15.9,32.2l2.8-6.6L43,1.2l3.9,3.9L22.2,29.6L15.9,32.2z M19.9,26.7l-1,2.4l2.4-1L44.5,5.1L43,3.6L19.9,26.7z"/>
	<path d="M15.4,32.7l3-7.3L43,0.8l4.2,4.2l-0.2,0.2L22.3,29.9L15.4,32.7z M18.8,25.7l-2.5,6l5.8-2.3L46.5,5.1L43,1.5L18.8,25.7z
		 M18.5,29.6l1.3-3.1L43,3.3l1.8,1.8L21.5,28.4L18.5,29.6z M20.2,26.8l-0.8,1.8l1.8-0.8L44.1,5.1L43,4L20.2,26.8z"/>
</g>
<g>
	<polygon points="21.9,28.9 17.4,30.7 17.4,30.7 19.2,26.2 	"/>
	<path d="M17,31.1l2.2-5.4l3.2,3.2L17,31.1z M19.3,26.6l-1.4,3.6l3.6-1.4L19.3,26.6z"/>
</g>
<g>
	<polygon points="37,47.9 0,47.9 0,10.9 30.3,10.9 30.3,12.6 1.7,12.6 1.7,46.2 35.3,46.2 35.3,17.5 37,17.5 	"/>
	<path d="M37.2,48.2H-0.2V10.7h30.8v2.2H2V46H35V17.2h2.2V48.2z M0.2,47.7h36.5V17.7h-1.2v28.7H1.5V12.4H30v-1.2H0.2V47.7z"/>
</g>
</svg>
