<svg id="Layer_1" data-name="Layer 1" xmlns="http://www.w3.org/2000/svg" viewBox="0 0 51.2 51"><defs><style>.cls-1{fill:#fff;}</style></defs><title>dashboard-white</title><polygon class="cls-1" points="43.8 50.1 7.3 50.1 7.3 25.1 9 25.1 9 48.4 42.2 48.4 42.2 25.1 43.8 25.1 43.8 50.1"/><polygon class="cls-1" points="44.8 51.1 6.3 51.1 6.3 24.1 10 24.1 10 47.4 41.2 47.4 41.2 24.1 44.8 24.1 44.8 51.1"/><polygon class="cls-1" points="2.7 27 1.6 25.8 25.6 2.1 49.6 25.8 48.4 27 25.6 4.5 2.7 27"/><polygon class="cls-1" points="2.7 28.4 0.2 25.8 25.6 0.7 51 25.8 48.4 28.4 25.6 5.9 2.7 28.4"/><path class="cls-1" d="M33,49.2H31.3V31.1a2,2,0,0,0-2-2H21.8a2,2,0,0,0-2,2V49.2H18.1V31.1a3.69,3.69,0,0,1,3.7-3.7h7.5A3.69,3.69,0,0,1,33,31.1Z"/><path class="cls-1" d="M34,50.2H30.3V31.1a.94.94,0,0,0-1-1H21.8a.94.94,0,0,0-1,1V50.2H17.1V31.1a4.69,4.69,0,0,1,4.7-4.7h7.5A4.69,4.69,0,0,1,34,31.1Z"/></svg>