<?xml version="1.0" encoding="utf-8"?>
<!-- Generator: Adobe Illustrator 20.1.0, SVG Export Plug-In . SVG Version: 6.00 Build 0)  -->
<svg version="1.1" id="Layer_1" xmlns="http://www.w3.org/2000/svg" xmlns:xlink="http://www.w3.org/1999/xlink" x="0px" y="0px"
	 viewBox="0 0 51.2 51" style="enable-background:new 0 0 51.2 51;" xml:space="preserve">
<style type="text/css">
	.st0{fill:#1D1D26;}
</style>
<title>Artboard 1</title>
<g>
	<polygon class="st0" points="43.8,50.1 7.3,50.1 7.3,25.1 9,25.1 9,48.4 42.2,48.4 42.2,25.1 43.8,25.1 	"/>
	<polygon class="st0" points="44.8,51.1 6.3,51.1 6.3,24.1 10,24.1 10,47.4 41.2,47.4 41.2,24.1 44.8,24.1 	"/>
</g>
<g>
	<polygon class="st0" points="2.7,27 1.6,25.8 25.6,2.1 49.6,25.8 48.4,27 25.6,4.5 	"/>
	<polygon class="st0" points="2.7,28.4 0.2,25.8 25.6,0.7 51,25.8 48.4,28.4 25.6,5.9 	"/>
</g>
<g>
	<path class="st0" d="M33,49.2h-1.7V31.1c0-1.1-0.9-2-2-2h-7.5c-1.1,0-2,0.9-2,2v18.1h-1.7V31.1c0-2,1.6-3.7,3.7-3.7h7.5
		c2,0,3.7,1.6,3.7,3.7V49.2z"/>
	<path class="st0" d="M34,50.2h-3.7V31.1c0-0.6-0.4-1-1-1h-7.5c-0.6,0-1,0.4-1,1v19.1h-3.7V31.1c0-2.6,2.1-4.7,4.7-4.7h7.5
		c2.6,0,4.7,2.1,4.7,4.7V50.2z"/>
</g>
</svg>
