<?xml version="1.0" encoding="utf-8"?>
<!-- Generator: Adobe Illustrator 20.1.0, SVG Export Plug-In . SVG Version: 6.00 Build 0)  -->
<svg version="1.1" id="Layer_1" xmlns="http://www.w3.org/2000/svg" xmlns:xlink="http://www.w3.org/1999/xlink" x="0px" y="0px"
	 viewBox="0 0 51.6 50.4" style="enable-background:new 0 0 51.6 50.4;" xml:space="preserve">
<style type="text/css">
	.st0{fill:#1D1D26;}
</style>
<title>download-1095</title>
<g>
	<path class="st0" d="M42.4,32.5h-14v-1.5h14c3.3,0.1,6.1-2.6,6.1-5.9s-2.6-6.1-5.9-6.1h-1.2l0.6-1.1c0.7-1.4,1-3,1-4.5
		c0-5.5-4.5-10-10-10c-3.2,0-6.2,1.5-8.1,4.1l-0.5,0.7l-0.6-0.6c-2.2-2.2-5.8-2.2-8,0c-1,1-1.6,2.3-1.6,3.7v0.8H13
		c-5.3,0.1-9.4,4.5-9.3,9.7c0.1,4.9,4,9,8.9,9.3h10.8v1.5l-11.6-0.1c-6.1-0.8-10.3-6.3-9.6-12.3c0.7-5.3,5.1-9.4,10.4-9.7
		c0.6-3.9,4.3-6.6,8.3-5.9c1.2,0.2,2.3,0.7,3.3,1.4C28.3,1,35.6,0.4,40.5,4.5c2.6,2.2,4.1,5.4,4.1,8.8c0,1.5-0.3,2.9-0.8,4.3
		c4.1,0.8,6.7,4.7,5.9,8.8C49,29.9,45.9,32.5,42.4,32.5L42.4,32.5z"/>
	<path class="st0" d="M41,33.5L41,33.5l-13.7,0v-3.5h15c2.8,0.1,5.1-2.1,5.1-4.9c0.1-2.8-2.1-5-4.9-5.1h-2.9l1.4-2.6
		c0.6-1.2,0.9-2.6,0.9-4c0-2.4-0.9-4.7-2.6-6.4c-1.7-1.7-4-2.6-6.4-2.7c0,0,0,0,0,0c-2.9,0-5.6,1.4-7.3,3.7l-1.2,1.7L23,8.2
		c-0.9-0.9-2.1-1.4-3.3-1.4c0,0,0,0,0,0c-1.2,0-2.4,0.5-3.3,1.4c-0.8,0.8-1.3,1.9-1.4,3l0,1.7H13c-4.7,0.1-8.4,4-8.3,8.7
		c0.1,4.4,3.6,8,8,8.3l11.7,0v3.5l-12.8-0.1c-3.2-0.4-6-2-8-4.6c-2-2.5-2.8-5.7-2.4-8.9c0.7-5.6,5.1-9.8,10.6-10.5
		c1.1-4,5.1-6.7,9.3-6c1.1,0.2,2.1,0.6,3,1.1c2.1-2.2,4.9-3.5,7.9-3.7c3.4-0.3,6.6,0.7,9.2,2.9c2.8,2.4,4.5,5.9,4.5,9.6
		c0,1.2-0.2,2.4-0.5,3.6c1.8,0.6,3.3,1.7,4.3,3.3c1.3,1.9,1.7,4.2,1.3,6.4c-0.8,4-4.3,6.9-8.3,6.9L41,33.5z"/>
</g>
<g>
	<polygon class="st0" points="25.9,48.5 17.8,40.5 18.9,39.4 25.9,46.3 32.8,39.4 33.9,40.5 	"/>
	<polygon class="st0" points="25.9,49.9 16.4,40.5 18.9,38 25.9,44.9 32.8,38 35.3,40.5 	"/>
</g>
<g>
	<rect x="25.1" y="17.3" class="st0" width="1.5" height="29.6"/>
	<rect x="24.1" y="16.3" class="st0" width="3.5" height="31.6"/>
</g>
</svg>
