<?xml version="1.0" encoding="utf-8"?>
<!-- Generator: Adobe Illustrator 20.1.0, SVG Export Plug-In . SVG Version: 6.00 Build 0)  -->
<svg version="1.1" id="Layer_1" xmlns="http://www.w3.org/2000/svg" xmlns:xlink="http://www.w3.org/1999/xlink" x="0px" y="0px"
	 viewBox="0 0 48 50.4" style="enable-background:new 0 0 48 50.4;" xml:space="preserve">
<style type="text/css">
	.st0{fill:#1D1D26;}
</style>
<title>duplicate-1096</title>
<g>
	<polygon class="st0" points="34.7,19.2 24.5,19.2 24.5,9.1 26.3,9.1 26.3,17.5 34.7,17.5 	"/>
	<path class="st0" d="M35.2,19.7H24V8.5h2.8V17h8.4V19.7z M25,18.7h9.2V18h-8.4V9.5H25V18.7z"/>
</g>
<g>
	<path class="st0" d="M35.7,49.5H6.1V8h20l9.7,9.7L35.7,49.5z M7.8,47.7H34V18.5l-8.7-8.7H7.8V47.7z"/>
	<path class="st0" d="M36.2,50H5.5V7.5h20.7l10,10L36.2,50z M6.5,49h28.7l0-31.1l-9.4-9.4H6.5V49z M34.5,48.2H7.3v-39h18.2l9,9V48.2
		z M8.3,47.2h25.2V18.7l-8.4-8.4H8.3V47.2z"/>
</g>
<g>
	<polygon class="st0" points="40.9,12.7 30.7,12.7 30.7,2.5 32.5,2.5 32.5,11 40.9,11 	"/>
	<path class="st0" d="M41.4,13.2H30.2V2H33v8.4h8.4V13.2z M31.2,12.2h9.2v-0.8H32V3h-0.8V12.2z"/>
</g>
<g>
	<polygon class="st0" points="42,43 34.7,43 34.7,41.2 40.2,41.2 40.2,12 31.5,3.3 14,3.3 14,8.9 12.3,8.9 12.3,1.5 32.2,1.5 
		42,11.2 	"/>
	<path class="st0" d="M42.5,43.5h-8.2v-2.8h5.5V12.2l-8.4-8.4H14.5v5.6h-2.8V1h20.7l10,10V43.5z M35.2,42.5h6.2v-31L32,2H12.8v6.4
		h0.8V2.8h18.2l9,9v30h-5.5V42.5z"/>
</g>
</svg>
