<?xml version="1.0" encoding="utf-8"?>
<!-- Generator: Adobe Illustrator 20.1.0, SVG Export Plug-In . SVG Version: 6.00 Build 0)  -->
<svg version="1.1" id="Layer_1" xmlns="http://www.w3.org/2000/svg" xmlns:xlink="http://www.w3.org/1999/xlink" x="0px" y="0px"
	 viewBox="0 0 50.4 50.1" style="enable-background:new 0 0 50.4 50.1;" xml:space="preserve">
<style type="text/css">
	.st0{fill:#1E1E1E;}
</style>
<title>edit-1194</title>
<g>
	<path class="st0" d="M44.1,3.1L44.1,3.1c0.8,0,1.6,0.4,2.2,1.1c1.3,1.1,1.4,3.1,0.3,4.4c-0.1,0.1-0.2,0.2-0.3,0.3L10.3,44l-6,1.8
		l1.7-6L41.6,4.2C42.3,3.5,43.2,3.1,44.1,3.1 M44.1,1.1c-1.5,0.1-2.8,0.7-3.9,1.7L4.3,38.7l-2.9,10l10-2.9l36.3-35.5
		c0,0,3.8-3.8,0-7.5C46.8,1.7,45.5,1.1,44.1,1.1z"/>
	<path class="st0" d="M0.6,49.4l3.2-11l0.1-0.1L39.8,2.4c1.2-1.1,2.7-1.7,4.2-1.8l0,0l0,0c1.5,0,3,0.7,4,1.8c4,4,0,8.2,0,8.2
		L11.6,46.2L0.6,49.4z M4.7,38.9l-2.6,9l9-2.6L47.4,9.9c0.1-0.1,3.3-3.5,0-6.8c-0.8-0.9-2-1.5-3.3-1.5c-1.3,0.1-2.6,0.6-3.6,1.5
		L4.7,38.9z M3.6,46.5l2-7l0.1-0.1L41.2,3.8C42,3.1,43,2.7,44,2.6l0,0.6l0-0.6c1,0.1,1.9,0.5,2.6,1.3c1.4,1.3,1.6,3.6,0.3,5.1
		c-0.1,0.1-0.2,0.2-0.3,0.3l-36,35.3L3.6,46.5z M6.5,40l-1.5,5l5-1.5L45.9,8.5c0.1-0.1,0.2-0.2,0.2-0.2c1-1.1,0.9-2.7-0.2-3.7
		c-0.5-0.6-1.2-0.9-1.9-1c-0.8,0.1-1.6,0.4-2.2,1L6.5,40z"/>
</g>
<g>
	<rect x="7.1" y="37.4" transform="matrix(0.7041 -0.7101 0.7101 0.7041 -27.1655 18.0656)" class="st0" width="2" height="8.4"/>
</g>
<g>
	<rect x="41" y="3.6" transform="matrix(0.7104 -0.7038 0.7038 0.7104 6.4166 31.9631)" class="st0" width="2" height="9.1"/>
</g>
</svg>
