<?xml version="1.0" encoding="utf-8"?>
<!-- Generator: Adobe Illustrator 20.1.0, SVG Export Plug-In . SVG Version: 6.00 Build 0)  -->
<svg version="1.1" id="Layer_1" xmlns="http://www.w3.org/2000/svg" xmlns:xlink="http://www.w3.org/1999/xlink" x="0px" y="0px"
	 viewBox="0 0 49.9 48" style="enable-background:new 0 0 49.9 48;" xml:space="preserve">
<style type="text/css">
	.st0{fill:#1D1D26;}
</style>
<g>
	<g>
		<path class="st0" d="M47.9,25h-6.4c0.1-0.3,0.1-0.7,0.1-1c0-0.4,0-0.7-0.1-1h6.4c0.6,0,1,0.5,1,1C48.9,24.6,48.4,25,47.9,25z
			 M47.9,9.4H20.6c0.1-0.3,0.1-0.7,0.1-1c0-0.4,0-0.7-0.1-1h27.3c0.6,0,1,0.5,1,1S48.4,9.4,47.9,9.4z M14.5,12.5
			c-2.3,0-4.2-1.9-4.2-4.2s1.9-4.2,4.2-4.2s4.2,1.9,4.2,4.2C18.6,10.7,16.8,12.5,14.5,12.5z M14.5,6.3c-1.2,0-2.1,0.9-2.1,2.1
			s0.9,2.1,2.1,2.1c1.1,0,2.1-0.9,2.1-2.1S15.6,6.3,14.5,6.3z M1.9,9.4c-0.6,0-1-0.5-1-1c0-0.6,0.5-1,1-1h6.4c0,0.2-0.1,0.6-0.1,0.9
			c0,0.4,0,0.7,0.1,1L1.9,9.4L1.9,9.4z M1.9,23h27.2C29,23.3,29,23.7,29,24c0,0.4,0,0.7,0.1,1H1.9c-0.6,0-1-0.5-1-1
			C0.9,23.4,1.4,23,1.9,23z M1.9,38.6h6.4c-0.1,0.3-0.1,0.7-0.1,1s0,0.7,0.1,1H1.9c-0.6,0-1-0.5-1-1S1.4,38.6,1.9,38.6z M14.5,35.5
			c2.3,0,4.2,1.9,4.2,4.2s-1.9,4.2-4.2,4.2s-4.2-1.9-4.2-4.2C10.3,37.3,12.2,35.5,14.5,35.5z M14.5,41.7c1.1,0,2.1-0.9,2.1-2.1
			s-0.9-2.1-2.1-2.1s-2.1,0.9-2.1,2.1S13.3,41.7,14.5,41.7z M31.2,24c0-2.3,1.9-4.2,4.2-4.2s4.2,1.9,4.2,4.2s-1.9,4.2-4.2,4.2
			S31.2,26.3,31.2,24z M37.4,24c0-1.2-0.9-2.1-2.1-2.1c-1.2,0-2.1,0.9-2.1,2.1s0.9,2.1,2.1,2.1S37.4,25.2,37.4,24z M47.9,38.6
			c0.6,0,1,0.5,1,1c0,0.6-0.5,1-1,1H20.6c0.1-0.3,0.1-0.7,0.1-1s0-0.7-0.1-1H47.9z"/>
		<path class="st0" d="M14.5,44.4c-2.6,0-4.7-2.1-4.7-4.7c0-2.6,2.1-4.7,4.7-4.7c2.6,0,4.7,2.1,4.7,4.7S17.1,44.4,14.5,44.4z
			 M14.5,36c-2.1,0-3.7,1.6-3.7,3.7c0,2,1.7,3.7,3.7,3.7s3.7-1.7,3.7-3.7S16.5,36,14.5,36z M14.5,42.2c-1.5,0-2.6-1.1-2.6-2.6
			S13,37,14.5,37s2.6,1.1,2.6,2.6C17.1,41,15.9,42.2,14.5,42.2z M14.5,38c-0.9,0-1.6,0.7-1.6,1.6c0,0.9,0.7,1.6,1.6,1.6
			c0.8,0,1.6-0.6,1.6-1.6C16.1,38.7,15.4,38,14.5,38z M47.9,41.1h-28l0.2-0.7c0.1-0.2,0.1-0.6,0.1-0.8s0-0.6-0.1-0.8l-0.2-0.7h28
			c0.8,0,1.5,0.7,1.5,1.5S48.7,41.1,47.9,41.1z M21.2,40.1h26.7c0.2,0,0.5-0.2,0.5-0.5c0-0.2-0.2-0.5-0.5-0.5H21.2
			c0,0.2,0,0.4,0,0.5S21.2,39.9,21.2,40.1z M9,41.1H1.9c-0.8,0-1.5-0.7-1.5-1.5c0-0.8,0.7-1.5,1.5-1.5H9l-0.2,0.7
			c-0.1,0.2-0.1,0.6-0.1,0.8c0,0.3,0,0.6,0.1,0.8L9,41.1z M1.9,39.1c-0.2,0-0.5,0.3-0.5,0.5c0,0.2,0.2,0.5,0.5,0.5h5.8
			c0-0.2,0-0.4,0-0.5s0-0.3,0-0.5H1.9z M35.4,28.7c-2.6,0-4.7-2.1-4.7-4.7s2.1-4.7,4.7-4.7c2.6,0,4.7,2.1,4.7,4.7S38,28.7,35.4,28.7
			z M35.4,20.3c-2,0-3.7,1.7-3.7,3.7c0,2,1.7,3.7,3.7,3.7s3.7-1.7,3.7-3.7C39.1,22,37.4,20.3,35.4,20.3z M35.3,26.6
			c-1.5,0-2.6-1.1-2.6-2.6s1.1-2.6,2.6-2.6s2.6,1.1,2.6,2.6S36.8,26.6,35.3,26.6z M35.3,22.4c-0.9,0-1.6,0.7-1.6,1.6
			c0,0.9,0.7,1.6,1.6,1.6c0.9,0,1.6-0.7,1.6-1.6C36.9,23.1,36.2,22.4,35.3,22.4z M47.9,25.5h-7.1l0.2-0.7c0.1-0.2,0.1-0.6,0.1-0.8
			c0-0.4,0-0.6-0.1-0.8l-0.2-0.7h7.1c0.8,0,1.5,0.7,1.5,1.5S48.7,25.5,47.9,25.5z M42.1,24.5h5.8c0.2,0,0.5-0.2,0.5-0.5
			c0-0.2-0.2-0.5-0.5-0.5h-5.8c0,0.2,0,0.3,0,0.5C42.1,24.1,42.1,24.3,42.1,24.5z M29.8,25.5H1.9c-0.8,0-1.5-0.7-1.5-1.5
			s0.7-1.5,1.5-1.5h27.9l-0.2,0.7c-0.1,0.2-0.1,0.6-0.1,0.8c0,0.4,0,0.6,0.1,0.8L29.8,25.5z M1.9,23.5c-0.2,0-0.5,0.2-0.5,0.5
			c0,0.2,0.2,0.5,0.5,0.5h26.6c0-0.2,0-0.3,0-0.5c0-0.1,0-0.3,0-0.5H1.9z M14.5,13c-2.6,0-4.7-2.1-4.7-4.7c0-2.6,2.1-4.7,4.7-4.7
			s4.7,2.1,4.7,4.7C19.1,11,17.1,13,14.5,13z M14.5,4.6c-2,0-3.7,1.7-3.7,3.7c0,2,1.7,3.7,3.7,3.7c2,0,3.6-1.6,3.7-3.7
			C18.2,6.3,16.5,4.6,14.5,4.6z M14.5,11c-1.5,0-2.6-1.1-2.6-2.6s1.1-2.6,2.6-2.6c1.4,0,2.6,1.2,2.6,2.6S15.9,11,14.5,11z M14.5,6.8
			c-0.9,0-1.6,0.7-1.6,1.6s0.7,1.6,1.6,1.6c0.8,0,1.6-0.6,1.6-1.6S15.3,6.8,14.5,6.8z M47.9,9.9h-28l0.2-0.7
			c0.1-0.2,0.1-0.6,0.1-0.8c0-0.4,0-0.6-0.1-0.8l-0.2-0.7h28c0.8,0,1.5,0.7,1.5,1.5C49.4,9.2,48.7,9.9,47.9,9.9z M21.2,8.9h26.7
			c0.2,0,0.5-0.3,0.5-0.5c0-0.2-0.2-0.5-0.5-0.5H21.2c0,0.2,0,0.3,0,0.5C21.2,8.5,21.2,8.7,21.2,8.9z M1.9,9.9L1.9,9.9
			c-0.8,0-1.5-0.7-1.5-1.5s0.7-1.5,1.5-1.5h6.9v0.5c0,0.1,0,0.3,0,0.4c0,0.2-0.1,0.3-0.1,0.5c0,0.4,0,0.6,0.1,0.8L9,9.8L1.9,9.9z
			 M1.9,7.9c-0.2,0-0.5,0.2-0.5,0.5c0,0.2,0.2,0.5,0.5,0.5l5.8-0.1c0-0.2,0-0.3,0-0.5c0-0.1,0-0.3,0-0.4H1.9z"/>
	</g>
</g>
</svg>
