<?xml version="1.0" encoding="utf-8"?>
<!-- Generator: Adobe Illustrator 20.1.0, SVG Export Plug-In . SVG Version: 6.00 Build 0)  -->
<svg version="1.1" id="Layer_1" xmlns="http://www.w3.org/2000/svg" xmlns:xlink="http://www.w3.org/1999/xlink" x="0px" y="0px"
	 viewBox="0 0 291.3 291.3" style="enable-background:new 0 0 291.3 291.3;" xml:space="preserve">
<style type="text/css">
	.st0{fill:#1D1D26;}
	.st1{fill:#FFFFFF;}
</style>
<g>
	<path class="st0" d="M145.7,0c80.1,0,145.7,65.5,145.7,145.7s-65.5,145.7-145.7,145.7S0,225.8,0,145.7S65.5,0,145.7,0z"/>
	<g>
		<polygon class="st1" points="219.4,121.1 219.4,137.5 235.8,137.5 235.8,153.9 219.4,153.9 219.4,170.2 203,170.2 203,153.9 
			186.6,153.9 186.6,137.5 203,137.5 203,121.1 		"/>
		<path class="st1" d="M71.9,186.6c-21.8-21.8-21.8-60.1,0.9-81.9c16.4-16.4,40.1-20,61-11.8l8.2,4.6l9.1,6.4l-14.6,14.6l-5.5-3.6
			c-12.7-8.2-31-6.4-42.8,5.5c-13.7,13.7-14.6,38.2,0,52.8c13.7,14.6,38.2,14.6,51,0c3.6-3.6,7.3-9.1,8.2-14.6v-1.8h-32.8v-18.2
			h51.9l0.9,4.6v12.7c-0.9,11.8-5.5,23.7-13.7,31.9C132,208.5,93.8,208.5,71.9,186.6z"/>
	</g>
</g>
</svg>
