<?xml version="1.0" encoding="utf-8"?>
<!-- Generator: Adobe Illustrator 20.1.0, SVG Export Plug-In . SVG Version: 6.00 Build 0)  -->
<svg version="1.1" id="Layer_1" xmlns="http://www.w3.org/2000/svg" xmlns:xlink="http://www.w3.org/1999/xlink" x="0px" y="0px"
	 viewBox="0 0 49.8 49.8" style="enable-background:new 0 0 49.8 49.8;" xml:space="preserve">
<style type="text/css">
	.st0{fill:#1D1D26;}
</style>
<title>help-511</title>
<g>
	<path class="st0" d="M24.8,49.4c-13.5,0-24.5-11-24.5-24.5s11-24.5,24.5-24.5c13.5,0,24.5,11,24.5,24.5S38.3,49.4,24.8,49.4z
		 M24.8,3.4C12.9,3.4,3.3,13,3.3,24.9s9.6,21.5,21.5,21.5c11.9,0,21.5-9.6,21.5-21.5S36.7,3.4,24.8,3.4z"/>
</g>
<g>
	<path class="st0" d="M24.9,40c-8.3,0-15.1-6.8-15.1-15.1c0-8.3,6.8-15.1,15.1-15.1c8.3,0,15.1,6.8,15.1,15.1
		C40,33.2,33.2,40,24.9,40z M24.9,12.8c-6.7,0-12.1,5.4-12.1,12.1c0,6.7,5.4,12.1,12.1,12.1C31.6,37,37,31.6,37,24.9
		C37,18.2,31.6,12.8,24.9,12.8z"/>
</g>
<g>
	<path class="st0" d="M21.5,12.9c-0.8,0-1.5-0.7-1.5-1.5V2.3c0-0.8,0.7-1.5,1.5-1.5S23,1.5,23,2.3v9.1C23,12.2,22.3,12.9,21.5,12.9z
		"/>
</g>
<g>
	<path class="st0" d="M28.2,12.9c-0.8,0-1.5-0.7-1.5-1.5V2.3c0-0.8,0.7-1.5,1.5-1.5s1.5,0.7,1.5,1.5v9.1
		C29.7,12.2,29,12.9,28.2,12.9z"/>
</g>
<g>
	<path class="st0" d="M21.5,49.1c-0.8,0-1.5-0.7-1.5-1.5v-9.1c0-0.8,0.7-1.5,1.5-1.5s1.5,0.7,1.5,1.5v9.1
		C23,48.4,22.3,49.1,21.5,49.1z"/>
</g>
<g>
	<path class="st0" d="M28.2,49.1c-0.8,0-1.5-0.7-1.5-1.5v-9.1c0-0.8,0.7-1.5,1.5-1.5s1.5,0.7,1.5,1.5v9.1
		C29.7,48.4,29,49.1,28.2,49.1z"/>
</g>
<g>
	<path class="st0" d="M11.2,29.8h-9c-0.8,0-1.5-0.7-1.5-1.5s0.7-1.5,1.5-1.5h9c0.8,0,1.5,0.7,1.5,1.5S12,29.8,11.2,29.8z"/>
</g>
<g>
	<path class="st0" d="M11.2,23.1h-9c-0.8,0-1.5-0.7-1.5-1.5s0.7-1.5,1.5-1.5h9c0.8,0,1.5,0.7,1.5,1.5S12,23.1,11.2,23.1z"/>
</g>
<g>
	<path class="st0" d="M47.5,29.8h-9.1c-0.8,0-1.5-0.7-1.5-1.5s0.7-1.5,1.5-1.5h9.1c0.8,0,1.5,0.7,1.5,1.5S48.3,29.8,47.5,29.8z"/>
</g>
<g>
	<path class="st0" d="M47.5,23.1h-9.1c-0.8,0-1.5-0.7-1.5-1.5s0.7-1.5,1.5-1.5h9.1c0.8,0,1.5,0.7,1.5,1.5S48.3,23.1,47.5,23.1z"/>
</g>
<g>
	<path class="st0" d="M24.8,49.4c-13.5,0-24.5-11-24.5-24.5s11-24.5,24.5-24.5c13.5,0,24.5,11,24.5,24.5S38.3,49.4,24.8,49.4z
		 M24.8,3.4C12.9,3.4,3.3,13,3.3,24.9s9.6,21.5,21.5,21.5c11.9,0,21.5-9.6,21.5-21.5S36.7,3.4,24.8,3.4z"/>
</g>
</svg>
