<svg id="Layer_1" data-name="Layer 1" xmlns="http://www.w3.org/2000/svg" viewBox="0 0 49.8 49.8"><defs><style>.cls-1{fill:#fff;}</style></defs><title>help-white</title><path class="cls-1" d="M24.8,49.4A24.5,24.5,0,1,1,49.3,24.9,24.54,24.54,0,0,1,24.8,49.4Zm0-46A21.5,21.5,0,1,0,46.3,24.9,21.47,21.47,0,0,0,24.8,3.4Z"/><path class="cls-1" d="M24.9,40A15.1,15.1,0,1,1,40,24.9,15.15,15.15,0,0,1,24.9,40Zm0-27.2A12.1,12.1,0,1,0,37,24.9,12.08,12.08,0,0,0,24.9,12.8Z"/><path class="cls-1" d="M21.5,12.9A1.54,1.54,0,0,1,20,11.4V2.3a1.5,1.5,0,0,1,3,0v9.1A1.54,1.54,0,0,1,21.5,12.9Z"/><path class="cls-1" d="M28.2,12.9a1.54,1.54,0,0,1-1.5-1.5V2.3a1.5,1.5,0,0,1,3,0v9.1A1.54,1.54,0,0,1,28.2,12.9Z"/><path class="cls-1" d="M21.5,49.1A1.54,1.54,0,0,1,20,47.6V38.5a1.5,1.5,0,0,1,3,0v9.1A1.54,1.54,0,0,1,21.5,49.1Z"/><path class="cls-1" d="M28.2,49.1a1.54,1.54,0,0,1-1.5-1.5V38.5a1.5,1.5,0,0,1,3,0v9.1A1.54,1.54,0,0,1,28.2,49.1Z"/><path class="cls-1" d="M11.2,29.8h-9a1.5,1.5,0,0,1,0-3h9a1.5,1.5,0,1,1,0,3Z"/><path class="cls-1" d="M11.2,23.1h-9a1.5,1.5,0,0,1,0-3h9a1.5,1.5,0,0,1,0,3Z"/><path class="cls-1" d="M47.5,29.8H38.4a1.5,1.5,0,0,1,0-3h9.1a1.5,1.5,0,0,1,0,3Z"/><path class="cls-1" d="M47.5,23.1H38.4a1.5,1.5,0,0,1,0-3h9.1a1.5,1.5,0,0,1,0,3Z"/><path class="cls-1" d="M24.8,49.4A24.5,24.5,0,1,1,49.3,24.9,24.54,24.54,0,0,1,24.8,49.4Zm0-46A21.5,21.5,0,1,0,46.3,24.9,21.47,21.47,0,0,0,24.8,3.4Z"/></svg>