<svg id="Layer_1" data-name="Layer 1" xmlns="http://www.w3.org/2000/svg" viewBox="0 0 50.4 49.9"><defs><style>.cls-1{fill:#fff;}</style></defs><title>invite-white</title><path class="cls-1" d="M46.6,49.5H3.4a3.08,3.08,0,0,1-3-3V15.8a3.08,3.08,0,0,1,3-3h.5L25,27.6,46.1,12.7h.5a3.08,3.08,0,0,1,3,3V46.5A3.08,3.08,0,0,1,46.6,49.5ZM3.4,16.1V46.5H46.6V16L25,31.2Z"/><path class="cls-1" d="M9.6,17.2h-3V3.5a3,3,0,0,1,3-3H40.5a3.08,3.08,0,0,1,3,3V17.1h-3V3.5H9.6Z"/><rect class="cls-1" x="16.4" y="9.6" width="17.2" height="3"/><rect class="cls-1" x="16.4" y="15.6" width="17.2" height="3"/></svg>