<svg id="Layer_1" data-name="Layer 1" xmlns="http://www.w3.org/2000/svg" viewBox="0 0 49.9 49.5"><defs><style>.cls-1{fill:#fff;}</style></defs><title>invoices-white</title><path class="cls-1" d="M29.9,13.1H16.1a1.5,1.5,0,0,1,0-3H29.9a1.5,1.5,0,1,1,0,3Z"/><path class="cls-1" d="M29.9,20.9H16.1a1.5,1.5,0,0,1,0-3H29.9a1.5,1.5,0,1,1,0,3Z"/><path class="cls-1" d="M29.9,28.7H16.1a1.5,1.5,0,0,1,0-3H29.9a1.5,1.5,0,1,1,0,3Z"/><path class="cls-1" d="M32.4,49.2H14.2a1.5,1.5,0,0,1,0-3H32.4c2.2,0,4-2.1,4-4.6V8.2a1.5,1.5,0,0,1,3,0V41.6C39.4,45.7,36.2,49.2,32.4,49.2Z"/><path class="cls-1" d="M8.7,38.1a1.54,1.54,0,0,1-1.5-1.5V8.2c0-4.1,3.2-7.6,7-7.6H42.9a1.54,1.54,0,0,1,1.5,1.5,1.54,1.54,0,0,1-1.5,1.5H14.2c-2.2,0-4,2.1-4,4.6V36.6A1.54,1.54,0,0,1,8.7,38.1Z"/><path class="cls-1" d="M33.6,49.1H6.9a6.74,6.74,0,0,1-6.5-7,6.74,6.74,0,0,1,6.5-7H33.5a1.5,1.5,0,0,1,0,3H6.9a4,4,0,0,0,0,8H33.6a1.5,1.5,0,1,1,0,3Z"/><path class="cls-1" d="M32.9,49.2a6.74,6.74,0,0,1-6.5-7,6.74,6.74,0,0,1,6.5-7,6.74,6.74,0,0,1,6.5,7A6.74,6.74,0,0,1,32.9,49.2Zm0-11a4,4,0,0,0,0,8,4,4,0,0,0,0-8Z"/><path class="cls-1" d="M42.9,14.6a6.74,6.74,0,0,1-6.5-7,6.74,6.74,0,0,1,6.5-7,6.74,6.74,0,0,1,6.5,7A6.74,6.74,0,0,1,42.9,14.6Zm0-11a3.74,3.74,0,0,0-3.5,4,3.8,3.8,0,0,0,3.5,4,3.74,3.74,0,0,0,3.5-4A3.8,3.8,0,0,0,42.9,3.6Z"/></svg>