<?xml version="1.0" encoding="utf-8"?>
<!-- Generator: Adobe Illustrator 20.1.0, SVG Export Plug-In . SVG Version: 6.00 Build 0)  -->
<svg version="1.1" id="Layer_1" xmlns="http://www.w3.org/2000/svg" xmlns:xlink="http://www.w3.org/1999/xlink" x="0px" y="0px"
	 viewBox="0 0 49.9 49.5" style="enable-background:new 0 0 49.9 49.5;" xml:space="preserve">
<style type="text/css">
	.st0{fill:#1D1D26;}
</style>
<g>
	<g>
		<path class="st0" d="M29.9,13.1H16.1c-0.8,0-1.5-0.7-1.5-1.5s0.7-1.5,1.5-1.5h13.8c0.8,0,1.5,0.7,1.5,1.5S30.7,13.1,29.9,13.1z"/>
	</g>
	<g>
		<path class="st0" d="M29.9,20.9H16.1c-0.8,0-1.5-0.7-1.5-1.5s0.7-1.5,1.5-1.5h13.8c0.8,0,1.5,0.7,1.5,1.5S30.7,20.9,29.9,20.9z"/>
	</g>
	<g>
		<path class="st0" d="M29.9,28.7H16.1c-0.8,0-1.5-0.7-1.5-1.5s0.7-1.5,1.5-1.5h13.8c0.8,0,1.5,0.7,1.5,1.5S30.7,28.7,29.9,28.7z"/>
	</g>
	<g>
		<g>
			<path class="st0" d="M32.4,49.2H14.2c-0.8,0-1.5-0.7-1.5-1.5s0.7-1.5,1.5-1.5h18.2c2.2,0,4-2.1,4-4.6V8.2c0-0.8,0.7-1.5,1.5-1.5
				s1.5,0.7,1.5,1.5v33.4C39.4,45.7,36.2,49.2,32.4,49.2z"/>
		</g>
		<g>
			<path class="st0" d="M8.7,38.1c-0.8,0-1.5-0.7-1.5-1.5V8.2c0-4.1,3.2-7.6,7-7.6h28.7c0.8,0,1.5,0.7,1.5,1.5s-0.7,1.5-1.5,1.5
				H14.2c-2.2,0-4,2.1-4,4.6v28.4C10.2,37.4,9.5,38.1,8.7,38.1z"/>
		</g>
		<g>
			<path class="st0" d="M33.6,49.1H6.9c-3.6,0-6.5-3.1-6.5-7s2.9-7,6.5-7h26.6c0.8,0,1.5,0.7,1.5,1.5s-0.7,1.5-1.5,1.5H6.9
				c-1.9,0-3.5,1.8-3.5,4s1.6,4,3.5,4h26.7c0.8,0,1.5,0.7,1.5,1.5S34.4,49.1,33.6,49.1z"/>
		</g>
		<g>
			<path class="st0" d="M32.9,49.2c-3.6,0-6.5-3.1-6.5-7s2.9-7,6.5-7s6.5,3.1,6.5,7S36.5,49.2,32.9,49.2z M32.9,38.2
				c-1.9,0-3.5,1.8-3.5,4s1.6,4,3.5,4s3.5-1.8,3.5-4S34.8,38.2,32.9,38.2z"/>
		</g>
		<g>
			<path class="st0" d="M42.9,14.6c-3.6,0-6.5-3.1-6.5-7c0-3.9,2.9-7,6.5-7c3.6,0,6.5,3.1,6.5,7C49.4,11.5,46.5,14.6,42.9,14.6z
				 M42.9,3.6c-2,0-3.5,1.8-3.5,4c0,2.2,1.6,4,3.5,4c2,0,3.5-1.8,3.5-4C46.4,5.4,44.8,3.6,42.9,3.6z"/>
		</g>
	</g>
</g>
</svg>
