<?xml version="1.0" encoding="utf-8"?>
<!-- Generator: Adobe Illustrator 20.1.0, SVG Export Plug-In . SVG Version: 6.00 Build 0)  -->
<svg version="1.1" id="Layer_1" xmlns="http://www.w3.org/2000/svg" xmlns:xlink="http://www.w3.org/1999/xlink" x="0px" y="0px"
	 viewBox="0 0 50.9 48" style="enable-background:new 0 0 50.9 48;" xml:space="preserve">
<style type="text/css">
	.st0{fill:#1D1D26;}
</style>
<g>
	<g>
		<path class="st0" d="M10.6,39.1c-5.4,0-9.9-4.6-9.9-10.1v-1.5h19.8V29C20.5,34.6,16.1,39.1,10.6,39.1z M3.9,30.5
			c0.7,3.2,3.5,5.6,6.7,5.6c3.3,0,6.1-2.4,6.7-5.6H3.9z"/>
	</g>
	<g>
		<rect x="23.7" y="0.6" class="st0" width="3" height="46"/>
	</g>
	<g>
		<rect x="16.2" y="45.1" class="st0" width="18.1" height="3"/>
	</g>
	<g>
		<rect x="6.1" y="4" transform="matrix(0.9861 -0.166 0.166 0.9861 -0.6953 2.6831)" class="st0" width="19.3" height="3"/>
	</g>
	<g>
		<path class="st0" d="M17.6,29.1l-7-18.3l-7,18.3l-2.8-1.1l8.4-22c0.2-0.6,0.8-1,1.4-1s1.2,0.4,1.4,1l8.4,22L17.6,29.1z"/>
	</g>
	<g>
		<rect x="9.1" y="8.3" class="st0" width="3" height="20.7"/>
	</g>
	<g>
		<path class="st0" d="M39.8,39.1c-5.4,0-9.8-4.5-9.8-10.1v-1.5h19.7V29C49.7,34.7,45.4,39.1,39.8,39.1z M33.2,30.5
			c0.7,3.2,3.4,5.6,6.6,5.6c3.4,0,6.1-2.4,6.8-5.6H33.2z"/>
	</g>
	<g>
		<path class="st0" d="M46.8,29.1l-7-18.3l-6.9,18.3l-2.8-1.1l8.3-22c0.2-0.6,0.8-1,1.4-1c0,0,0,0,0,0c0.6,0,1.2,0.4,1.4,1l8.4,22
			L46.8,29.1z"/>
	</g>
	<g>
		<rect x="38.3" y="8.3" class="st0" width="3" height="20.7"/>
	</g>
	<g>
		<rect x="33.2" y="-4.1" transform="matrix(0.1661 -0.9861 0.9861 0.1661 23.5132 38.8047)" class="st0" width="3" height="19.3"/>
	</g>
</g>
</svg>
