<?xml version="1.0" encoding="utf-8"?>
<!-- Generator: Adobe Illustrator 20.1.0, SVG Export Plug-In . SVG Version: 6.00 Build 0)  -->
<svg version="1.1" id="Layer_1" xmlns="http://www.w3.org/2000/svg" xmlns:xlink="http://www.w3.org/1999/xlink" x="0px" y="0px"
	 viewBox="0 0 50.3 48" style="enable-background:new 0 0 50.3 48;" xml:space="preserve">
<style type="text/css">
	.st0{fill:#1D1D26;}
</style>
<title>link-749</title>
<g>
	<path class="st0" d="M13.7,33.7H8.5c-4.4,0-8-3.3-8-7.4v-4.7c0-4.1,3.6-7.4,8-7.4h5.2c4.4,0,8,3.3,8,7.4h-3c0-2.4-2.2-4.4-5-4.4
		H8.5c-2.8,0-5,2-5,4.4v4.7c0,2.4,2.2,4.4,5,4.4h5.2c2.8,0,5-2,5-4.4h3C21.7,30.4,18.1,33.7,13.7,33.7z"/>
</g>
<g>
	<path class="st0" d="M41.5,33.7h-5.2c-4.4,0-8-3.3-8-7.4h3c0,2.4,2.2,4.4,5,4.4h5.2c2.8,0,5-2,5-4.4v-4.7c0-2.4-2.2-4.4-5-4.4h-5.2
		c-2.8,0-5,2-5,4.4h-3c0-4.1,3.6-7.4,8-7.4h5.2c4.4,0,8,3.3,8,7.4v4.7C49.5,30.4,45.9,33.7,41.5,33.7z"/>
</g>
<g>
	<rect x="15.2" y="22.5" class="st0" width="19.5" height="3"/>
</g>
</svg>
