<?xml version="1.0" encoding="utf-8"?>
<!-- Generator: Adobe Illustrator 20.1.0, SVG Export Plug-In . SVG Version: 6.00 Build 0)  -->
<svg version="1.1" id="Layer_1" xmlns="http://www.w3.org/2000/svg" xmlns:xlink="http://www.w3.org/1999/xlink" x="0px" y="0px"
	 viewBox="0 0 50.2 50.6" style="enable-background:new 0 0 50.2 50.6;" xml:space="preserve">
<style type="text/css">
	.st0{fill:#1D1D26;}
</style>
<title>link-750</title>
<g>
	<path class="st0" d="M12.4,50.2c-2.1,0-4.2-0.8-5.7-2.3l-3.9-3.8c-3.3-3.3-3.1-8.9,0.5-12.4l4.3-4.3c3.6-3.6,9.2-3.8,12.4-0.5
		L18,28.9c-2.1-2.1-5.8-1.9-8.2,0.5l-4.3,4.3c-2.4,2.4-2.6,6.1-0.5,8.2l3.9,3.8c2.1,2.1,5.8,1.9,8.2-0.5l4.3-4.3
		c2.4-2.4,2.6-6.1,0.5-8.2l2.1-2.1c3.3,3.3,3,8.8-0.5,12.4l-4.3,4.3C17.3,49.3,14.8,50.2,12.4,50.2z"/>
</g>
<g>
	<path class="st0" d="M35.7,27c-2.1,0-4.2-0.8-5.7-2.3l2.1-2.1c2.1,2.1,5.8,1.9,8.2-0.5l4.3-4.3c2.4-2.4,2.6-6.1,0.5-8.2l-3.9-3.9
		c-2.1-2.1-5.8-1.9-8.2,0.5l-4.3,4.3c-1.3,1.3-2,2.9-2,4.6c0,1.4,0.5,2.7,1.4,3.6L26,20.9c-1.5-1.5-2.3-3.5-2.3-5.7
		c0-2.5,1-4.9,2.9-6.7l4.3-4.3c3.6-3.6,9.2-3.8,12.4-0.5l3.9,3.9c3.3,3.3,3,8.9-0.5,12.4l-4.3,4.3C40.5,26.1,38,27,35.7,27z"/>
</g>
<g>
	<rect x="13.5" y="24.3" transform="matrix(0.7071 -0.7071 0.7071 0.7071 -10.8906 25.2176)" class="st0" width="23" height="3"/>
</g>
</svg>
