<?xml version="1.0" encoding="utf-8"?>
<!-- Generator: Adobe Illustrator 20.1.0, SVG Export Plug-In . SVG Version: 6.00 Build 0)  -->
<svg version="1.1" id="Layer_1" xmlns="http://www.w3.org/2000/svg" xmlns:xlink="http://www.w3.org/1999/xlink" x="0px" y="0px"
	 viewBox="0 0 50 50" style="enable-background:new 0 0 50 50;" xml:space="preserve">
<style type="text/css">
	.st0{fill:#1D1D26;}
</style>
<title>list-641</title>
<g>
	<path class="st0" d="M41.1,49.7h-32c-4.7,0-8.5-3.8-8.5-8.5v-32c0-4.7,3.8-8.5,8.5-8.5h32c4.7,0,8.5,3.8,8.5,8.5v32
		C49.6,45.9,45.8,49.7,41.1,49.7z M9.1,3.7c-3,0-5.5,2.5-5.5,5.5v32c0,3,2.5,5.5,5.5,5.5h32c3,0,5.5-2.5,5.5-5.5v-32
		c0-3-2.5-5.5-5.5-5.5H9.1z"/>
</g>
<g>
	<path class="st0" d="M19.2,22.3H7.9V11h11.4V22.3z M10.9,19.3h5.4V14h-5.4V19.3z"/>
</g>
<g>
	<path class="st0" d="M19.2,39.3H7.9V28h11.4V39.3z M10.9,36.3h5.4V31h-5.4V36.3z"/>
</g>
<g>
	<rect x="22.9" y="15.2" class="st0" width="18" height="3"/>
</g>
<g>
	<rect x="22.9" y="31.6" class="st0" width="18" height="3"/>
</g>
</svg>
