<?xml version="1.0" encoding="utf-8"?>
<!-- Generator: Adobe Illustrator 20.1.0, SVG Export Plug-In . SVG Version: 6.00 Build 0)  -->
<svg version="1.1" id="Layer_1" xmlns="http://www.w3.org/2000/svg" xmlns:xlink="http://www.w3.org/1999/xlink" x="0px" y="0px"
	 viewBox="0 0 48 51.5" style="enable-background:new 0 0 48 51.5;" xml:space="preserve">
<style type="text/css">
	.st0{fill:#1D1D26;}
</style>
<title>location-1224</title>
<g>
	<path class="st0" d="M24,46.4c0,0-16.3-19.6-16.3-28.6C7.7,8.8,15,1.5,24,1.5s16.3,7.3,16.3,16.3c0,0,0,0,0,0
		C40.3,26.9,24,46.4,24,46.4z M24,3.5c-7.9,0-14.3,6.4-14.3,14.3C9.7,25.7,24,43.4,24,43.4s14.3-17.6,14.3-25.5
		C38.3,9.9,31.9,3.5,24,3.5z M24,27c-5.1,0-9.2-4.1-9.2-9.2s4.1-9.2,9.2-9.2s9.2,4.1,9.2,9.2v0C33.2,22.9,29.1,27,24,27z M24,10.7
		c-3.9,0-7.2,3.2-7.2,7.1S20.1,25,24,25s7.1-3.2,7.1-7.2l0,0C31.1,13.9,27.9,10.7,24,10.7L24,10.7z M16.8,39.9
		c0.4,0.6,0.9,1.2,1.3,1.8c-4.4,0.5-7.4,1.5-7.4,2.7c0,1.7,5.9,3.1,13.3,3.1s13.3-1.4,13.3-3.1c0-1.2-3-2.2-7.4-2.7l1.3-1.8
		c4.8,0.9,8.1,2.6,8.1,4.5c0,2.8-6.9,5.1-15.3,5.1S8.7,47.2,8.7,44.4C8.7,42.4,12,40.8,16.8,39.9L16.8,39.9z"/>
	<path class="st0" d="M24,50c-7.7,0-15.8-2-15.8-5.6c0-2.1,3-3.9,8.1-4.9v-1.1l0.9,1.2c0.4,0.6,0.9,1.2,1.3,1.8L19,42l-0.9,0.1
		c-4.8,0.5-6.9,1.6-6.9,2.2c0,0.9,4.3,2.5,12.5,2.6l-0.1-0.2C22.9,46,7.2,26.9,7.2,17.8c0-4.5,1.8-8.7,4.9-11.9
		C15.3,2.8,19.5,1,24,1c4.5,0,8.7,1.8,11.9,4.9s4.9,7.4,4.9,11.9c0,9.1-15.8,28.1-16.5,28.9l-0.1,0.2c8.2,0,12.5-1.7,12.5-2.6
		c0-0.6-2.1-1.7-6.9-2.2L29,42l2-2.7l0.3,0.1c5.3,1,8.5,2.8,8.5,5C39.8,47.9,31.8,50,24,50z M16.6,40.4c-4.4,0.8-7.4,2.4-7.4,4
		c0,2.2,6,4.6,14.8,4.6c8.7,0,14.8-2.4,14.8-4.6c0-1.5-3-3.1-7.4-4l-0.6,0.8c2.9,0.4,6.9,1.3,6.9,3.1c0,2.6-8.2,3.6-13.8,3.6
		c-5.5,0-13.8-0.9-13.8-3.6c0-1.8,4-2.7,6.9-3.1C17,41,16.8,40.7,16.6,40.4z M24,2c-4.2,0-8.2,1.6-11.2,4.6c-3,3-4.6,7-4.6,11.2
		c0,8,13.4,24.8,15.8,27.8c2.5-3,15.8-19.8,15.8-27.8c0-4.2-1.6-8.2-4.6-11.2S28.2,2,24,2z M24,44.2l-0.4-0.5
		C23,43,9.2,25.8,9.2,17.8C9.2,9.7,15.8,3,24,3c8.2,0,14.8,6.6,14.8,14.8c0,8-13.8,25.1-14.4,25.8L24,44.2z M24,4
		c-7.6,0-13.8,6.2-13.8,13.8c0,6.9,11.5,21.8,13.8,24.7c2.3-2.9,13.8-17.8,13.8-24.7C37.8,10.2,31.6,4,24,4z M24,27.5
		c-5.3,0-9.7-4.3-9.7-9.7s4.3-9.7,9.7-9.7c5.3,0,9.7,4.3,9.7,9.7S29.3,27.5,24,27.5z M24,9.1c-4.8,0-8.7,3.9-8.7,8.7
		s3.9,8.7,8.7,8.7c4.8,0,8.7-3.9,8.7-8.7S28.8,9.1,24,9.1z M24,25.5c-4.2,0-7.6-3.4-7.6-7.6s3.4-7.6,7.6-7.6l0.5,0
		c4,0.3,7.1,3.6,7.2,7.6C31.7,22,28.2,25.5,24,25.5z M23.5,11.2c-3.4,0.3-6.1,3.1-6.1,6.6c0,3.7,3,6.6,6.6,6.6s6.7-3,6.7-6.6
		c0-3.6-3-6.6-6.7-6.6L23.5,11.2z"/>
</g>
</svg>
