<?xml version="1.0" encoding="utf-8"?>
<!-- Generator: Adobe Illustrator 20.1.0, SVG Export Plug-In . SVG Version: 6.00 Build 0)  -->
<svg version="1.1" id="Layer_1" xmlns="http://www.w3.org/2000/svg" xmlns:xlink="http://www.w3.org/1999/xlink" x="0px" y="0px"
	 viewBox="0 0 49.8 49.8" style="enable-background:new 0 0 49.8 49.8;" xml:space="preserve">
<style type="text/css">
	.st0{fill:#1D1D26;}
</style>
<title>logout-555</title>
<g>
	<path class="st0" d="M46.1,26.3H29.3c-0.8,0-1.5-0.7-1.5-1.5s0.7-1.5,1.5-1.5h16.8c0.8,0,1.5,0.7,1.5,1.5S46.9,26.3,46.1,26.3z"/>
</g>
<g>
	<path class="st0" d="M39.2,34.7c-0.8,0-1.5-0.7-1.5-1.5c0-0.7,0-0.7,7.9-8.4l-7.5-7.2c-0.6-0.6-0.6-1.5,0-2.1
		c0.6-0.6,1.5-0.6,2.1,0l8.6,8.3c0.3,0.3,0.5,0.7,0.5,1.1s-0.2,0.8-0.5,1.1c-3,2.9-7.9,7.6-8.5,8.2C40.1,34.5,39.7,34.7,39.2,34.7z"
		/>
</g>
<g>
	<path class="st0" d="M27.2,49.3H7.4c-4-0.1-7.1-3.3-7.1-7.3V7.6c0-4,3.1-7.2,7.1-7.3l19.8,0c4.1,0.1,7.1,3.4,7,7.3l0,11.4
		c0,0.8-0.7,1.5-1.5,1.5s-1.5-0.7-1.5-1.5V7.6c0.1-2.4-1.7-4.2-4-4.3l-19.8,0c-2.3,0.1-4.1,2-4.1,4.3V42c0,2.3,1.8,4.2,4.1,4.3
		l19.8,0c2.2,0,4-1.9,4-4.2V29.6c0-0.8,0.7-1.5,1.5-1.5s1.5,0.7,1.5,1.5v12.5C34.2,46.1,31.1,49.3,27.2,49.3z"/>
</g>
</svg>
