<svg id="Layer_1" data-name="Layer 1" xmlns="http://www.w3.org/2000/svg" viewBox="0 0 49.8 49.8"><defs><style>.cls-1{fill:#fff;}</style></defs><title>logout-white</title><path class="cls-1" d="M46.1,26.3H29.3a1.5,1.5,0,0,1,0-3H46.1a1.5,1.5,0,0,1,0,3Z"/><path class="cls-1" d="M39.2,34.7a1.54,1.54,0,0,1-1.5-1.5c0-.7,0-.7,7.9-8.4l-7.5-7.2a1.48,1.48,0,0,1,2.1-2.1l8.6,8.3a1.46,1.46,0,0,1,0,2.2c-3,2.9-7.9,7.6-8.5,8.2A1.29,1.29,0,0,1,39.2,34.7Z"/><path class="cls-1" d="M27.2,49.3H7.4A7.23,7.23,0,0,1,.3,42V7.6A7.23,7.23,0,0,1,7.4.3H27.2a7.08,7.08,0,0,1,7,7.3V19a1.5,1.5,0,0,1-3,0V7.6a4.08,4.08,0,0,0-4-4.3H7.4A4.29,4.29,0,0,0,3.3,7.6V42a4.29,4.29,0,0,0,4.1,4.3H27.2a4.12,4.12,0,0,0,4-4.2V29.6a1.5,1.5,0,1,1,3,0V42.1A7.07,7.07,0,0,1,27.2,49.3Z"/></svg>