<?xml version="1.0" encoding="utf-8"?>
<!-- Generator: Adobe Illustrator 20.1.0, SVG Export Plug-In . SVG Version: 6.00 Build 0)  -->
<svg version="1.1" id="Layer_1" xmlns="http://www.w3.org/2000/svg" xmlns:xlink="http://www.w3.org/1999/xlink" x="0px" y="0px"
	 viewBox="0 0 50.1 48" style="enable-background:new 0 0 50.1 48;" xml:space="preserve">
<style type="text/css">
	.st0{fill:#1D1D26;}
</style>
<title>message-1354</title>
<g>
	<path class="st0" d="M24.9,42.6c-2.3,0-4.5-0.3-6.8-0.8l-7.9,5.3v-8.8c-5.7-3.8-9.4-9.8-9.4-16.5c0-11.5,10.7-20.9,24-20.9
		s24,9.3,24,20.9S38.1,42.6,24.9,42.6z M24.9,3C12.8,3,3,11.4,3,21.8c0,6.4,3.7,12,9.4,15.4v2v4.2l3.3-2.4h-0.1l1.9-1.6
		c2.4,0.7,4.9,1.1,7.4,1.1c12.1,0,21.9-8.4,21.9-18.8S37,3,24.9,3z"/>
	<path class="st0" d="M9.8,48.1v-9.5c-6-4.1-9.4-10.2-9.4-16.8c0-11.8,11-21.4,24.5-21.4c13.5,0,24.5,9.6,24.5,21.4
		c0,11.8-11,21.4-24.5,21.4c-2.2,0-4.5-0.3-6.7-0.8L9.8,48.1z M24.9,1.4c-13,0-23.5,9.1-23.5,20.4c0,6.3,3.3,12.2,9.2,16.1l0.2,0.1
		v8.2l7.3-4.9l0.2,0.1c2.2,0.6,4.4,0.8,6.6,0.8c13,0,23.5-9.1,23.5-20.4C48.4,10.5,37.8,1.4,24.9,1.4z M11.9,44.3v-6.9
		C6,33.8,2.5,28,2.5,21.8c0-10.6,10-19.2,22.4-19.2c12.4,0,22.4,8.6,22.4,19.3C47.3,32.4,37.2,41,24.9,41c-2.5,0-4.9-0.4-7.3-1.1
		l-0.6,0.5h0.3L11.9,44.3z M24.9,3.5c-11.8,0-21.4,8.2-21.4,18.2c0,5.9,3.4,11.5,9.1,15l0.2,0.1v5.5l1.7-1.2l2.8-2.3l0.3,0.1
		c2.4,0.7,4.8,1.1,7.3,1.1c11.8,0,21.4-8.2,21.4-18.3C46.3,11.7,36.7,3.5,24.9,3.5z"/>
</g>
</svg>
