<?xml version="1.0" encoding="utf-8"?>
<!-- Generator: Adobe Illustrator 20.1.0, SVG Export Plug-In . SVG Version: 6.00 Build 0)  -->
<svg version="1.1" id="Layer_1" xmlns="http://www.w3.org/2000/svg" xmlns:xlink="http://www.w3.org/1999/xlink" x="0px" y="0px"
	 viewBox="0 0 52.4 48" style="enable-background:new 0 0 52.4 48;" xml:space="preserve">
<style type="text/css">
	.st0{fill:#1D1D26;}
</style>
<title>more-760</title>
<g>
	<path class="st0" d="M8.8,19.1c2.7,0,4.9,2.2,4.9,4.9s-2.2,4.9-4.9,4.9S3.8,26.7,3.8,24C3.9,21.3,6.1,19.1,8.8,19.1 M8.8,17.1
		c-3.8,0-6.9,3.1-6.9,6.9s3.1,6.9,6.9,6.9s6.9-3.1,6.9-6.9l0,0C15.7,20.2,12.6,17.1,8.8,17.1z"/>
	<path class="st0" d="M8.8,31.9c-4.4,0-7.9-3.6-7.9-7.9s3.6-7.9,7.9-7.9s7.9,3.6,7.9,7.9S13.1,31.9,8.8,31.9z M8.8,20.1
		c-2.2,0-3.9,1.8-3.9,3.9c0,2.2,1.8,3.9,3.9,3.9s3.9-1.8,3.9-3.9S10.9,20.1,8.8,20.1z M8.8,18.1c3.3,0,5.9,2.7,5.9,5.9
		C14.7,20.7,12,18.1,8.8,18.1z M8.8,18.1c-3.3,0-5.9,2.7-5.9,5.9C2.9,20.7,5.5,18.1,8.8,18.1z"/>
</g>
<g>
	<path class="st0" d="M25.9,19.1c2.7,0,4.9,2.2,4.9,4.9c0,2.7-2.2,4.9-4.9,4.9c-2.7,0-4.9-2.2-4.9-4.9
		C20.9,21.3,23.1,19.1,25.9,19.1 M25.8,17.1c-3.8,0-6.9,3.1-6.9,6.9c0,3.8,3.1,6.9,6.9,6.9c3.8,0,6.9-3.1,6.9-6.9
		C32.8,20.2,29.7,17.1,25.8,17.1L25.8,17.1z"/>
	<path class="st0" d="M25.8,31.9c-2.1,0-4.1-0.8-5.6-2.3c-1.5-1.5-2.3-3.5-2.3-5.6c0-2.1,0.8-4.1,2.3-5.6c1.5-1.5,3.5-2.3,5.6-2.3h0
		c4.4,0,7.9,3.6,7.9,7.9C33.8,28.4,30.2,31.9,25.8,31.9C25.9,31.9,25.9,31.9,25.8,31.9z M27.7,29.6c-0.6,0.2-1.2,0.3-1.8,0.3
		C26.4,29.9,27.1,29.8,27.7,29.6z M23,29.2c0.4,0.2,0.7,0.4,1.1,0.5C23.7,29.5,23.4,29.4,23,29.2z M30.8,20.8c0.6,0.9,0.9,2,0.9,3.2
		c0,1.6-0.6,3.1-1.7,4.2c-0.4,0.4-0.9,0.8-1.5,1.1c1.9-1,3.2-3,3.2-5.3C31.8,22.8,31.4,21.8,30.8,20.8z M25.8,18.1l0,2
		c-2.2,0-3.9,1.8-3.9,3.9c0,2.2,1.8,3.9,3.9,3.9c0,0,0,0,0,0c1,0,2-0.4,2.8-1.1c0.7-0.7,1.2-1.7,1.2-2.8s-0.4-2-1.1-2.8
		c-0.7-0.7-1.7-1.2-2.8-1.2L25.8,18.1C25.9,18.1,25.9,18.1,25.8,18.1l0-1L25.8,18.1C25.8,18.1,25.8,18.1,25.8,18.1L25.8,18.1z
		 M25.8,18.1c-1.6,0-3,0.6-4.1,1.7c-0.4,0.4-0.8,0.9-1.1,1.4C21.6,19.4,23.5,18.1,25.8,18.1z M25.8,18.1L25.8,18.1L25.8,18.1z"/>
</g>
<g>
	<path class="st0" d="M42.9,19.1c2.7,0,4.9,2.2,4.9,4.9s-2.2,4.9-4.9,4.9c-2.7,0-4.9-2.2-4.9-4.9v0C38,21.3,40.2,19.1,42.9,19.1
		 M42.9,17.1c-3.8,0-6.9,3.1-6.9,6.9s3.1,6.9,6.9,6.9c3.8,0,6.9-3.1,6.9-6.9C49.8,20.2,46.8,17.1,42.9,17.1L42.9,17.1z"/>
	<path class="st0" d="M42.9,31.9c-2.1,0-4.1-0.8-5.6-2.3C35.8,28.1,35,26.1,35,24c0-4.4,3.5-7.9,7.9-7.9h0c4.4,0,7.9,3.6,7.9,7.9
		C50.8,28.4,47.3,31.9,42.9,31.9C42.9,31.9,42.9,31.9,42.9,31.9z M42.9,29.9C42.9,29.9,42.9,29.9,42.9,29.9c3.3,0,5.9-2.7,5.9-5.9
		c0-3.3-2.7-5.9-5.9-5.9l0-1l0,1c3.3,0,5.9,2.7,5.9,5.9S46.2,29.9,42.9,29.9z M42.9,20.1c-2.2,0-3.9,1.8-3.9,3.9
		c0,2.2,1.8,3.9,3.9,3.9s3.9-1.8,3.9-3.9S45.1,20.1,42.9,20.1z M42.8,18.1c-1.3,0-2.5,0.5-3.4,1.2C40.3,18.6,41.5,18.1,42.8,18.1z
		 M42.8,18.1C42.8,18.1,42.8,18.1,42.8,18.1C42.8,18.1,42.8,18.1,42.8,18.1z M42.8,18.1C42.8,18.1,42.8,18.1,42.8,18.1
		C42.8,18.1,42.8,18.1,42.8,18.1z"/>
</g>
</svg>
