<?xml version="1.0" encoding="utf-8"?>
<!-- Generator: Adobe Illustrator 20.1.0, SVG Export Plug-In . SVG Version: 6.00 Build 0)  -->
<svg version="1.1" id="Layer_1" xmlns="http://www.w3.org/2000/svg" xmlns:xlink="http://www.w3.org/1999/xlink" x="0px" y="0px"
	 viewBox="0 0 48 50.4" style="enable-background:new 0 0 48 50.4;" xml:space="preserve">
<style type="text/css">
	.st0{fill:#1D1D26;}
</style>
<title>notification-1206</title>
<g>
	<path class="st0" d="M45.8,40.5c0-0.2,0-0.4-0.1-0.5c-0.5-3.5-2.4-6.5-5.3-8.4V22c0-6.9-4.4-13.1-10.9-15.4c0-3-2.4-5.4-5.4-5.4
		c-3,0-5.4,2.4-5.4,5.4C12,8.9,7.6,15.1,7.6,22v9.6c-2.9,1.9-4.9,5-5.3,8.4c-0.1,0.1-0.1,0.3-0.1,0.5c0,0.1,0,0.2,0.1,0.3
		c0,0.3-0.1,0.5-0.1,0.8h43.6c0-0.3,0-0.5-0.1-0.8C45.8,40.7,45.8,40.6,45.8,40.5z M4.6,39.4c0.6-2.5,2.1-4.6,4.2-6l1-0.7V22
		c0-6,3.8-11.4,9.5-13.4l1.4-0.5V6.6c0-1.8,1.5-3.3,3.3-3.3s3.3,1.5,3.3,3.3v1.5l1.4,0.5c5.7,2,9.5,7.3,9.5,13.4v10.8l1,0.7
		c2.1,1.4,3.6,3.5,4.2,6H4.6z"/>
	<path class="st0" d="M46.3,42.1H1.7v-0.5c0-0.2,0-0.3,0-0.5c0-0.1,0-0.2,0-0.3c0-0.1-0.1-0.2-0.1-0.4c0-0.2,0-0.5,0.1-0.6
		c0.5-3.5,2.4-6.6,5.3-8.5V22c0-7,4.4-13.3,10.9-15.8c0.2-3.1,2.8-5.6,5.9-5.6c0,0,0,0,0,0c3.2,0,5.7,2.5,5.9,5.6
		C36.5,8.7,40.9,15,40.9,22v9.3c2.9,2,4.8,5.1,5.3,8.6c0.1,0.2,0.1,0.4,0.1,0.7l0,0c0,0.1,0,0.2,0,0.2c0,0.3,0,0.5,0,0.8V42.1z
		 M2.7,41.1h42.6c0-0.1,0-0.1,0-0.2l0-0.1l0-0.1c0,0,0-0.1,0-0.1c0-0.1,0-0.2-0.1-0.3l-0.1-0.2c-0.4-3.3-2.3-6.3-5.1-8.1l-0.2-0.1
		V22c0-6.7-4.3-12.7-10.6-15l-0.3-0.1V6.6c0-2.7-2.2-4.9-4.9-4.9c0,0,0,0,0,0c-2.7,0-4.9,2.2-4.9,4.9v0.4L18.7,7
		C12.4,9.3,8.1,15.3,8.1,22v9.9L7.9,32c-2.8,1.8-4.7,4.8-5.1,8.1l-0.1,0.2c0,0.1-0.1,0.2-0.1,0.3c0,0,0,0.1,0,0.1l0,0.2
		C2.7,40.9,2.7,41,2.7,41.1z M44,39.9H4l0.1-0.6c0.6-2.6,2.2-4.8,4.4-6.3l0.8-0.5V22c0-6.2,3.9-11.8,9.8-13.9l1.1-0.4V6.6
		c0-2.1,1.7-3.8,3.8-3.8c2.1,0,3.8,1.7,3.8,3.8v1.1l1.1,0.4c5.9,2,9.9,7.6,9.9,13.9v10.5l0.8,0.5c2.2,1.5,3.8,3.7,4.4,6.3L44,39.9z
		 M5.3,38.9h37.5c-0.6-2.1-2-3.9-3.8-5.1l-1.2-0.8V22c0-5.8-3.7-11-9.2-12.9l-1.8-0.6V6.6c0-1.5-1.2-2.8-2.8-2.8s-2.8,1.2-2.8,2.8
		v1.9l-1.8,0.6C14,11,10.3,16.2,10.3,22v11.1l-1.2,0.8C7.3,35.1,5.9,36.8,5.3,38.9z"/>
</g>
<g>
	<path class="st0" d="M24,47.1c-1.8,0-3.3-1.5-3.3-3.3l0,0h-2.2c0,3,2.4,5.5,5.5,5.5s5.5-2.4,5.5-5.5h-2.2
		C27.3,45.6,25.8,47.1,24,47.1C24,47.1,24,47.1,24,47.1z"/>
	<path class="st0" d="M24,49.8c-3.3,0-6-2.7-6-6v-0.5h3.2v0.5c0,1.5,1.2,2.8,2.8,2.8s2.8-1.2,2.8-2.8v-0.5H30v0.5
		C30,47.1,27.3,49.8,24,49.8z M19.1,44.3c0.3,2.5,2.4,4.5,4.9,4.5s4.7-2,4.9-4.5h-1.2c-0.2,1.8-1.8,3.3-3.7,3.3s-3.5-1.4-3.7-3.3
		H19.1z"/>
</g>
</svg>
