<?xml version="1.0" encoding="utf-8"?>
<!-- Generator: Adobe Illustrator 20.1.0, SVG Export Plug-In . SVG Version: 6.00 Build 0)  -->
<svg version="1.1" id="Layer_1" xmlns="http://www.w3.org/2000/svg" xmlns:xlink="http://www.w3.org/1999/xlink" x="0px" y="0px"
	 viewBox="0 0 50.4 50.6" style="enable-background:new 0 0 50.4 50.6;" xml:space="preserve">
<style type="text/css">
	.st0{fill:#1D1D26;}
</style>
<g>
	<g>
		<g>
			<path class="st0" d="M41.2,49.9h-32c-4.6,0-8.5-3.9-8.5-8.5V17.5C0.7,12.8,4.5,9,9.2,9h32c4.7,0,8.5,3.8,8.5,8.5v23.9
				C49.7,46,45.8,49.9,41.2,49.9z M9.2,12c-3,0-5.5,2.5-5.5,5.5v23.9c0,3,2.5,5.5,5.5,5.5h32c3,0,5.5-2.5,5.5-5.5V17.5
				c0-3-2.5-5.5-5.5-5.5H9.2z"/>
		</g>
	</g>
	<g>
		<path class="st0" d="M38.7,10.7h-3V8.1c0-2.3-1.6-4.2-3.5-4.2H18.1c-1.9,0-3.5,2-3.5,4.2v2.6h-3V8.1c0-3.9,3-7.2,6.5-7.2h14.1
			c3.6,0,6.5,3.2,6.5,7.2V10.7z"/>
	</g>
	<g>
		<rect x="2.5" y="24.4" class="st0" width="45.5" height="3"/>
	</g>
	<g>
		<path class="st0" d="M31.6,39.3H18.9V24.4h12.7V39.3z M21.9,36.3h6.7v-8.9h-6.7V36.3z"/>
	</g>
	<g>
		<g>
			<rect x="8.9" y="16.9" class="st0" width="7" height="3"/>
		</g>
		<g>
			<rect x="34.7" y="16.9" class="st0" width="7" height="3"/>
		</g>
	</g>
</g>
</svg>
