<?xml version="1.0" encoding="utf-8"?>
<!-- Generator: Adobe Illustrator 20.1.0, SVG Export Plug-In . SVG Version: 6.00 Build 0)  -->
<svg version="1.1" id="Layer_1" xmlns="http://www.w3.org/2000/svg" xmlns:xlink="http://www.w3.org/1999/xlink" x="0px" y="0px"
	 viewBox="0 0 48 50.7" style="enable-background:new 0 0 48 50.7;" xml:space="preserve">
<style type="text/css">
	.st0{fill:#1D1D26;}
</style>
<title>payroll-063</title>
<g>
	<path class="st0" d="M23.8,43.5c-0.3,0-0.6-0.1-0.9-0.3l-12.6-8.7C9.7,34,9.5,33.1,10,32.4c0.5-0.7,1.4-0.9,2.1-0.4l12.6,8.7
		c0.7,0.5,0.9,1.4,0.4,2.1C24.8,43.2,24.3,43.5,23.8,43.5z"/>
</g>
<g>
	<path class="st0" d="M22.5,49.8c-0.3,0-0.6-0.1-0.9-0.3L5.7,38.2H2c-0.8,0-1.5-0.7-1.5-1.5s0.7-1.5,1.5-1.5h4.1
		c0.3,0,0.6,0.1,0.9,0.3l15.6,11.2l16.3-7.4c0.8-0.3,1.6,0,2,0.7c0.3,0.8,0,1.6-0.7,2l-17.1,7.7C22.9,49.8,22.7,49.8,22.5,49.8z"/>
</g>
<g>
	<path class="st0" d="M20.8,31.3c-0.2,0-0.5,0-0.7,0c-4.1-0.4-7.2-4-6.8-8.2c0.4-4.1,4-7.1,8.1-6.8c2,0.2,3.8,1.1,5.1,2.6
		c1.3,1.5,1.9,3.5,1.8,5.5c0,0,0,0.1,0,0.1C27.9,28.3,24.6,31.3,20.8,31.3z M20.8,19.3c-2.3,0-4.3,1.8-4.5,4.1
		c-0.2,2.5,1.6,4.7,4.1,4.9c2.5,0.2,4.7-1.6,4.9-4.1c0,0,0,0,0,0c0.1-1.2-0.3-2.4-1.1-3.3c-0.8-0.9-1.9-1.5-3.1-1.6
		C21,19.3,20.9,19.3,20.8,19.3z M26.7,24.3L26.7,24.3L26.7,24.3z"/>
</g>
<g>
	<path class="st0" d="M40,33c-0.2,0-0.5,0-0.7,0c-2-0.2-3.8-1.1-5.1-2.7s-1.9-3.5-1.7-5.5c0.4-4.1,4-7.1,8.1-6.8
		c4.1,0.3,7.2,3.9,6.9,8.1c0,0,0,0.1,0,0.1h0c-0.2,2-1.1,3.8-2.7,5.1C43.4,32.3,41.7,33,40,33z M40,21c-2.3,0-4.3,1.8-4.5,4.1
		c-0.1,1.2,0.3,2.4,1,3.3c0.8,0.9,1.9,1.5,3,1.6c1.2,0.1,2.4-0.3,3.3-1c0.9-0.8,1.5-1.9,1.6-3c0,0,0,0,0,0c0.2-2.5-1.7-4.7-4.1-4.9
		C40.2,21,40.1,21,40,21z"/>
</g>
<g>
	<path class="st0" d="M31.9,15.8c-0.2,0-0.5,0-0.7,0c-4.1-0.4-7.2-4-6.8-8.2c0.4-4.1,4-7.1,8-6.8c2,0.2,3.8,1.1,5.1,2.6
		c1.3,1.5,1.9,3.5,1.8,5.5c0,0,0,0.1,0,0.1h0C39,12.9,35.7,15.8,31.9,15.8z M31.9,3.8c-2.3,0-4.3,1.8-4.5,4.1
		c-0.2,2.5,1.6,4.7,4.1,4.9c2.5,0.2,4.7-1.6,4.9-4.1c0,0,0,0,0,0c0.1-1.2-0.3-2.4-1.1-3.3s-1.9-1.5-3.1-1.6
		C32.1,3.8,32,3.8,31.9,3.8z"/>
</g>
</svg>
