<?xml version="1.0" encoding="utf-8"?>
<!-- Generator: Adobe Illustrator 20.1.0, SVG Export Plug-In . SVG Version: 6.00 Build 0)  -->
<svg version="1.1" id="Layer_1" xmlns="http://www.w3.org/2000/svg" xmlns:xlink="http://www.w3.org/1999/xlink" x="0px" y="0px"
	 viewBox="0 0 48 50.9" style="enable-background:new 0 0 48 50.9;" xml:space="preserve">
<style type="text/css">
	.st0{fill:#1D1D26;}
</style>
<title>pin-outline-413</title>
<g>
	<path class="st0" d="M24,50c-0.5,0-0.9-0.2-1.2-0.6C22.1,48.5,7,27,7,18c-0.2-4.5,1.3-8.8,4.4-12.2s7.2-5.4,11.8-5.6
		C32.5-0.2,40.5,7,41,16.3c0,0.5,0,0.9,0,1.4c0,0.1,0,0.2,0,0.3c0,9-15.2,30.5-15.8,31.4C24.9,49.8,24.5,50,24,50z M24,3.2
		c-0.2,0-0.5,0-0.7,0c-3.7,0.2-7.2,1.8-9.7,4.6c-2.5,2.8-3.8,6.4-3.6,10.1c0,6.2,9.2,20.9,14,27.9c4.7-6.9,13.7-21.3,14-27.6
		c0-0.1,0-0.3,0-0.4c0-0.5,0-1,0-1.4C37.6,9,31.4,3.2,24,3.2z"/>
</g>
<g>
	<path class="st0" d="M24,24.8c-4.3,0-7.7-3.5-7.7-7.7s3.5-7.7,7.7-7.7c0,0,0,0,0,0c4.2,0,7.7,3.5,7.7,7.7c0,0,0,0,0,0
		C31.7,21.3,28.3,24.8,24,24.8z M24,12.3C24,12.3,24,12.3,24,12.3c-2.6,0-4.7,2.1-4.7,4.7s2.1,4.7,4.7,4.7c2.6,0,4.7-2.1,4.7-4.7v0
		C28.7,14.5,26.6,12.3,24,12.3z"/>
</g>
</svg>
