<?xml version="1.0" encoding="utf-8"?>
<!-- Generator: Adobe Illustrator 20.1.0, SVG Export Plug-In . SVG Version: 6.00 Build 0)  -->
<svg version="1.1" id="Layer_1" xmlns="http://www.w3.org/2000/svg" xmlns:xlink="http://www.w3.org/1999/xlink" x="0px" y="0px"
	 viewBox="0 0 49.6 49.7" style="enable-background:new 0 0 49.6 49.7;" xml:space="preserve">
<style type="text/css">
	.st0{fill:#1D1D26;}
</style>
<title>plus-1153</title>
<g>
	<path class="st0" d="M24.8,49.3c-13.5,0-24.5-11-24.5-24.5c0-13.5,11-24.5,24.5-24.5c13.5,0,24.5,11,24.5,24.5
		C49.2,38.3,38.3,49.3,24.8,49.3z M24.8,3.3C12.9,3.3,3.2,13,3.2,24.8c0,11.9,9.6,21.5,21.5,21.5c11.9,0,21.5-9.6,21.5-21.5
		C46.2,13,36.6,3.3,24.8,3.3z"/>
</g>
<g>
	<rect x="23.2" y="14.2" class="st0" width="3" height="20.7"/>
</g>
<g>
	<rect x="14.1" y="23" class="st0" width="21.7" height="3"/>
</g>
</svg>
