<?xml version="1.0" encoding="utf-8"?>
<!-- Generator: Adobe Illustrator 20.1.0, SVG Export Plug-In . SVG Version: 6.00 Build 0)  -->
<svg version="1.1" id="Layer_1" xmlns="http://www.w3.org/2000/svg" xmlns:xlink="http://www.w3.org/1999/xlink" x="0px" y="0px"
	 viewBox="0 0 48 49.4" style="enable-background:new 0 0 48 49.4;" xml:space="preserve">
<style type="text/css">
	.st0{fill:#1D1D26;}
</style>
<title>profile-1040</title>
<g>
	<path class="st0" d="M24,2.8c4.2,0,7.6,3.4,7.6,7.6S28.2,18,24,18s-7.6-3.4-7.6-7.6l0,0C16.4,6.3,19.8,2.8,24,2.8 M24,0.8
		c-5.3,0-9.6,4.3-9.6,9.6S18.7,20,24,20s9.6-4.3,9.6-9.6l0,0C33.6,5.1,29.3,0.8,24,0.8L24,0.8z"/>
	<path class="st0" d="M24,20.5c-5.6,0-10.1-4.5-10.1-10.1S18.4,0.3,24,0.3s10.1,4.5,10.1,10.1S29.6,20.5,24,20.5z M24,1.3
		c-5,0-9.1,4.1-9.1,9.1s4.1,9.1,9.1,9.1s9.1-4.1,9.1-9.1S29,1.3,24,1.3z M24,18.5c-4.5,0-8.1-3.6-8.1-8.1c0-4.4,3.7-8.1,8.1-8.1
		c4.5,0,8.1,3.6,8.1,8.1S28.5,18.5,24,18.5z M24,3.3c-3.8,0-7.1,3.3-7.1,7.1c0,3.9,3.2,7.1,7.1,7.1s7.1-3.2,7.1-7.1S27.9,3.3,24,3.3
		z"/>
</g>
<g>
	<path class="st0" d="M24,25c10.6,0,19.5,9.4,21,21.8H3C4.5,34.4,13.4,25,24,25 M24,23C11.6,23,1.6,34.4,0.8,48.8h46.5
		C46.4,34.4,36.3,23,24,23z"/>
	<path class="st0" d="M47.8,49.3H0.3l0-0.5C1.1,34,11.5,22.5,24,22.5c12.4,0,22.9,11.5,23.8,26.3L47.8,49.3z M1.3,48.3h45.4
		c-1.1-13.9-11-24.8-22.8-24.8C12.2,23.5,2.3,34.3,1.3,48.3z M45.6,47.3H2.4l0.1-0.6C4,34.1,13.3,24.5,24,24.5
		c10.7,0,20,9.6,21.5,22.2L45.6,47.3z M3.6,46.3h40.9C42.8,34.4,34.1,25.5,24,25.5S5.2,34.4,3.6,46.3z"/>
</g>
</svg>
