<?xml version="1.0" encoding="utf-8"?>
<!-- Generator: Adobe Illustrator 20.1.0, SVG Export Plug-In . SVG Version: 6.00 Build 0)  -->
<svg version="1.1" id="Layer_1" xmlns="http://www.w3.org/2000/svg" xmlns:xlink="http://www.w3.org/1999/xlink" x="0px" y="0px"
	 viewBox="0 0 49.6 48" style="enable-background:new 0 0 49.6 48;" xml:space="preserve">
<style type="text/css">
	.st0{fill:#1D1D26;}
</style>
<title>reviews-482</title>
<g>
	<path class="st0" d="M10.5,47.4c-0.3,0-0.6-0.1-0.9-0.3c-0.5-0.3-0.7-0.9-0.6-1.5l2.6-15.1L0.7,19.9c-0.4-0.4-0.6-1-0.4-1.5
		c0.2-0.5,0.6-0.9,1.2-1l15-2.2l6.8-13.7c0.3-0.5,0.8-0.8,1.3-0.8c0,0,0,0,0,0c0.6,0,1.1,0.3,1.3,0.8l6.8,13.7L48,17.3
		c0.6,0.1,1,0.5,1.2,1c0.2,0.5,0,1.1-0.4,1.5L37.9,30.5l2.6,15.1c0.1,0.6-0.1,1.1-0.6,1.5c-0.5,0.3-1.1,0.4-1.6,0.1l-13.5-7.1
		l-13.6,7.1C11,47.3,10.7,47.4,10.5,47.4z M5,19.8l9.2,9.1c0.4,0.3,0.5,0.8,0.4,1.3l-2.2,12.9l11.6-6.1c0.4-0.2,1-0.2,1.4,0L37,43.2
		l-2.2-12.9c-0.1-0.5,0.1-1,0.4-1.3l9.3-9.1L31.7,18c-0.5-0.1-0.9-0.4-1.1-0.8L24.8,5.5l-5.8,11.7c-0.2,0.4-0.6,0.7-1.1,0.8L5,19.8z
		"/>
</g>
</svg>
