<svg id="Layer_1" data-name="Layer 1" xmlns="http://www.w3.org/2000/svg" viewBox="0 0 49.6 48"><defs><style>.cls-1{fill:#fff;}</style></defs><title>reviews-white</title><path class="cls-1" d="M10.5,47.4a1.61,1.61,0,0,1-.9-.3A1.43,1.43,0,0,1,9,45.6l2.6-15.1L.7,19.9a1.44,1.44,0,0,1-.4-1.5,1.55,1.55,0,0,1,1.2-1l15-2.2L23.3,1.5A1.56,1.56,0,0,1,24.6.7h0a1.34,1.34,0,0,1,1.3.8l6.8,13.7L48,17.3a1.55,1.55,0,0,1,1.2,1,1.44,1.44,0,0,1-.4,1.5L37.9,30.5l2.6,15.1a1.5,1.5,0,0,1-.6,1.5,1.54,1.54,0,0,1-1.6.1L24.8,40.1,11.2,47.2A1.85,1.85,0,0,1,10.5,47.4ZM5,19.8l9.2,9.1a1.25,1.25,0,0,1,.4,1.3L12.4,43.1,24,37a1.71,1.71,0,0,1,1.4,0L37,43.2,34.8,30.3a1.48,1.48,0,0,1,.4-1.3l9.3-9.1L31.7,18a1.55,1.55,0,0,1-1.1-.8L24.8,5.5,19,17.2a1.55,1.55,0,0,1-1.1.8Z"/></svg>