<?xml version="1.0" encoding="utf-8"?>
<!-- Generator: Adobe Illustrator 20.1.0, SVG Export Plug-In . SVG Version: 6.00 Build 0)  -->
<svg version="1.1" id="Layer_1" xmlns="http://www.w3.org/2000/svg" xmlns:xlink="http://www.w3.org/1999/xlink" x="0px" y="0px"
	 viewBox="0 0 50.3 50.8" style="enable-background:new 0 0 50.3 50.8;" xml:space="preserve">
<style type="text/css">
	.st0{fill:#1D1D26;}
</style>
<title>settings-885</title>
<g>
	<path class="st0" d="M27.3,49.8h-4.4c-1.6,0-2.9-1.3-2.9-3V44c-1.7-0.5-3.2-1.1-4.6-1.9l-2.1,2c-1.2,1-2.8,1-3.9,0l-0.1-0.1L6.2,41
		c-1-1.2-1-2.8,0-3.9l2.1-2.2c-0.8-1.4-1.4-2.9-1.9-4.6H3.6c-1.6,0-2.9-1.3-2.9-2.9v-4.5c0-0.8,0.3-1.6,0.9-2.1
		C2.2,20.2,3,19.9,3.8,20h2.7c0.5-1.7,1.1-3.2,1.9-4.6l-2-2.1c-1-1.2-1-2.8,0-3.9l0.1-0.1l3.1-3.1c1.2-1,2.8-1,3.9,0l0.1,0.1l2,2
		c1.3-0.8,2.9-1.4,4.6-1.9V3.6c0-1.6,1.3-2.9,2.9-2.9h4.2c1.6,0,2.9,1.3,2.9,3v2.8c1.7,0.5,3.2,1.1,4.6,1.9l2.2-2c1.2-1,2.8-1,4-0.1
		L41,6.4l3.1,3.1c1,1.2,1,2.8,0,3.9L44,13.5l-2,2.1c0.8,1.3,1.4,2.9,1.9,4.6h2.8c0.8,0,1.7,0.4,2.2,1c0.5,0.6,0.7,1.3,0.7,2v4.4
		c0,0.8-0.3,1.6-0.9,2.1c-0.6,0.5-1.3,0.8-2.1,0.7h-2.7c-0.5,1.7-1.1,3.2-1.9,4.6l2.1,2.1c1,1.2,1,2.8,0,3.9l-0.1,0.1l-3.1,3.1
		c-1.2,1-2.8,1-3.9,0l-0.1-0.1l-2-2c-1.3,0.8-2.9,1.4-4.6,1.9v2.8C30.2,48.5,28.9,49.8,27.3,49.8z M23,46.8h4.2v-5.1l1.2-0.3
		c2.3-0.5,4.2-1.3,5.8-2.4l1-0.7l3.6,3.6l2.9-2.8l-3.6-3.8l0.7-1c1.1-1.6,1.9-3.5,2.4-5.8l0.3-1.2h5.2v-4.2h-5.1L41.2,22
		c-0.5-2.3-1.3-4.2-2.4-5.8l-0.7-1l3.6-3.7l-2.8-2.9L35,12.2l-1-0.7c-1.6-1.1-3.5-1.9-5.8-2.4l-1.2-0.3V3.7h-4l0,5.1l-1.2,0.3
		c-2.3,0.5-4.2,1.3-5.8,2.4l-1,0.7l-3.6-3.6l-2.9,2.8l3.6,3.7l-0.7,1c-1.1,1.6-1.9,3.5-2.4,5.8L8.9,23H3.7v4.2h5.1l0.3,1.2
		c0.5,2.3,1.3,4.2,2.4,5.8l0.7,1L8.5,39l2.9,2.8l3.7-3.6l1,0.7c1.6,1.1,3.5,1.9,5.8,2.4l1.2,0.3V46.8z M25.2,35.8
		c-5.8,0-10.5-4.7-10.5-10.5c0-5.8,4.7-10.5,10.5-10.5c5.8,0,10.5,4.7,10.5,10.5C35.7,31.1,31,35.8,25.2,35.8z M25.2,17.8
		c-4.2,0-7.5,3.3-7.5,7.5c0,4.2,3.3,7.5,7.5,7.5c4.1,0,7.5-3.4,7.5-7.5C32.7,21.1,29.4,17.8,25.2,17.8z"/>
</g>
</svg>
