<svg id="Layer_1" data-name="Layer 1" xmlns="http://www.w3.org/2000/svg" viewBox="0 0 50.3 50.8"><defs><style>.cls-1{fill:#fff;}</style></defs><title>settings-white</title><path class="cls-1" d="M27.3,49.8H22.9a2.93,2.93,0,0,1-2.9-3V44a21.13,21.13,0,0,1-4.6-1.9l-2.1,2a2.91,2.91,0,0,1-3.9,0L9.3,44,6.2,41a2.91,2.91,0,0,1,0-3.9l2.1-2.2a21.13,21.13,0,0,1-1.9-4.6H3.6A2.9,2.9,0,0,1,.7,27.4V22.9a2.72,2.72,0,0,1,.9-2.1A2.65,2.65,0,0,1,3.8,20H6.5a21.13,21.13,0,0,1,1.9-4.6l-2-2.1a2.91,2.91,0,0,1,0-3.9l.1-.1L9.6,6.2a2.91,2.91,0,0,1,3.9,0l.1.1,2,2a19.25,19.25,0,0,1,4.6-1.9V3.6A2.9,2.9,0,0,1,23.1.7h4.2a2.93,2.93,0,0,1,2.9,3V6.5a21.13,21.13,0,0,1,4.6,1.9l2.2-2a3.17,3.17,0,0,1,4-.1v.1l3.1,3.1a2.91,2.91,0,0,1,0,3.9l-.1.1-2,2.1a19.25,19.25,0,0,1,1.9,4.6h2.8a2.89,2.89,0,0,1,2.9,3v4.4a2.75,2.75,0,0,1-3,2.8H43.9A21.13,21.13,0,0,1,42,35l2.1,2.1a2.91,2.91,0,0,1,0,3.9l-.1.1-3.1,3.1a2.91,2.91,0,0,1-3.9,0l-.1-.1-2-2A19.25,19.25,0,0,1,30.3,44v2.8A3.07,3.07,0,0,1,27.3,49.8Zm-4.3-3h4.2V41.7l1.2-.3A16.09,16.09,0,0,0,34.2,39l1-.7,3.6,3.6,2.9-2.8-3.6-3.8.7-1a16.09,16.09,0,0,0,2.4-5.8l.3-1.2h5.2V23.1H41.6L41.2,22a16.09,16.09,0,0,0-2.4-5.8l-.7-1,3.6-3.7L38.9,8.6,35,12.2l-1-.7a16.09,16.09,0,0,0-5.8-2.4L27,8.8V3.7H23V8.8l-1.2.3A16.09,16.09,0,0,0,16,11.5l-1,.7L11.4,8.6,8.5,11.4l3.6,3.7-.7,1A16.09,16.09,0,0,0,9,21.9L8.9,23H3.7v4.2H8.8l.3,1.2a16.09,16.09,0,0,0,2.4,5.8l.7,1L8.5,39l2.9,2.8,3.7-3.6,1,.7a16.09,16.09,0,0,0,5.8,2.4l1.2.3v5.2Zm2.2-11A10.5,10.5,0,1,1,35.7,25.3,10.5,10.5,0,0,1,25.2,35.8Zm0-18a7.5,7.5,0,0,0,0,15,7.55,7.55,0,0,0,7.5-7.5A7.43,7.43,0,0,0,25.2,17.8Z"/></svg>