<?xml version="1.0" encoding="utf-8"?>
<!-- Generator: Adobe Illustrator 20.1.0, SVG Export Plug-In . SVG Version: 6.00 Build 0)  -->
<svg version="1.1" id="Layer_1" xmlns="http://www.w3.org/2000/svg" xmlns:xlink="http://www.w3.org/1999/xlink" x="0px" y="0px"
	 viewBox="0 0 55 52.8" style="enable-background:new 0 0 55 52.8;" xml:space="preserve">
<style type="text/css">
	.st0{fill:#1D1D26;}
</style>
<title>star-1205</title>
<g>
	<polygon class="st0" points="27.4,4 34.5,18.4 50.4,20.7 38.9,31.9 41.6,47.8 27.4,40.3 13.2,47.8 15.9,31.9 4.4,20.7 20.3,18.4 	
		"/>
	<path class="st0" d="M43.6,50.5L27.4,42l-16.2,8.5l3.1-18L1.2,19.7L19.3,17l8.1-16.4L35.5,17l18.1,2.6L40.5,32.4L43.6,50.5z
		 M27.4,38.6L39.6,45l-2.3-13.6l9.9-9.6l-13.7-2L27.4,7.4l-6.1,12.4l-13.7,2l9.9,9.6L15.2,45L27.4,38.6z"/>
</g>
</svg>
