<?xml version="1.0" encoding="utf-8"?>
<!-- Generator: Adobe Illustrator 21.0.0, SVG Export Plug-In . SVG Version: 6.00 Build 0)  -->
<svg version="1.1" id="Layer_1" xmlns="http://www.w3.org/2000/svg" xmlns:xlink="http://www.w3.org/1999/xlink" x="0px" y="0px"
	 viewBox="0 0 38.8 56" style="enable-background:new 0 0 38.8 56;" xml:space="preserve">
<style type="text/css">
	.st0{fill:#FFFFFF;}
</style>
<title>tempal-icon</title>
<path class="st0" d="M37.3,25.1c-3.7,13.4-13.1,23.1-13.1,23.1c-1,1-1.7,0.8-2.4-0.4c-0.6-0.9-3.5-7.3-3.4-11.1
	c2.9,3.3,4.6,7.3,4.8,7C26,38.6,32,31.1,37.3,25.1z"/>
<path class="st0" d="M38.8,17.5c0,1.5-0.2,3.1-0.8,4.5l-0.1-1.1c0-0.7-0.1-1.7-0.2-3c-0.1-1.5-0.5-2.9-1.2-4.3
	c-0.2-0.4-0.4-0.8-0.6-1.1l-0.2-0.3L35.5,12l-0.5-0.6c-0.6-0.8-1.3-1.5-2-2.2c-1.6-1.4-3.5-2.5-5.5-3.2c-2.3-0.8-4.6-1-7-0.7
	C19.4,5.4,18.2,5.6,17,6l-0.9,0.3c-0.3,0.1-0.6,0.3-0.8,0.4S14.7,7,14.4,7.1l-0.8,0.5c-0.5,0.3-1,0.7-1.5,1.1L11.8,9l0,0l0,0l0,0
	l-0.3,0.3l-0.8,0.8l-0.2,0.2l-0.1,0.2l-0.3,0.3c-0.2,0.2-0.4,0.4-0.6,0.7c-0.4,0.5-0.8,1-1.1,1.6c-0.7,1.1-1.3,2.2-1.7,3.4
	c-0.4,1.2-0.7,2.4-0.8,3.7c-0.2,2.6,0,5.2,0.6,7.7c0.6,2.5,1.3,5,2.2,7.4c0.9,2.3,1.8,4.5,2.7,6.6l2.5,5.6c0.7,1.7,1.4,3.2,1.9,4.4
	s0.9,2.2,1.1,2.9l0.4,1l0.2,0.3l0,0C7.8,43.8-0.7,31.2,0,19.7S10-0.7,20.8,0C30.1,0.6,38.6,7.9,38.8,17.5z"/>
</svg>
