<svg id="Layer_1" data-name="Layer 1" xmlns="http://www.w3.org/2000/svg" viewBox="0 0 38.79 56"><defs><style>.cls-1{fill:#1e1d26;}</style></defs><title>tempal-icon</title><path class="cls-1" d="M37.34,25.06c-3.72,13.4-13.12,23.14-13.12,23.14-1,1-1.68.78-2.43-.37-.6-.93-3.47-7.33-3.35-11.07,2.87,3.26,4.64,7.31,4.81,7C26,38.59,32,31.12,37.34,25.06Z"/><path class="cls-1" d="M38.79,17.5A11.3,11.3,0,0,1,38,22l-.09-1.08c0-.7-.12-1.74-.24-3a13,13,0,0,0-1.17-4.27,10,10,0,0,0-.63-1.12l-.17-.29L35.52,12l-.46-.61a14.27,14.27,0,0,0-2-2.18A15.36,15.36,0,0,0,27.56,6a16.31,16.31,0,0,0-7-.74A17.39,17.39,0,0,0,17,6l-.87.31c-.29.1-.56.27-.84.4s-.56.26-.84.41l-.79.5a11.32,11.32,0,0,0-1.51,1.1L11.84,9l0,0,0,0,0,0-.3.29-.81.77-.2.19-.15.17-.3.34c-.2.23-.41.44-.61.69a18.09,18.09,0,0,0-1.11,1.57,14.92,14.92,0,0,0-1.66,3.38,18.46,18.46,0,0,0-.79,3.69,25.56,25.56,0,0,0,.61,7.73,54.91,54.91,0,0,0,2.25,7.37c.88,2.34,1.82,4.54,2.71,6.58l2.47,5.59c.74,1.67,1.35,3.15,1.85,4.38s.85,2.2,1.09,2.87l.35,1,.19.3h0C7.85,43.84-.66,31.24,0,19.7S10-.66,20.78,0C30.08.57,38.63,7.91,38.79,17.5Z"/></svg>