<svg id="Layer_1" data-name="Layer 1" xmlns="http://www.w3.org/2000/svg" viewBox="0 0 163.07 56.36"><defs><style>.cls-1{fill:#1e1d26;}</style></defs><title>tempal-logo</title><g id="remachine_script" data-name="remachine script"><path class="cls-1" d="M51.5,22.3c0-.36,0-.71,0-1s0-.64,0-.9a3,3,0,0,1,1-2.62,3.28,3.28,0,0,1,2.19-.66,3.4,3.4,0,0,1,2.07.86,2,2,0,0,1,.66,2l-.39,2H59a3.57,3.57,0,0,1,2.14.51,1.4,1.4,0,0,1,.66,1.09,1.29,1.29,0,0,1-.7,1.05,3.47,3.47,0,0,1-2,.47H56.8c-.21,1.87-.39,3.94-.55,6.2s-.26,4.4-.31,6.4a48.25,48.25,0,0,0,.08,5c.1,1.32.34,2,.7,2s.74-.47,1.29-1.4,1.1-2,1.68-3.24,1.09-2.42,1.56-3.59.78-2,.94-2.38a1.22,1.22,0,0,1,.7-.94A1.72,1.72,0,0,1,63.94,33a1.54,1.54,0,0,1,.86.55,1.13,1.13,0,0,1,.12,1.13q-.47,1.56-1.25,4.05a32.5,32.5,0,0,1-2,4.83,16.39,16.39,0,0,1-2.81,4.06A5.2,5.2,0,0,1,55,49.37a3,3,0,0,1-2.42-1.17,7.92,7.92,0,0,1-1.4-3.08,23.24,23.24,0,0,1-.59-4.41c-.08-1.67-.09-3.38,0-5.15s.16-3.55.31-5.35.28-3.44.39-5H49.39a3.29,3.29,0,0,1-1.91-.47,1.41,1.41,0,0,1-.7-1,1.19,1.19,0,0,1,.58-1,3.44,3.44,0,0,1,2-.47Z"/><path class="cls-1" d="M75.05,34.24a5,5,0,0,1-1.56,1.41,10.34,10.34,0,0,1-2,.89,13.08,13.08,0,0,1-2.23.51q-1.13.16-2,.23a27.3,27.3,0,0,0-.27,3.2,15.78,15.78,0,0,0,.15,2.81,7.27,7.27,0,0,0,.62,2.11A2,2,0,0,0,69,46.49a2.73,2.73,0,0,0,2.18-.35,9.6,9.6,0,0,0,2.26-1.84,19.88,19.88,0,0,0,2.11-2.73c.67-1,1.27-2,1.79-3s1-1.84,1.32-2.65a15,15,0,0,0,.7-1.75,1.46,1.46,0,0,1,.74-.94,1.66,1.66,0,0,1,1-.16,1.19,1.19,0,0,1,.78.51A1.35,1.35,0,0,1,82,34.71c-.1.31-.29.92-.55,1.83a25.63,25.63,0,0,1-1.13,3.08,35.4,35.4,0,0,1-1.8,3.55A16.69,16.69,0,0,1,76,46.52a13.45,13.45,0,0,1-3.39,2.54,8.94,8.94,0,0,1-4.25,1A5.27,5.27,0,0,1,64,48.13a10.86,10.86,0,0,1-2.11-4.91,22.54,22.54,0,0,1-.2-6.36,27.6,27.6,0,0,1,1.4-6.36,16.42,16.42,0,0,1,2.65-4.92,4.58,4.58,0,0,1,3.55-2,4.84,4.84,0,0,1,3.31,1.29,9,9,0,0,1,2.23,3,10,10,0,0,1,.9,3.51A4,4,0,0,1,75.05,34.24ZM70.22,27.3c-.37.16-.75.82-1.17,2a35.52,35.52,0,0,0-1.17,4.25,7.7,7.7,0,0,0,1.72-.2,1.87,1.87,0,0,0,1.25-.82,2.93,2.93,0,0,0,.39-1.37,8.92,8.92,0,0,0,0-1.84,5.8,5.8,0,0,0-.39-1.56C70.62,27.35,70.42,27.19,70.22,27.3Z"/><path class="cls-1" d="M79.58,29.4a4.37,4.37,0,0,1,1.48-2.69,6.56,6.56,0,0,1,2.38-1.32,3.63,3.63,0,0,1,2.11-.08.89.89,0,0,1,.66,1.21q-.23,1.09-.55,3c-.21,1.25-.39,2.52-.55,3.82s-.28,2.54-.39,3.71-.16,2-.16,2.54a23.21,23.21,0,0,1,.78-2.26q.47-1.17,1-2.3a22.48,22.48,0,0,1,1.05-2.07,10.88,10.88,0,0,1,1-1.48,3.51,3.51,0,0,1,1.68-1.21,6,6,0,0,1,2.11-.43,2.37,2.37,0,0,1,1.6.55A1.29,1.29,0,0,1,94,31.9a10.67,10.67,0,0,0-.31,1.8c-.1.89-.21,1.85-.31,2.89a21.62,21.62,0,0,1,1.25-2.42c.52-.89,1-1.73,1.56-2.54l1.44-2.22a17.55,17.55,0,0,1,1.05-1.48,4,4,0,0,1,1.64-1.29,5,5,0,0,1,2.11-.51,2.84,2.84,0,0,1,1.72.51,1.78,1.78,0,0,1,.62,1.68c-.05.37-.14,1-.27,1.87s-.3,1.9-.51,3-.4,2.34-.58,3.59-.34,2.38-.47,3.4-.21,1.86-.23,2.53.06,1,.27,1,.73-.36,1.25-1.09a19.08,19.08,0,0,0,1.52-2.61c.49-1,1-2.07,1.4-3.16s.77-2,1-2.65a1.63,1.63,0,0,1,.74-1,1.3,1.3,0,0,1,1.76.39,1.36,1.36,0,0,1,.16,1.13,19.75,19.75,0,0,1-1.05,3.08,34.23,34.23,0,0,1-2,4,24,24,0,0,1-2.57,3.67,5,5,0,0,1-2.89,1.87A3.29,3.29,0,0,1,99.67,47a3.9,3.9,0,0,1-1.41-2,11.47,11.47,0,0,1-.5-3,22.89,22.89,0,0,1,.08-3.32q.15-1.64.39-2.92a12,12,0,0,1,.47-1.91,4,4,0,0,0-1.17,1.48q-.78,1.33-1.6,2.93T94.4,41.38c-.47,1-.78,1.7-.94,2.07v-.08a2.94,2.94,0,0,1-.74,1.05,4.55,4.55,0,0,1-1.37.94,3.58,3.58,0,0,1-1.44.35q-.66,0-.9-.78a9.34,9.34,0,0,1-.31-2.15q-.08-1.37-.08-2.65t0-2.34a5.36,5.36,0,0,0,0-1.29c-.26.11-.55.57-.86,1.4s-.64,1.77-1,2.81-.64,2.11-.9,3.2-.44,2-.55,2.57A2,2,0,0,1,84.3,48a3.91,3.91,0,0,1-1.95.51A3.3,3.3,0,0,1,80.47,48a1.75,1.75,0,0,1-.74-1.72,34.36,34.36,0,0,0,0-3.55q-.12-2.23-.23-4.64t-.12-4.76A27.1,27.1,0,0,1,79.58,29.4Z"/><path class="cls-1" d="M108.29,25.27a3.12,3.12,0,0,1,1-2.41,5.52,5.52,0,0,1,2.18-1.29,3.61,3.61,0,0,1,2.07-.08,1,1,0,0,1,.74,1.29q-.16.86-.27,2.26t-.28,3.2a8,8,0,0,1,2-1.4,5,5,0,0,1,2.62-.55,5.11,5.11,0,0,1,3.78,1.8A9.4,9.4,0,0,1,124,32a13.6,13.6,0,0,1,.24,4.84A15.79,15.79,0,0,1,123,41.57a10.24,10.24,0,0,1-2.62,3.55,4.93,4.93,0,0,1-3.7,1.21,5,5,0,0,1-2.81-.93l-.47-.31a3.09,3.09,0,0,1-.47-.39q-.16,3-.2,5.66t0,4.18a1.45,1.45,0,0,1-.9,1.32,4.48,4.48,0,0,1-1.91.51A3.81,3.81,0,0,1,108,56a1.18,1.18,0,0,1-.7-1.37q.16-1.56.31-4.13t.27-5.62q.11-3,.2-6.24c.05-2.14.09-4.11.12-5.93s0-3.39.08-4.72S108.29,25.73,108.29,25.27Zm6.24,6.55a14,14,0,0,0-1,3.51,14.58,14.58,0,0,0-.12,3.51,7.45,7.45,0,0,0,.78,2.81A2.25,2.25,0,0,0,115.78,43q.78.16,1.44-.78a8.05,8.05,0,0,0,1.09-2.38,20.9,20.9,0,0,0,.66-3.2,16.06,16.06,0,0,0,.12-3.32,8.75,8.75,0,0,0-.55-2.62,1.57,1.57,0,0,0-1.29-1.13,1.91,1.91,0,0,0-1.56.62A6.17,6.17,0,0,0,114.53,31.82Z"/><path class="cls-1" d="M135.43,26.59a4,4,0,0,1,1.91,1,7.9,7.9,0,0,1,1.37,1.72,2.28,2.28,0,0,1,1.56-.78,3.87,3.87,0,0,1,1.79.27,3.24,3.24,0,0,1,1.4,1.09,2.28,2.28,0,0,1,.39,1.76q-.31,1.4-.59,3.51c-.18,1.41-.3,2.76-.35,4.06a19.09,19.09,0,0,0,.12,3.35q.2,1.4.82,1.4c.31,0,.69-.41,1.13-1.21a27.27,27.27,0,0,0,1.33-2.85c.44-1.09.85-2.18,1.21-3.28a20.59,20.59,0,0,0,.7-2.49,1.62,1.62,0,0,1,.78-1.06,1.51,1.51,0,0,1,1.06-.15,1.46,1.46,0,0,1,.86.58,1.22,1.22,0,0,1,.12,1.17c-.11.31-.27.9-.51,1.75s-.53,1.81-.9,2.85-.79,2.12-1.29,3.24a14.65,14.65,0,0,1-1.72,3,7.43,7.43,0,0,1-2.18,2,3.26,3.26,0,0,1-2.61.31,4.93,4.93,0,0,1-3.27-2.73,12.72,12.72,0,0,1-1.72,3.4A6.34,6.34,0,0,1,134,50.7a5.16,5.16,0,0,1-2.89.23,6,6,0,0,1-3.59-2.81,14,14,0,0,1-1.79-5.07,21.13,21.13,0,0,1-.08-6,17.9,17.9,0,0,1,1.6-5.62,10.12,10.12,0,0,1,3.24-3.94A6.17,6.17,0,0,1,135.43,26.59Zm2,7.88a12.46,12.46,0,0,0-.58-2.58q-.43-1.25-1.29-1.4a2.27,2.27,0,0,0-2.22.9,8.79,8.79,0,0,0-1.6,3,21.18,21.18,0,0,0-.9,4.1,23.44,23.44,0,0,0-.16,4.22,12.11,12.11,0,0,0,.63,3.39q.51,1.41,1.52,1.56c.68.11,1.31-.26,1.91-1.1a12.23,12.23,0,0,0,1.56-3.19,24.89,24.89,0,0,0,1-4.33A18,18,0,0,0,137.46,34.47Z"/><path class="cls-1" d="M149.55,15.28a3,3,0,0,1,1-2.62,3.32,3.32,0,0,1,2.23-.66,3.47,3.47,0,0,1,2.11.86,2,2,0,0,1,.66,2q-.16.94-.51,3.67t-.67,6.28q-.31,3.55-.55,7.38t-.27,7.06a38.29,38.29,0,0,0,.24,5.31q.27,2.07,1.05,2.06c.31,0,.74-.57,1.29-1.71s1.09-2.44,1.64-3.9,1.05-2.87,1.52-4.25.78-2.27.93-2.69a1.23,1.23,0,0,1,.7-.94A1.72,1.72,0,0,1,162,33a1.53,1.53,0,0,1,.86.55,1.13,1.13,0,0,1,.12,1.13q-.47,1.56-1.25,4.37a43.57,43.57,0,0,1-2,5.54A20.09,20.09,0,0,1,157,49.37a4.89,4.89,0,0,1-3.9,2,3.37,3.37,0,0,1-3.16-2.22,18.13,18.13,0,0,1-1.44-5.66,54.77,54.77,0,0,1-.27-7.64q.12-4.21.43-8.23t.63-7.34Q149.55,17,149.55,15.28Z"/></g><path class="cls-1" d="M37.34,25.09c-3.72,13.4-13.12,23.14-13.12,23.14-1,1-1.68.78-2.43-.37-.6-.93-3.47-7.33-3.35-11.07,2.87,3.26,4.64,7.31,4.81,7C26,38.63,32,31.16,37.34,25.09Z"/><path class="cls-1" d="M38.79,17.53A11.3,11.3,0,0,1,38,22l-.09-1.08c0-.7-.12-1.74-.24-3a13,13,0,0,0-1.17-4.27,10,10,0,0,0-.63-1.12l-.17-.29L35.52,12l-.46-.61a14.27,14.27,0,0,0-2-2.18A15.36,15.36,0,0,0,27.56,6a16.31,16.31,0,0,0-7-.74A17.39,17.39,0,0,0,17,6.07l-.87.31c-.29.1-.56.27-.84.4s-.56.26-.84.41l-.79.5a11.32,11.32,0,0,0-1.51,1.1l-.34.26,0,0,0,0,0,0-.3.29-.81.77-.2.19-.15.17-.3.34c-.2.23-.41.44-.61.69a18.09,18.09,0,0,0-1.11,1.57A14.92,14.92,0,0,0,6.64,16.5a18.46,18.46,0,0,0-.79,3.69,25.56,25.56,0,0,0,.61,7.73,54.91,54.91,0,0,0,2.25,7.37c.88,2.34,1.82,4.54,2.71,6.58l2.47,5.59c.74,1.67,1.35,3.15,1.85,4.38s.85,2.2,1.09,2.87l.35,1,.19.3h0C7.85,43.88-.66,31.27,0,19.74S10-.62,20.78,0C30.08.6,38.63,7.95,38.79,17.53Z"/></svg>