<?xml version="1.0" encoding="utf-8"?>
<!-- Generator: Adobe Illustrator 20.1.0, SVG Export Plug-In . SVG Version: 6.00 Build 0)  -->
<svg version="1.1" id="Layer_1" xmlns="http://www.w3.org/2000/svg" xmlns:xlink="http://www.w3.org/1999/xlink" x="0px" y="0px"
	 viewBox="0 0 48 50.8" style="enable-background:new 0 0 48 50.8;" xml:space="preserve">
<style type="text/css">
	.st0{fill:#1D1D26;}
</style>
<title>trash-1195</title>
<g>
	<path class="st0" d="M33.5,49.9H14.5c-2.7,0-5-2.2-5-4.9L4.5,8.4h39L38.6,45C38.5,47.7,36.3,49.9,33.5,49.9z M7.9,11.4l4.5,33.5
		c0,1.1,0.9,2,2,2h19.1c1.1,0,2-0.9,2-2l0-0.2l4.5-33.3H7.9z"/>
</g>
<g>
	<path class="st0" d="M45.2,11.3H2.8c-0.8,0-1.5-0.7-1.5-1.5S2,8.3,2.8,8.3h42.3c0.8,0,1.5,0.7,1.5,1.5S46,11.3,45.2,11.3z"/>
</g>
<g>
	<path class="st0" d="M24,11.4c-2,0-3.9,0-5.3-0.1c-2-0.1-3.8-0.2-3.8-1.9V3.5c0-1.5,1.2-2.7,2.7-2.7h12.9c1.5,0,2.7,1.2,2.7,2.7
		l0,5.9C33.1,11.1,32.4,11.4,24,11.4z M17.9,8.2c2.6,0.2,9.6,0.2,12.3,0l0-4.4H17.9V8.2z"/>
</g>
<g>
	<rect x="15.7" y="19.4" class="st0" width="16.6" height="3"/>
</g>
<g>
	<rect x="15.7" y="27.2" class="st0" width="16.6" height="3"/>
</g>
<g>
	<rect x="15.7" y="27.2" class="st0" width="16.6" height="3"/>
</g>
<g>
	<rect x="15.7" y="35" class="st0" width="16.6" height="3"/>
</g>
</svg>
