<?xml version="1.0" encoding="utf-8"?>
<!-- Generator: Adobe Illustrator 20.1.0, SVG Export Plug-In . SVG Version: 6.00 Build 0)  -->
<svg version="1.1" id="Layer_1" xmlns="http://www.w3.org/2000/svg" xmlns:xlink="http://www.w3.org/1999/xlink" x="0px" y="0px"
	 viewBox="0 0 48 50.8" style="enable-background:new 0 0 48 50.8;" xml:space="preserve">
<style type="text/css">
	.st0{fill:#1D1D26;}
</style>
<title>trash-1088</title>
<g>
	<path class="st0" d="M34.8,13.6H13.1V4.2c0-1.7,1.3-3,3-3h15.7c1.7,0,3,1.3,3,3V13.6z M16.1,10.6h15.7V4.2H16.1V10.6z"/>
</g>
<g>
	<path class="st0" d="M7.7,50.2c-0.8,0-1.5-0.3-2.1-0.9c-0.6-0.6-0.9-1.3-0.9-2.1V13.6c0-1.6,1.3-3,3-3h32.6c1.7,0,3,1.3,3,3v33.7
		c0,1.6-1.3,3-3,3H7.7C7.7,50.2,7.7,50.2,7.7,50.2z M7.7,13.6v33.7l32.5,0V13.6H7.7z"/>
</g>
<g>
	<rect x="1.2" y="10.6" class="st0" width="45.6" height="3"/>
</g>
</svg>
