<?xml version="1.0" encoding="utf-8"?>
<!-- Generator: Adobe Illustrator 20.1.0, SVG Export Plug-In . SVG Version: 6.00 Build 0)  -->
<svg version="1.1" id="Layer_1" xmlns="http://www.w3.org/2000/svg" xmlns:xlink="http://www.w3.org/1999/xlink" x="0px" y="0px"
	 viewBox="0 0 51.2 48" style="enable-background:new 0 0 51.2 48;" xml:space="preserve">
<style type="text/css">
	.st0{fill:#1D1D26;}
</style>
<title>upload-1094</title>
<g>
	<path class="st0" d="M41.7,32.8h-14v-1.5h14c3.3,0.1,6.1-2.6,6.1-5.9s-2.6-6.1-5.9-6.1h-1.2l0.5-1.1c0.7-1.4,1.1-3,1.1-4.5
		c0-5.5-4.4-10-9.9-10.1c-3.3,0-6.3,1.5-8.2,4.2l-0.5,0.7l-0.6-0.6c-2.2-2.2-5.8-2.2-8,0c-1,1-1.5,2.3-1.6,3.6v0.8h-1.1
		c-5.3,0.1-9.4,4.5-9.3,9.7c0.1,4.9,4,9,8.9,9.3h10.8v1.5l-11.6-0.1C5.1,32,0.8,26.5,1.6,20.4C2.2,15.1,6.6,11,12,10.8
		c0.6-3.9,4.4-6.6,8.3-5.9c1.2,0.2,2.3,0.7,3.3,1.4c4.1-4.9,11.4-5.6,16.3-1.5c2.7,2.2,4.2,5.5,4.2,8.9c0,1.5-0.3,2.9-0.8,4.2
		c4.1,0.8,6.7,4.7,5.9,8.8C48.4,30.3,45.4,32.8,41.7,32.8L41.7,32.8z"/>
	<path class="st0" d="M23.8,33.8L11,33.8C4.4,32.9-0.3,26.9,0.6,20.3c0.7-5.6,5.1-9.8,10.6-10.5c1.1-4,5.1-6.7,9.3-6
		c1,0.2,2,0.5,2.9,1.1c2.1-2.2,4.9-3.5,7.9-3.8c3.3-0.3,6.6,0.7,9.2,2.8c2.9,2.4,4.6,5.9,4.5,9.7c0,1.2-0.2,2.4-0.5,3.6
		c1.8,0.6,3.3,1.7,4.3,3.3c1.3,1.9,1.7,4.2,1.3,6.4c-0.8,3.9-4.2,6.8-8.2,6.9l-0.2,0h-15v-3.5h15c2.8,0.1,5.1-2.1,5.1-4.9
		c0.1-2.8-2.1-5-4.9-5.1h-2.8l1.3-2.5c0.6-1.3,1-2.7,1-4.1c0-5-4-9-8.9-9.1c0,0,0,0-0.1,0c-2.9,0-5.6,1.4-7.3,3.8L23.9,10l-1.5-1.5
		c-1.8-1.8-4.8-1.8-6.6,0c-0.8,0.8-1.3,1.9-1.3,3l0,1.7h-2.1c-4.7,0.1-8.4,4-8.3,8.7c0.1,4.4,3.6,8,8,8.3l11.7,0V33.8z"/>
</g>
<g>
	<polygon class="st0" points="18.3,23.8 17.2,22.8 25.2,14.7 33.3,22.8 32.2,23.8 25.2,16.9 	"/>
	<polygon class="st0" points="18.3,25.3 15.8,22.7 25.2,13.3 34.7,22.8 32.2,25.3 25.2,18.3 	"/>
</g>
<g>
	<rect x="24.5" y="16.3" class="st0" width="1.5" height="29.6"/>
	<rect x="23.5" y="15.3" class="st0" width="3.5" height="31.6"/>
</g>
</svg>
